<?xml version="1.0" standalone="no"?>
<!DOCTYPE svg PUBLIC "-//W3C//DTD SVG 20010904//EN"
 "http://www.w3.org/TR/2001/REC-SVG-20010904/DTD/svg10.dtd">
<svg version="1.0" xmlns="http://www.w3.org/2000/svg"
 width="1000.000000pt" height="1000.000000pt" viewBox="0 0 1000.000000 1000.000000"
 preserveAspectRatio="xMidYMid meet">
<metadata>
Created by potrace 1.14, written by Peter Selinger 2001-2017
</metadata>
<g transform="translate(0.000000,1000.000000) scale(0.100000,-0.100000)"
fill="#000000" stroke="none">
<path d="M0 5000 l0 -5000 5000 0 5000 0 0 5000 0 5000 -5000 0 -5000 0 0
-5000z m5350 4119 c767 -67 1530 -383 2114 -876 66 -56 153 -131 191 -167 l70
-65 -235 -235 c-129 -130 -237 -236 -240 -236 -3 1 -52 44 -110 96 -430 390
-947 651 -1510 764 -219 44 -388 60 -630 60 -242 0 -411 -16 -630 -60 -563
-113 -1080 -374 -1510 -764 -58 -52 -107 -95 -110 -96 -3 0 -111 106 -240 236
l-235 235 70 65 c437 405 913 689 1444 864 502 166 1028 226 1561 179z m6
-1343 c508 -76 953 -286 1337 -630 l89 -79 -238 -238 -237 -237 -79 69 c-505
445 -1196 585 -1824 368 -246 -85 -440 -199 -640 -375 l-70 -63 -238 238 -238
238 94 82 c414 368 889 579 1438 640 118 13 484 5 606 -13z m-236 -1316 c138
-15 269 -53 396 -115 107 -52 241 -143 294 -199 l24 -27 -236 -236 -236 -236
-44 35 c-88 72 -199 111 -318 111 -118 0 -218 -35 -315 -108 l-48 -37 -236
236 -235 235 24 27 c51 54 189 148 295 200 204 100 413 137 635 114z"/>
</g>
</svg>
