<svg xmlns="http://www.w3.org/2000/svg" viewBox="0 0 672.89 12.31"><defs><style>.cls-1{fill:#fffaf7;}</style></defs><g id="Layer_2" data-name="Layer 2"><g id="Layer_1-2" data-name="Layer 1"><path class="cls-1" d="M2.39,10.71c86.6-10,173.6,0,260.4-.2,21.7,0,43.4-.7,65-2.5,21.2-1.8,42-4.2,63.3-2,10.8,1.1,21.6,2.8,32.4,4a324.09,324.09,0,0,0,32.7,1.8c21.9.3,43.9-.6,65.8-.9q74.25-1,148.5,1.4c3.2.1,3.2-4.9,0-5q-66.3-2.25-132.6-1.6c-22,.2-44,.9-66,1.1a473.55,473.55,0,0,1-65.2-3.9c-10.8-1.4-21.6-2.8-32.4-2.9a314.28,314.28,0,0,0-32.2,1.8c-21.2,2-42.3,3.3-63.6,3.7-43.5.8-86.9-1.5-130.4-3C99.59.91,50.79.21,2.49,5.81c-3.3.3-3.3,5.3-.1,4.9Z"/></g></g></svg>