<?xml version="1.0" encoding="UTF-8"?><svg id="Layer_2" xmlns="http://www.w3.org/2000/svg" xmlns:xlink="http://www.w3.org/1999/xlink" viewBox="0 0 155.14 153.31"><defs><style>.cls-1{fill:none;}.cls-2{clip-path:url(#clippath);}.cls-3{fill:#fffaf7;}.cls-4{fill:#161615;}.cls-5{clip-path:url(#clippath-1);}</style><clipPath id="clippath"><path class="cls-1" d="M70.34,.03c-14.8,.6-33.1,8.5-43,18S12.14,36.63,6.74,49.13-.76,78.63,.24,92.33c1.7,22.8,16.1,42.8,36.4,53.2,24,12.2,56.7,9.2,80.6-3.1,31.6-16.3,46-58.4,33.3-91.6S105.04-1.77,69.54,.13"/></clipPath><clipPath id="clippath-1"><path class="cls-1" d="M70.34,.03c-14.8,.6-33.1,8.5-43,18S12.14,36.63,6.74,49.13-.76,78.63,.24,92.33c1.7,22.8,16.1,42.8,36.4,53.2,24,12.2,56.7,9.2,80.6-3.1,31.6-16.3,46-58.4,33.3-91.6S105.04-1.77,69.54,.13"/></clipPath></defs><g id="Layer_1-2"><g><g class="cls-2"><path class="cls-3" d="M70.34,.03c-14.8,.6-33.1,8.5-43,18S12.14,36.63,6.74,49.13-.76,78.63,.24,92.33c1.7,22.8,16.1,42.8,36.4,53.2,24,12.2,56.7,9.2,80.6-3.1,31.6-16.3,46-58.4,33.3-91.6S105.04-1.77,69.54,.13"/></g><g class="cls-5"><g><path class="cls-4" d="M15.71,104.66c38.67,.23,77.35,.46,116.02,.69,6.44,.04,6.44-9.96,0-10-38.67-.23-77.35-.46-116.02-.69-6.44-.04-6.44,9.96,0,10h0Z"/><path class="cls-4" d="M15.11,62.84c2.87,10.56,5.38,21.2,7.53,31.93,1.26,6.31,10.9,3.64,9.64-2.66-2.15-10.73-4.65-21.37-7.53-31.93-1.69-6.2-11.34-3.57-9.64,2.66h0Z"/><path class="cls-4" d="M22.47,65.07c4.99-2.97,10.16-5.33,15.7-7.09,6.11-1.94,3.5-11.6-2.66-9.64s-12.39,4.7-18.09,8.1-.5,11.94,5.05,8.63h0Z"/><path class="cls-4" d="M39.8,42.67c-4.69,1.68-7.18,6.41-6.21,11.27s5.51,8,10.34,6.73,8.19-6.77,7.15-11.64c-.55-2.57-2.32-4.72-4.71-5.77s-4.81-.8-7.32-.38c-2.67,.45-4.15,3.74-3.49,6.15,.78,2.83,3.48,3.94,6.15,3.49,.25-.04,.77-.06,.23-.04,.22-.01,.86,.09,1.04-.01-.82,.47-1.51-.86-1.66-1.44-.03-.13-.02-.26,.04-.39,.07-.26,.07-.24-.01,.07-.08,.29-.09,.33-.02,.13,.08-.2,.05-.17-.1,.1-.1,.13-.22,.11-.21,.2,.05,.31-.37-.04,.26-.11,.25-.03,.55-.08,.79,0,.26,.07,1.59,1.23,.94,.44,.04,.05,.58,.83,.48,.83-.05,0-.2-.73-.22-.8,.1,.41,.18,.65,.09,.08-.1,.58-.11,.68-.02,.3,.09-.28,.08-.29-.03-.04-.13,.4,.37-.26,.01-.06-.32,.18-.46,.4-.86,.54,2.54-.91,4.25-3.41,3.49-6.15-.68-2.46-3.6-4.4-6.15-3.49h0Z"/><path class="cls-4" d="M53.78,93.6c-.56-3.38-1.25-7.19,.33-10.41s4.72-5.52,7.22-7.83c5.44-5.01,11.14-9.74,17.06-14.17,5.09-3.81,.11-12.5-5.05-8.63-7.98,5.97-15.9,12.27-22.93,19.36s-7.88,14.7-6.28,24.34c1.05,6.33,10.69,3.65,9.64-2.66h0Z"/><path class="cls-4" d="M80.81,60.64c19.47-11.01,24.99,24,24.92,35.8-.04,6.44,9.96,6.44,10,0,.07-12.86-2.61-27.71-10.37-38.31-6.88-9.4-19.54-11.81-29.6-6.12-5.6,3.17-.57,11.81,5.05,8.63h0Z"/><path class="cls-4" d="M101.29,63.69c6.25-.52,15.52,.47,20.76-3.38,2.38-1.75,4.22-4.41,5.94-6.78,1.18-1.63,3.57-7.2,5.5-7.66l-3.85-.5c-1.08-.66-2.33,3.3-2.8,4.21-1.15,2.21-2.29,4.58-3.73,6.61-2.54,3.59-9.32,3.69-13.45,4.21-6.3,.79-6.38,10.8,0,10,6.94-.87,16.26-1.1,20.81-7.19,3.83-5.12,9.99-14.52,8.21-21.26-2.2-8.32-10.52-6.26-14.54-.73-2.34,3.21-4.05,7.63-7.16,10.2-3.38,2.79-11.42,1.92-15.69,2.28-6.37,.53-6.42,10.53,0,10h0Z"/><path class="cls-4" d="M116.74,52.14c-8.24,.13-15.92-3.45-24.08-4.14-7.61-.64-14.82,1.95-20.97,6.29l5.05,8.63c1.9-1.4,3.8-2.6,6.01-3.45,6-2.3,3.73-10.8-2.66-9.64l-1.2,.22c-6.32,1.14-3.64,10.78,2.66,9.64l1.2-.22-2.66-9.64c-3.04,1.17-5.77,2.51-8.4,4.46-5.09,3.76-.27,12.38,5.05,8.63,6.1-4.3,12.18-5.87,19.58-4.33,6.83,1.42,13.37,3.65,20.43,3.55,6.43-.1,6.45-10.1,0-10h0Z"/><path class="cls-4" d="M85.96,50.1c-4.07,.07-8.16,.26-11.96,1.85-3.42,1.43-6.2,3.9-9.05,6.23-6.56,5.37-12.66,11.03-17.44,18.08-3.62,5.34,5.04,10.35,8.63,5.05s8.38-9.78,13.32-13.94c2.24-1.89,4.52-4.11,7.07-5.57,2.91-1.66,6.17-1.65,9.42-1.7,6.43-.1,6.45-10.1,0-10h0Z"/><path class="cls-4" d="M54.86,83.96c7.45-12.6,19.17-28.44,36-25.31,6.29,1.17,8.99-8.47,2.66-9.64-21.84-4.06-37.2,12.84-47.29,29.91-3.28,5.55,5.36,10.59,8.63,5.05h0Z"/><path class="cls-4" d="M57.32,95.73c-.27-4.55-1.46-11.2,.97-15.33s9.58-6.7,13.8-8.74c5.79-2.81,.72-11.43-5.05-8.63-6.13,2.97-13.82,6.15-17.42,12.33s-2.7,13.71-2.31,20.37,10.38,6.44,10,0h0Z"/><path class="cls-4" d="M55.23,82.35c1.86-4.41,5.39-8,8.59-11.44,4.38-4.71-2.68-11.8-7.07-7.07s-8.57,9.72-11.16,15.86c-1.05,2.49,1.13,5.5,3.49,6.15,2.89,.79,5.1-.99,6.15-3.49h0Z"/><path class="cls-4" d="M75.28,50.12c-15.09,4.65-26.81,16.74-30.75,32.06-1.6,6.24,8.04,8.9,9.64,2.66,3.07-11.94,11.95-21.44,23.76-25.08,6.13-1.89,3.52-11.55-2.66-9.64h0Z"/><path class="cls-4" d="M69.27,62.2c-5.04,10.55-5.57,21.91-6.82,33.35-.7,6.39,9.31,6.34,10,0,1.04-9.53,1.25-19.49,5.45-28.3,2.76-5.78-5.86-10.86-8.63-5.05h0Z"/><path class="cls-4" d="M77.23,61.18c-4.05,10.69-6.25,21.84-6.76,33.26-.17,3.97,4.33,5.98,7.52,4.32,6.19-3.23,9.81-9.26,11.53-15.87,1.99-7.65,1.44-15.96,5.94-22.79l-9.14-1.19c3.64,12.12,6.94,24.34,9.89,36.64,1.39,5.81,9.33,3.99,9.82-1.33,.62-6.67,.09-13.2-1.43-19.72l-9.64,2.66c.49,1.83,.95,3.65,1.33,5.5,.09,.42,.36,5.61,1.66,2.86-.47,.99-4.07,1.91-4.99,2.17-1.86,.52-3.39,.7-5.31,.18l2.21,8.36c4.83-5.56,8.18-11.84,9.79-19.06l-8.36,2.21c.93,1.21,.85,2.55,.72,3.96-.58,6.41,9.42,6.37,10,0,.39-4.28-1.09-7.72-3.65-11.03-2.31-2.98-7.6-1.18-8.36,2.21-1.23,5.5-3.51,10.37-7.22,14.64-2.41,2.77-1.62,7.33,2.21,8.36,6.18,1.66,14.31-.12,19.33-4.23,5.28-4.32,1.72-13.38,.28-18.79-1.66-6.23-11.1-3.6-9.64,2.66,1.32,5.67,1.61,11.27,1.07,17.06l9.82-1.33c-2.95-12.31-6.24-24.52-9.89-36.64-1.28-4.25-6.78-4.77-9.14-1.19-3.68,5.59-4.71,11.89-5.67,18.39s-2,13.45-8.21,16.68l7.52,4.32c.46-10.55,2.66-20.73,6.4-30.6,2.28-6.02-7.38-8.63-9.64-2.66h0Z"/><path class="cls-4" d="M85.47,14.24c-7.39,1.73-12.38,8.69-11.08,16.29,1.44,8.4,9.11,11.41,16.61,8.61s9.59-10.76,6.91-17.62-11.36-9.62-17.91-5.92c-5.94,3.36-9.18,10.66-7.86,17.33,1.47,7.42,8.25,11.4,15.52,10.93s13.54-4.48,14.56-12.27c.94-7.12-2.58-14.48-9.54-17.04-8.43-3.1-15.77,2.8-15.37,11.53,.18,3.88,1.8,8.01,6.01,8.82,4.48,.86,6.87-2.62,9.17-5.82,3.75-5.24-4.91-10.24-8.63-5.05-.28,.44-.59,.85-.93,1.23-.75,.78-.4,.69,1.07-.28l3.54,1.46c-.36-.29-.46-2.43-.04-2.75,.45-.35,1.96,.28,2.32,.47,2.3,1.2,3.01,4.26,2.47,6.63-.95,4.23-9.75,4.57-10.43-.22-.31-2.18,.83-4.86,2.69-6.06,2.59-1.66,4.66,.11,4.39,3.05-.21,2.3-3.77,4.2-4.69,1.46s1.65-4.61,3.89-5.14c6.26-1.46,3.61-11.11-2.66-9.64h0Z"/><path class="cls-4" d="M94.55,68.11c-.56,3.62-.53,7.06,.33,10.65,.61,2.54,3.64,4.31,6.15,3.49,2.64-.86,4.15-3.42,3.49-6.15-.31-1.28-.36-1.47-.41-2.65-.02-.57-.02-1.15,0-1.73,0-.13,.16-1.58,.07-.96,.4-2.57-.65-5.5-3.49-6.15-2.39-.54-5.72,.73-6.15,3.49h0Z"/><path class="cls-4" d="M59.02,67.19c-8.46,5.31-11.3,14.45-13.13,23.77-1.23,6.29,8.41,8.98,9.64,2.66s2.52-14.02,8.53-17.79c5.44-3.42,.42-12.07-5.05-8.63h0Z"/><path class="cls-4" d="M90.24,48.5c-4.91-.41-9.65,.71-14.04,2.89-2.42,1.2-3.09,4.62-1.79,6.84,1.44,2.46,4.41,3,6.84,1.79,2.85-1.42,5.85-1.78,8.99-1.52,2.69,.22,5-2.46,5-5,0-2.89-2.3-4.78-5-5h0Z"/><path class="cls-4" d="M76.13,61.09c1.89-1.08,3.75-1.79,5.87-2.32l-2.66-9.64c-1.45,.43-2.9,.85-4.36,1.28l3.85,9.14c2.94-1.95,8.71-1.23,12.07-1,6.42,.43,6.4-9.57,0-10-5.24-.35-12.53-.67-17.11,2.37s-1.82,10.81,3.85,9.14c1.45-.43,2.9-.85,4.36-1.28,6.17-1.81,3.6-11.2-2.66-9.64-2.91,.72-5.66,1.85-8.26,3.33-5.59,3.18-.56,11.82,5.05,8.63h0Z"/><path class="cls-4" d="M85.65,58.64c.27-.2,.55-.37,.85-.52-.35,.16-.36,.18-.03,.08,.35-.08,.32-.08-.1,0,.61,.02,.66,0,.15-.04l1.33-9.82c-3.01-.1-6.05,.26-8.97,1.01-2.53,.65-4.31,3.61-3.49,6.15s3.43,4.19,6.15,3.49c2.35-.6,3.64-.74,6.31-.65,2.49,.08,4.59-1.97,4.91-4.34s-1.13-5.04-3.58-5.49c-3-.55-5.99-.25-8.58,1.49-2.17,1.46-3.32,4.47-1.79,6.84,1.39,2.16,4.52,3.36,6.84,1.79h0Z"/><path class="cls-4" d="M79.73,59.61c7.63-4.56,16.22-1.44,23.86,1.5,6.01,2.31,8.61-7.35,2.66-9.64-10.31-3.97-21.49-6.51-31.56-.49-5.52,3.3-.5,11.95,5.05,8.63h0Z"/><path class="cls-4" d="M11.2,101.63c1.36,6.95,3.23,13.74,5.6,20.41,2.14,6.02,11.81,3.43,9.64-2.66-2.37-6.67-4.24-13.46-5.6-20.41-1.24-6.31-10.88-3.64-9.64,2.66h0Z"/><path class="cls-4" d="M127.45,97.78c-2.7,6.21-5.4,12.43-8.1,18.64-2.54,5.84,6.07,10.94,8.63,5.05,2.7-6.21,5.4-12.43,8.1-18.64,2.54-5.84-6.07-10.94-8.63-5.05h0Z"/><path class="cls-4" d="M22.18,125.5c33.75,.27,67.51,.18,101.26-.26,6.43-.08,6.45-10.08,0-10-33.75,.44-67.51,.53-101.26,.26-6.44-.05-6.44,9.95,0,10h0Z"/><path class="cls-4" d="M43.85,123.58c0,9.32-.26,18.63-.79,27.94-.37,6.43,9.63,6.41,10,0,.53-9.31,.79-18.62,.79-27.94,0-6.43-10-6.45-10,0h0Z"/><path class="cls-4" d="M96.59,124.91c-.54,9.33-.06,18.51,1.21,27.76,.87,6.35,10.51,3.65,9.64-2.66-1.14-8.33-1.34-16.72-.86-25.11,.37-6.43-9.63-6.41-10,0h0Z"/><path class="cls-4" d="M100.47,145.72c-15.03,3.29-30.45,3.45-45.54,.45l3.49,6.15c1.04-4.18,1.78-8.4,2.2-12.69,.2-2.06,.32-4.13,.34-6.21,.01-1.19,0-2.37-.05-3.55,.07-2.22-.08-2.36-.46-.43l-4.32,2.48c3.26-.3,6.9,.84,10.16,1.13s6.76,.44,10.15,.41,6.77-.21,10.14-.56c1.67-.17,3.34-.39,5-.63,1.11-.16,3.42-1.06,4.31-.81l-2.99-2.3c.05,.08-1.28,6.13-1.43,7.15-.41,2.76-.53,5.73-1.49,8.35l2.3-2.99c1.53-.79,.5-.2-.86-.26-1.59-.07-3.2-.03-4.79-.08-2.87-.09-5.74-.25-8.61-.48-5.93-.48-11.8-1.33-17.64-2.44l3.49,6.15c1.19-3.33,2.03-7.56,3.91-10.56l-2.99,2.3c2.01-.31,4.9,.71,6.94,.98,2.57,.35,5.13,.62,7.73,.6,5.26-.04,10.51-.99,15.68-1.9l-6.15-6.15c-.16,1.06-.31,2.11-.58,3.15-.19,.83-.46,1.64-.8,2.42-.56,1-.51,1.15,.15,.46,1.62-.31-1.78-1.12-2.05-1.2-1.43-.4-2.87-.75-4.32-1.04-5.1-1.02-10.28-1.42-15.48-1.27-6.42,.19-6.45,10.19,0,10,4.31-.13,8.58,.06,12.82,.91,3.27,.65,6.62,2.33,9.95,2.39,6.92,.13,9.11-7.56,9.95-13.17,.59-3.93-2.14-6.85-6.15-6.15-4.63,.81-9.27,1.61-13.98,1.55-4.21-.06-8.27-1.15-12.45-1.39-3.19-.19-5.64,.13-7.36,3.18-2.05,3.64-3.05,8.29-4.46,12.22-.86,2.4,.98,5.67,3.49,6.15,6.71,1.27,13.49,2.24,20.3,2.79,3.82,.31,7.65,.49,11.48,.55,2.36,.03,4.96,.32,7.15-.74,4.81-2.33,4.32-10.78,5-15.3s2.81-11.91-3.46-13.63c-2.42-.66-5.04,.26-7.44,.63-3.51,.55-7.06,.86-10.61,1.01-6.97,.3-13.86-.17-20.75-1.21-5.24-.79-8.51,1.34-8.52,6.82-.01,7.09-.37,13.76-2.1,20.68-.62,2.48,.79,5.61,3.49,6.15,16.91,3.37,34.01,3.24,50.86-.45,6.28-1.37,3.62-11.02-2.66-9.64h0Z"/><path class="cls-4" d="M24.18,111.82c32.04-.03,64.09-.07,96.13-.1l-4.32-7.52c-1.61,3.8-3.63,4.09-7.51,4.13s-7.98-.02-11.97-.03c-7.65-.02-15.3-.04-22.95-.06-15.63-.04-31.26-.08-46.9-.12-6.44-.02-6.44,9.98,0,10,18.29,.05,36.59,.09,54.88,.14,8.98,.02,17.97,.2,26.94,.07,7.3-.11,13.11-1.94,16.14-9.08,1.42-3.35-.16-7.53-4.32-7.52-32.04,.03-64.09,.07-96.13,.1-6.43,0-6.45,10.01,0,10h0Z"/><path class="cls-4" d="M125.92,99.76c-2.24,5.94-2.71,12.57-6.53,17.81-3.79,5.21,4.88,10.2,8.63,5.05,4.36-5.98,4.99-13.44,7.54-20.2,2.28-6.03-7.39-8.63-9.64-2.66h0Z"/><path class="cls-4" d="M131.26,94.86c-5.93-.3-11.86-.36-17.8-.17-6.42,.2-6.45,10.2,0,10,5.94-.19,11.86-.13,17.8,.17,6.43,.33,6.41-9.67,0-10h0Z"/><path class="cls-4" d="M126.61,99.14c-1,4.86-2.75,9.2-5.42,13.38-3.47,5.44,5.18,10.46,8.63,5.05,3.08-4.82,5.27-10.16,6.42-15.76,1.3-6.28-8.34-8.97-9.64-2.66h0Z"/></g></g></g></g></svg>