<svg xmlns="http://www.w3.org/2000/svg" xmlns:xlink="http://www.w3.org/1999/xlink" viewBox="0 0 155.15 161.74"><defs><style>.cls-1{fill:none;}.cls-2{clip-path:url(#clip-path);}.cls-3{fill:#fffaf7;}.cls-4{fill:#161615;}</style><clipPath id="clip-path"><path class="cls-1" d="M70.35,0c-14.8.6-33.1,8.5-43,18s-15.2,18.6-20.6,31.1-7.5,29.5-6.5,43.2c1.7,22.8,16.1,42.8,36.4,53.2,24,12.2,56.7,9.2,80.6-3.1,31.6-16.3,46-58.4,33.3-91.6s-45.5-52.6-81-50.7"/></clipPath></defs><g id="Layer_2" data-name="Layer 2"><g id="Layer_1-2" data-name="Layer 1"><g class="cls-2"><path class="cls-3" d="M70.35,0c-14.8.6-33.1,8.5-43,18s-15.2,18.6-20.6,31.1-7.5,29.5-6.5,43.2c1.7,22.8,16.1,42.8,36.4,53.2,24,12.2,56.7,9.2,80.6-3.1,31.6-16.3,46-58.4,33.3-91.6s-45.5-52.6-81-50.7"/></g><g class="cls-2"><path class="cls-4" d="M46.65,149.93a170.74,170.74,0,0,1,6.3-41.4c3.1-11.2,9.4-21.5,22.5-20.1,27.3,3,30.4,41,38.6,60.8,2.4,5.9,12.1,3.3,9.6-2.7-10.4-25-14.5-66.7-49.7-68.2-14.7-.6-24.6,9.4-29.2,22.5-5.4,15.4-7.9,32.8-8.2,49.1-.1,6.4,9.9,6.4,10.1,0Z"/></g><g class="cls-2"><path class="cls-4" d="M103.85,97c3.3-3.8,6.6-7.4,10.2-10.9,1.9-1.8,3.8-3.7,5.8-5.4.9-.8,1.8-1.6,2.7-2.3,1.3-1.1,1.4-1.6,2.2-.1.6,1.1.8-.6-.3.7a17,17,0,0,1-3,2.3c-2.2,1.8-4.4,3.5-6.7,5.3-4.4,3.5-8.9,7-13.3,10.6-5,4,2.1,11,7.1,7.1,6.9-5.5,13.8-10.9,20.8-16.4,2.8-2.2,5.9-4.2,6.3-8.1.4-3.5-1.8-6.7-4.2-9-6.1-5.9-11.7-3.1-17.2,1.7A178.62,178.62,0,0,0,97,90c-4.3,4.8,2.7,11.9,6.9,7Z"/></g><g class="cls-2"><path class="cls-4" d="M57.75,91.93c-6.5-6.1-14-10.8-21.7-15.1-6.1-3.4-14.2-6.2-19.9-.3-5.4,5.5-2.6,13.8,2.8,18,3.5,2.7,7.8,4.1,11.8,5.8,4.8,2,9.6,4.1,14.4,6.1,5.9,2.5,11-6.1,5-8.6-5.4-2.3-10.8-4.6-16.2-6.8-1.5-.6-14.4-6.1-9.4-7.8,3.3-1.1,10.3,4.6,12.9,6.3a77.91,77.91,0,0,1,13.1,9.7c4.8,4.2,11.9-2.9,7.2-7.3Z"/></g><g class="cls-2"><path class="cls-4" d="M69.25,33.73c-11.8,3.8-18.1,16.9-12.1,28.3,5.6,10.6,19.9,13.7,30.3,8.7s15.8-18.1,10.4-28.7a20.61,20.61,0,0,0-12.7-10.4c-6.8-1.8-13.1.9-19,4-5.7,3-.6,11.7,5,8.6,5.8-3.1,13-5.5,17.3,1.5,3.3,5.5.4,12.7-4.9,15.6-5.1,2.8-12.6,2.2-16.5-2.4-4.8-5.5-1.9-13.5,4.7-15.7,6.3-1.8,3.7-11.5-2.5-9.5Z"/></g><g class="cls-2"><path class="cls-4" d="M77.15,42.63c-4.7,1.8-10.4,5.6-11.6,10.9-1.5,6.7,6,9.9,10.8,5.9,3.4-2.9,6.3-9.7,4.7-14.1-2.3-6.4-9.8-4.8-13.5-.8s-5.3,10.4-1.3,14.7c3.7,3.9,10.4,4.2,15.1,2.4,10.3-4,11.2-18.4.6-22.6v9.6c.8-.2.6,1,.5,1.7a4.14,4.14,0,0,1-2,2.8,6.2,6.2,0,0,1-6.9.2c-4.1-2.5-8,1.6-7.3,5.6,1,6.5,8.8,7.6,13.2,4.1,2.1-1.7,1.7-5.3,0-7.1-2.1-2.1-5-1.6-7.1,0,1.4-1.1,2.5-1,3.5.3-2.4,1.9-4.9,3.8-7.3,5.6,7.2,4.5,17.3,2.1,21.9-5,5.1-8-.3-21.3-11.1-18-5,1.5-4.4,7.9,0,9.6-.1,0,.6,1.3.3,2.1-.5,1.6-2.8,2-4.2,2-.8,0-1.9-.7-1.5.6-.3-1,1.4-1.7,1.4-2.4-1.2-1.1-2.4-2.2-3.7-3.3a16.55,16.55,0,0,1-.6,2.1,8.86,8.86,0,0,1-.8,1.7c-.4.6-.4.6,0,.2H73c.4.2.8.5,1.2.7.5,1.2,1,2.4,1.5,3.5-.1-1.3,3.5-3.2,4.3-3.5,5.8-2.1,3.2-11.8-2.8-9.5Z"/></g><g class="cls-2"><path class="cls-4" d="M22.45,86.13A280.58,280.58,0,0,0,55.75,104c5.8,2.6,10.9-6,5-8.6a280.58,280.58,0,0,1-33.3-17.9c-5.4-3.5-10.4,5.2-5,8.6Z"/></g><g class="cls-2"><path class="cls-4" d="M122.25,74.43c-9.3,5.8-18.5,12-27.4,18.4-5.2,3.7-.2,12.4,5,8.6,8.9-6.4,18.1-12.6,27.4-18.4,5.5-3.4.5-12-5-8.6Z"/></g><g class="cls-2"><path class="cls-4" d="M88.15,87.63c-12.1-1.4-27.3-.1-31.1,14-.9,3.5,1.7,5.9,4.8,6.3,5,.7,10.6-.4,13.6-4.8a10.13,10.13,0,0,0-1-12.8,5.13,5.13,0,0,0-6.1-.8c-8.8,4.7-17.3,10.8-17.5,21.7-.1,5,6.9,6.8,9.3,2.5a74.92,74.92,0,0,0,8.1-21.2c1.4-6.4-7.2-8.5-9.6-2.7-7.8,18.8-18.3,37.9-10.2,58.4,1.8,4.6,7.9,4.9,9.6,0a222.86,222.86,0,0,0,9.8-38.6c1-6.3-7.4-8.8-9.6-2.7A272.14,272.14,0,0,0,45.85,154c-.9,5.4,6,9,9.1,3.9,7.4-12.2,9.2-26.4,10.6-40.4.6-5.4-6.8-6.1-9.3-2.5a64.1,64.1,0,0,0-11.4,30h10a29.43,29.43,0,0,0-3.2-11.2c-1.9-3.7-8.3-3-9.1,1.2-1.2,6-1,13,2.6,18.2,3.3,4.8,9.1,5.4,13.1,1.2,8.7-9.4,13.9-23.3,15.9-35.7-3.3-.4-6.5-.9-9.8-1.3a289.28,289.28,0,0,0,.1,39.5c.5,6.5,9.3,6.3,10,0a173.35,173.35,0,0,0,.3-38.1c-.6-6.3-9.8-6.6-10,0-.4,11.7-.5,23.4-.3,35.2,3.3-.4,6.5-.9,9.8-1.3l-5.7-22.2c-1.3-5-8.2-4.5-9.6,0a47.69,47.69,0,0,0-1.5,22.5c.9,5.1,8.3,4.4,9.6,0a109.94,109.94,0,0,1,14.7-30.7l-9.1-1.2c3,10.4,6.1,20.8,9.1,31.2,1.6,5.5,9.7,4.3,9.8-1.3.4-13.5-5-25.8-10.6-37.8-2.2-4.7-9.3-2.2-9.3,2.5,0,12.9,0,25.7.1,38.6,0,5.5,8.6,7,9.8,1.3a86.13,86.13,0,0,0,.8-31.2c-.9-5.9-9.5-4-9.8,1.3a55.88,55.88,0,0,0,7.1,31c1.8,3.2,6.9,3.3,8.6,0,6.5-12.4,4-26.1.5-39-1.7-6.4-10.5-3.5-9.6,2.7A146.21,146.21,0,0,0,87,151c1.8,4.9,7.7,4.5,9.6,0a40.2,40.2,0,0,0,1.6-26.5c-1.7-6.3-10.7-3.6-9.6,2.7,1.7,10.3,3.5,20.6,5.2,30.9,1,5.7,9.8,4.2,9.8-1.3.1-8.2.1-16.5.2-24.7-3.1.8-6.2,1.7-9.3,2.5l9,19.5c2.3,5.1,11.2,1.5,9.1-3.9-2.8-7.5-5.7-15-8.5-22.5-2.8,1.6-5.6,3.2-8.4,4.9a66.91,66.91,0,0,1,10.8,15.6c2.6-2,5.2-4,7.9-6.1-6.8-7.4-5.7-18.8-7.3-28.1-1.6-8.6-5.4-17.1-13.3-21.5-3.6-2-7.1.6-7.5,4.3a98.82,98.82,0,0,0,5.5,45.1c1.9,5.2,9.5,4.5,9.8-1.3.6-12.1-7.2-21.9-8.1-33.6-3.1.8-6.2,1.7-9.3,2.5a121,121,0,0,0,12.4,16.1c2.8,3.1,8.8.8,8.5-3.5a79.41,79.41,0,0,0-4.9-23.1c-2-5.4-9.2-4.3-9.8,1.3a41.63,41.63,0,0,0,1.2,15.3c3-1.3,6.1-2.6,9.1-3.9a116.78,116.78,0,0,0-18.1-21c-2.5-2.3-7.8-1.8-8.4,2.2a37.18,37.18,0,0,0,4,23.6c2.4,4.5,9.2,2.2,9.3-2.5a69.53,69.53,0,0,0-2.9-22.2c-1.7-5.7-9.3-4.1-9.8,1.3a67,67,0,0,0,1.9,24c3-1.3,6.1-2.6,9.1-3.9a84.13,84.13,0,0,0-13.7-18.3c-2.8-2.9-9-.9-8.5,3.5a146.86,146.86,0,0,0,2.9,17.4l9.6-2.7a71.3,71.3,0,0,0-5.1-12.5c-2.2-4.2-9.9-2.5-9.3,2.5a56.09,56.09,0,0,0,5.2,18.5c2.7,5.8,11.4.7,8.6-5a42.53,42.53,0,0,1-3.8-13.5c-3.1.8-6.2,1.7-9.3,2.5a62.87,62.87,0,0,1,4.1,10.1c1.9,6.2,11.1,3.6,9.6-2.7a125.4,125.4,0,0,1-2.5-14.7c-2.8,1.2-5.7,2.4-8.5,3.5a78,78,0,0,1,12.2,16.3c2.8,5,10.5,1.6,9.1-3.9a58.93,58.93,0,0,1-1.5-21.3c-3.3.4-6.5.9-9.8,1.3a61.21,61.21,0,0,1,2.6,19.5c3.1-.8,6.2-1.7,9.3-2.5a25.93,25.93,0,0,1-3-15.9c-2.8.7-5.6,1.5-8.4,2.2a110.9,110.9,0,0,1,16.5,19c3.1,4.6,10.6,1.9,9.1-3.9a33.44,33.44,0,0,1-.8-12.6c-3.3.4-6.5.9-9.8,1.3a71.87,71.87,0,0,1,4.6,20.4c2.8-1.2,5.7-2.4,8.5-3.5a115.15,115.15,0,0,1-10.9-14.1c-2.5-3.9-9.7-2.7-9.3,2.5.9,11.6,8.7,21.9,8.1,33.6,3.3-.4,6.5-.9,9.8-1.3a91.67,91.67,0,0,1-5.2-42.5c-2.5,1.4-5,2.9-7.5,4.3,8,4.4,8.7,14.7,9.6,22.8,1,9.2,2.6,18.1,9,25.2,4,4.4,10.3-1.2,7.9-6.1a77.66,77.66,0,0,0-12.4-17.6c-3.3-3.5-10.2.1-8.4,4.9,2.8,7.5,5.7,15,8.5,22.5,3-1.3,6.1-2.6,9.1-3.9L103,129c-2.2-4.7-9.3-2.1-9.3,2.5-.1,8.2-.1,16.5-.2,24.7,3.3-.4,6.5-.9,9.8-1.3-1.7-10.3-3.5-20.6-5.2-30.9l-9.6,2.7a31,31,0,0,1-1.6,21.2h9.6a159.72,159.72,0,0,1-7.8-30.6l-9.6,2.7c2.7,10.1,5.6,21.5.5,31.3h8.6a46,46,0,0,1-5.8-25.9c-3.3.4-6.5.9-9.8,1.3a72.19,72.19,0,0,1-.8,25.8c3.3.4,6.5.9,9.8,1.3,0-12.9,0-25.7-.1-38.6-3.1.8-6.2,1.7-9.3,2.5,4.8,10.4,9.5,21.1,9.2,32.8,3.3-.4,6.5-.9,9.8-1.3-3-10.4-6.1-20.8-9.1-31.2a5,5,0,0,0-9.1-1.2,115.71,115.71,0,0,0-15.7,33.1h9.6a34.63,34.63,0,0,1,1.5-17.2h-9.6l5.7,22.2c1.4,5.4,9.9,4.3,9.8-1.3-.2-11.7-.1-23.5.3-35.2h-10a173.35,173.35,0,0,1-.3,38.1h10a274,274,0,0,1-.1-39.5c.4-5.5-8.9-6.9-9.8-1.3a68.6,68.6,0,0,1-6.8,21.1,68.41,68.41,0,0,1-5.3,8.6c-1.9,1.8-1.7,2.2.6,1.3a14.58,14.58,0,0,0-.7-1.9,15,15,0,0,1-.2-7.3l-9.1,1.2a17,17,0,0,1,1.8,6.2c.6,6.5,9.2,6.4,10,0a53.13,53.13,0,0,1,10-25c-3.1-.8-6.2-1.7-9.3-2.5-1.3,12.2-2.8,24.6-9.2,35.3,3,1.3,6.1,2.6,9.1,3.9a286.62,286.62,0,0,1,12.4-47.1l-9.6-2.7a222.86,222.86,0,0,1-9.8,38.6h9.6c-7.3-18.6,3.2-36.1,10.2-53.1l-9.6-2.7a70.72,70.72,0,0,1-7.1,18.9c3.1.8,6.2,1.7,9.3,2.5.1-6.9,7.2-10.3,12.5-13.1-2-.3-4-.5-6.1-.8.5.6-4.9.7-5.6.6l4.8,6.3c2.4-9,14.5-7.4,21.5-6.6,6.8.9,6.8-9.1.4-9.8Z"/></g><g class="cls-2"><path class="cls-4" d="M73,85.73c-1.3.2-2.7.4-4,.7a5,5,0,0,0-3,2.3,5.32,5.32,0,0,0-.5,3.9,5,5,0,0,0,2.3,3,5.86,5.86,0,0,0,3.9.5c1.3-.2,2.7-.4,4-.7a5,5,0,0,0,3-2.3,5.32,5.32,0,0,0,.5-3.9,5,5,0,0,0-2.3-3,6.74,6.74,0,0,0-3.9-.5Z"/></g><g class="cls-2"><path class="cls-4" d="M71.45,46.43c2-2.9,4.7-4.3,8-5.2,5.7-1.5,4.1-9.4-1.3-9.8-7.9-.6-16.4,3.4-19.6,10.9-2.4,5.7,5.6,10.9,8.6,5,4-7.6,15.8-9.2,21.2-2,3.8,5.1,12.5.1,8.6-5-9.7-12.7-30.6-12.9-38.5,2,2.9,1.7,5.8,3.4,8.6,5,1.9-4.6,6.2-6.3,11-5.9-.4-3.3-.9-6.5-1.3-9.8a23,23,0,0,0-14,9.8c-3.6,5.3,5.1,10.3,8.7,5Z"/></g><g class="cls-2"><path class="cls-4" d="M13.85,89.63c7.4,8.9,21.6,13.8,32.7,15.9,6.3,1.2,9-8.4,2.7-9.6-9.5-1.9-21.9-5.7-28.3-13.4-4.2-4.9-11.2,2.2-7.1,7.1Z"/></g></g></g></svg>