<svg xmlns="http://www.w3.org/2000/svg" viewBox="0 0 33.63 40.9"><defs><style>.cls-1{fill:#151516;}</style></defs><g id="Layer_2" data-name="Layer 2"><g id="Layer_1-2" data-name="Layer 1"><path class="cls-1" d="M7,.41c-5.5.8-7.2,7.2-7,11.8.2,5.1,2.8,10,7.8,11.7,4.5,1.5,10-1.3,12.9-4.8a10.68,10.68,0,0,0,.7-13.2c-3.2-4.6-8.9-6.4-14.3-5.8a2.61,2.61,0,0,0-2.5,2.5c0,1.2,1.2,2.7,2.5,2.5,3.2-.4,6.7,0,9,2.3a6.87,6.87,0,0,1,2,3.5,5.27,5.27,0,0,1-.4,3.7,8.91,8.91,0,0,1-3,3.1,8.5,8.5,0,0,1-4.3,1.7,5.15,5.15,0,0,1-3.5-1.6,7.84,7.84,0,0,1-2-4.3,12.36,12.36,0,0,1,.3-5.4c.5-1.7,1.3-2.7,2.9-2.9a2.48,2.48,0,0,0,1.7-3.1C9.72.81,8.42.31,7,.41Z"/><path class="cls-1" d="M14.92,22.41a47.38,47.38,0,0,0,4.2,8.8,35.06,35.06,0,0,0,2.7,4,37.9,37.9,0,0,0,3.1,3.7,6,6,0,0,0,5.2,1.9,4.51,4.51,0,0,0,3.4-3.5c.8-3.8-2.7-6.6-4.9-9.1-2.7-3.1-5.5-6.2-8.2-9.2a2.47,2.47,0,0,0-3.5,3.5c2,2.2,3.9,4.4,5.9,6.7l3,3.3c.5.6,1,1.1,1.5,1.7a9,9,0,0,1,1,1.2c.2.3.3.4.3.5s.1.2.1.4c0-.1-.1-.3,0-.1s-.1-.2,0-.1c-.1-.1.1.4,0,.1,0-.1.1,0-.1.1.1-.1.1-.2.3-.3s.2,0,.3-.1c.3-.1,0,.1.1,0h0c-.1-.1-.2-.1-.3-.2s-.2-.1-.3-.2c.1,0,.2.1,0,0a4.62,4.62,0,0,1-.7-.7,45.73,45.73,0,0,1-4.5-6.1,40.94,40.94,0,0,1-3.7-7.6,2.53,2.53,0,0,0-3.1-1.7,2.47,2.47,0,0,0-1.8,3Z"/></g></g></svg>