<svg xmlns="http://www.w3.org/2000/svg" viewBox="0 0 570.03 70.7"><defs><style>.cls-1{fill:#fffaf7;}</style></defs><g id="Layer_2" data-name="Layer 2"><g id="Layer_1-2" data-name="Layer 1"><path class="cls-1" d="M551.43,55.21c6.3,11.3,23.6,1.2,17.2-10-10.9-19.7-28-37.5-50.7-42.5A55.36,55.36,0,0,0,485.23,5c-9.7,4-17.8,10-26.2,16.1-7.3,5.3-14.8,10.5-23.5,13a49.57,49.57,0,0,1-28.3-.2c-19.4-5.9-34.9-20.7-55.2-24.4-11.1-2-21.8-1.1-32,4-4.4,2.2-8.3,5.3-12.8,7.2a29.2,29.2,0,0,1-11.7,1.7c-9-.3-17.6-3.1-26.4-4.5-10-1.6-19.8-1.8-29.6,1.4-8.2,2.6-16.9,8.1-25.7,7.8-8.3-.3-15.4-7.3-22.2-11.5-5-3.1-10.6-5.9-16.7-4.6-4.4,1-8,3.6-11.2,6.8-5.4,5.3-9.5,12.3-15.6,16.9s-11.6,1.1-18.1-2.1c-10.2-5-20.7-6.8-32-6.9-22.9-.3-45.8.6-68.7.9-12.9.2-12.9,20.2,0,20L69,46c12-.2,24.1-.9,36.1-.1a38,38,0,0,1,14.1,3.5c4.8,2.3,9.5,5.1,14.7,6.5,10.7,2.9,20.7-.5,28.8-7.6,5.8-5.1,10.1-11.6,15.6-17a19.2,19.2,0,0,1,1.5-1.4c-.3.2-.6.3-.9.5-3.1-1.6-.8.4-.8.3,0,.2,5.5,3.3,6.1,3.7,3.7,2.5,7.4,5.2,11.3,7.3a39.87,39.87,0,0,0,28.7,4c9-2,17.1-7,26.1-8.8,8.1-1.6,16.7.5,24.6,2.2,9,1.9,18.3,3.8,27.5,2.8a45.16,45.16,0,0,0,15.7-4.6c4.4-2.2,8.3-5.2,12.8-7.2,8-3.5,16.8-1.9,24.8.9,19,6.6,34.3,20.8,54.7,23.9,20.6,3.2,39.5-2.9,56.2-14.9,13.5-9.6,27.3-21.9,45.2-18.3,18.3,3.8,30.9,17.8,39.6,33.5Z"/><path class="cls-1" d="M67,18.81c11-6.7.9-24-10.1-17.3a186.47,186.47,0,0,1-49.7,21.1c-8.2,2.2-10,14.2-2.4,18.3L57,69.41c11.3,6.1,21.4-11.1,10.1-17.3l-52.2-28.5-2.4,18.3A203.24,203.24,0,0,0,67,18.81Z"/></g></g></svg>