<svg xmlns="http://www.w3.org/2000/svg" viewBox="0 0 570.03 70.7"><defs><style>.cls-1{fill:#fffaf7;}</style></defs><g id="Layer_2" data-name="Layer 2"><g id="Layer_1-2" data-name="Layer 1"><path class="cls-1" d="M18.6,55.21c8.7-15.7,21.3-29.7,39.6-33.5,17.9-3.6,31.7,8.7,45.2,18.3,16.7,12,35.6,18.1,56.2,14.9,20.4-3.1,35.7-17.3,54.7-23.9,8-2.8,16.8-4.4,24.8-.9,4.5,2,8.4,5,12.8,7.2a45.16,45.16,0,0,0,15.7,4.6c9.2,1,18.5-.9,27.5-2.8,7.9-1.7,16.5-3.8,24.6-2.2,9,1.8,17.1,6.8,26.1,8.8a39.87,39.87,0,0,0,28.7-4c3.9-2.1,7.6-4.8,11.3-7.3.6-.4,6.1-3.5,6.1-3.7,0,.1,2.3-1.9-.8-.3-.3-.2-.6-.3-.9-.5a19.2,19.2,0,0,1,1.5,1.4c5.5,5.4,9.8,11.9,15.6,17,8.1,7.1,18.1,10.5,28.8,7.6,5.2-1.4,9.9-4.2,14.7-6.5a38,38,0,0,1,14.1-3.5c12-.8,24.1-.1,36.1.1l39.7.6c12.9.2,12.9-19.8,0-20-22.9-.3-45.8-1.2-68.7-.9-11.3.1-21.8,1.9-32,6.9-6.5,3.2-12,6.7-18.1,2.1s-10.2-11.6-15.6-16.9c-3.2-3.2-6.8-5.8-11.2-6.8-6.1-1.3-11.7,1.5-16.7,4.6-6.8,4.2-13.9,11.2-22.2,11.5-8.8.3-17.5-5.2-25.7-7.8-9.8-3.2-19.6-3-29.6-1.4-8.8,1.4-17.4,4.2-26.4,4.5a29.2,29.2,0,0,1-11.7-1.7c-4.5-1.9-8.4-5-12.8-7.2-10.2-5.1-20.9-6-32-4-20.3,3.7-35.8,18.5-55.2,24.4a49.57,49.57,0,0,1-28.3.2c-8.7-2.5-16.2-7.7-23.5-13C102.6,15,94.5,9,84.8,5a55.36,55.36,0,0,0-32.7-2.3c-22.7,5-39.8,22.8-50.7,42.5-6.4,11.2,10.9,21.3,17.2,10Z"/><path class="cls-1" d="M503,18.81a203.24,203.24,0,0,0,54.5,23.1l-2.4-18.3-52.2,28.5c-11.3,6.2-1.2,23.4,10.1,17.3l52.2-28.5c7.6-4.1,5.8-16.1-2.4-18.3a186.47,186.47,0,0,1-49.7-21.1c-11-6.7-21.1,10.6-10.1,17.3Z"/></g></g></svg>