<svg xmlns="http://www.w3.org/2000/svg" viewBox="0 0 329.09 60.31"><defs><style>.cls-1{fill:#f6c84c;}</style></defs><g id="Layer_2" data-name="Layer 2"><g id="Layer_1-2" data-name="Layer 1"><path class="cls-1" d="M207.19,58.8c45,2.2,74.5-.3,74.5-.3s24.4-.8,35.9-9.3,11.5-13.3,11.5-18.1a28.43,28.43,0,0,0-5.5-16.2C318.39,8.2,309.19,4,299.69,2s-19.5-2-29.4-2h-49.8c-20.5,0-41.1,0-61.6.7-32.1,1.1-63.8,1.4-77.5,2.2s-31,1.6-45.1,3.3A54.74,54.74,0,0,0,9.09,16.9c-4.8,3.4-9,9.8-9,15.8-.6,10.9,2,14.5,6.8,18.8s16.7,9,38,8.8,96.9-3.7,131-2.7"/></g></g></svg>