<svg xmlns="http://www.w3.org/2000/svg" viewBox="0 0 88.11 56.88"><defs><style>.cls-1{fill:#151516;}</style></defs><g id="Layer_2" data-name="Layer 2"><g id="Layer_1-2" data-name="Layer 1"><path class="cls-1" d="M45.81,8c-10.9,2.3-21.8,4.6-32.8,7-3.1.7-1.8,5.5,1.3,4.8,10.9-2.3,21.8-4.6,32.8-7,3.2-.6,1.9-5.4-1.3-4.8Z"/><path class="cls-1" d="M10.21,16.39A18.22,18.22,0,0,0,7.61,33a2.48,2.48,0,0,0,3.1,1.7,2.53,2.53,0,0,0,1.7-3.1,12.09,12.09,0,0,1-.5-1.8c-.1-.3-.1-.6-.2-.9.1.6,0-.4,0-.5a10.82,10.82,0,0,1,0-1.8,2.77,2.77,0,0,1,.1-.9v-.5h0a11.63,11.63,0,0,1,.4-1.8l.3-.9c0-.1.4-1,.2-.5a15,15,0,0,1,1.9-3.2,2.49,2.49,0,0,0-.9-3.4,2.91,2.91,0,0,0-3.5,1Z"/><path class="cls-1" d="M9.81,35a302,302,0,0,0,37.5,10.5,2.5,2.5,0,1,0,1.4-4.8,290,290,0,0,1-37.5-10.5,2.53,2.53,0,0,0-3.1,1.7A2.48,2.48,0,0,0,9.81,35Z"/><path class="cls-1" d="M46.51,9.29c-6.2,1.3-6.5,8.9-6.3,13.9a51.18,51.18,0,0,0,3.4,17.3c1,2.5,2.5,5.3,5.5,5.4s4.8-3.4,5.5-5.9a34.67,34.67,0,0,0,1-8.5,52,52,0,0,0-.5-8.8A54.15,54.15,0,0,0,53,13c-1.1-3.4-3.5-6.2-7.4-5.5a2.5,2.5,0,1,0,1.4,4.8c.9-.2,1.7,3.5,1.8,3.9a47,47,0,0,1,1.3,6.3,51.44,51.44,0,0,1,.2,13,23.36,23.36,0,0,1-.4,2.6,12,12,0,0,1-1.1,2.6c-.2.4-.3.1,0,.2-.1,0,.7-.2.7,0s-.4-.4-.4-.4a14.45,14.45,0,0,1-1.1-2.6,45.77,45.77,0,0,1-2.7-12.6,35.63,35.63,0,0,1,.1-7.3c.2-1.6.7-3.5,2.5-3.9a2.48,2.48,0,0,0,1.7-3.1,2.61,2.61,0,0,0-3.1-1.7Z"/><path class="cls-1" d="M14.21,35.69a74.17,74.17,0,0,0-4.8,13.2c-.4,1.5-.8,3,.4,4.2.9,1,2.3,1.2,3.5,1.6l7.1,2.1a2.61,2.61,0,0,0,3.1-1.7c1.6-5.1,3.1-10.1,4.7-15.2a2.5,2.5,0,0,0-4.8-1.4c-1.6,5.1-3.1,10.1-4.7,15.2,1-.6,2.1-1.2,3.1-1.7-1.5-.5-3.1-.9-4.6-1.4-.8-.2-1.5-.5-2.3-.7-.3-.1-.7-.2-1-.3a6.37,6.37,0,0,0-.7-.2c-.5-.2-.4-.1.1.2.2.4.4.7.6,1.1-.1.7,0,.9,0,.5,0-.2.1-.3.1-.5a2.92,2.92,0,0,0,.2-.9c.1-.5.3-1,.4-1.6a35.8,35.8,0,0,1,1.1-3.5c.8-2.2,1.6-4.3,2.6-6.4a2.56,2.56,0,0,0-.9-3.4,2.25,2.25,0,0,0-3.2.8Z"/><path class="cls-1" d="M14,38.29c-3.7-1.7-9-3.7-12.4-.3a5.18,5.18,0,0,0-.9,6.3,7.43,7.43,0,0,0,4.5,3c2.1.6,4.3,1,6.4,1.5A2.5,2.5,0,1,0,13,44c-1.7-.4-3.3-.8-5-1.1a13.32,13.32,0,0,1-1.9-.5c-.2-.1-.3-.1-.5-.2s-.1-.1-.2-.1.5.2.3.1-.5-.4-.8-.4l.2.2-.1-.1-.3-.3s.3.4.2.3a.35.35,0,0,1-.1-.2c0-.1-.1-.3,0,.1s0,.1,0,0c-.1-.6,0,.5,0,0s-.1.5,0,.1c0-.1,0-.1.1-.2s-.1.3-.1.3a.76.76,0,0,0,.2-.4c.1-.2-.2.2-.2.2s.1-.1.1-.2.4-.4.1-.2.1-.1.2-.1.1-.1.2-.1c.3-.2-.1.1-.2.1a1.42,1.42,0,0,0,.6-.2h.6c.1,0,.5.1.6,0s-.5-.1-.2,0a.76.76,0,0,1,.4.1c.2,0,.4.1.6.1a9.29,9.29,0,0,1,1.3.4,7.84,7.84,0,0,1,1.4.5c.1,0,.2.1.3.1-.1-.1-.4-.2-.1,0s.5.2.7.3a2.44,2.44,0,0,0,3.4-.9,2.36,2.36,0,0,0-.8-3.4Z"/><path class="cls-1" d="M58.21,18.59a22.09,22.09,0,0,1,2.9,7.5,24.24,24.24,0,0,1,.2,7.6,2.61,2.61,0,0,0,1.7,3.1c1.2.3,2.9-.4,3.1-1.7a27.86,27.86,0,0,0-3.6-18.9,2.47,2.47,0,0,0-3.4-.9,2.24,2.24,0,0,0-.9,3.3Z"/><path class="cls-1" d="M64.51,10a32.92,32.92,0,0,1,3.2,31,2.56,2.56,0,0,0,.9,3.4c1.1.6,2.9.4,3.4-.9a37.84,37.84,0,0,0-3.2-36c-1.7-2.7-6.1-.2-4.3,2.5Z"/><path class="cls-1" d="M72.71,4.29A34.2,34.2,0,0,1,83,25.09a34.78,34.78,0,0,1-6.2,23.4,2.47,2.47,0,0,0,.9,3.4,2.56,2.56,0,0,0,3.4-.9A38.88,38.88,0,0,0,76.31.69c-2.4-2.2-6,1.4-3.6,3.6Z"/></g></g></svg>