<svg xmlns="http://www.w3.org/2000/svg" viewBox="0 0 245.66 374.3"><defs><style>.cls-1{fill:#dc143c;}.cls-2,.cls-3{fill:none;stroke-width:30px;}.cls-2{stroke:#dc143c;}.cls-3{stroke:#fff;}</style></defs><g id="Layer_2" data-name="Layer 2"><g id="Layer_1-2" data-name="Layer 1"><g id="Layer_2-2" data-name="Layer 2"><g id="Layer_1-2-2" data-name="Layer 1-2"><path class="cls-1" d="M19.86,328.35l39.51-70.07L75.46,286.8l47.37-84,47.33,84,16.13-28.52,39.51,70.07c-103,69.65-205.94,0-205.94,0"/><path class="cls-2" d="M19.86,328.35l39.51-70.07L75.46,286.8l47.37-84,47.33,84,16.13-28.52,39.51,70.07C122.83,398,19.86,328.35,19.86,328.35Z"/><path class="cls-3" d="M234,61.05a157.24,157.24,0,0,0-222.36,0h0"/><path class="cls-3" d="M191.79,103.29a97.5,97.5,0,0,0-137.88,0"/><path class="cls-3" d="M149.57,145.51a37.82,37.82,0,0,0-53.46,0"/></g></g></g></g></svg>