<svg xmlns="http://www.w3.org/2000/svg" viewBox="0 0 294.25 399.97"><defs><style>.cls-1{fill:#3455db;}.cls-2{fill:#f6c84c;}.cls-3{fill:#111211;}</style></defs><g id="Layer_2" data-name="Layer 2"><g id="Layer_1-2" data-name="Layer 1"><path class="cls-1" d="M26,343.22,72.19,273.6l13.37,28.34L141,218.48l39.31,83.46,18.85-28.34,32.83,69.62c-109.64,69.2-205.94,0-205.94,0"/><path class="cls-1" d="M129.83,387c-64.46,0-109.52-31.83-111.41-33.19A13,13,0,0,1,15.17,336l46.19-69.61a13,13,0,0,1,10.83-5.82c.32,0,.63,0,1,0A13,13,0,0,1,84,268.05l3.53,7.49,42.63-64.25a13,13,0,0,1,10.83-5.81c.32,0,.63,0,.95,0a13,13,0,0,1,10.82,7.43l29.49,62.61,6.09-9.15a13,13,0,0,1,10.82-5.8c.32,0,.64,0,1,0a13,13,0,0,1,10.8,7.42l32.83,69.62a13,13,0,0,1-4.82,16.53C204.45,376,167.76,387,129.83,387Z"/><path class="cls-2" d="M141,218.48l39.31,83.46,18.85-28.34,32.83,69.62C195.41,366.28,160.34,374,129.83,374,68.81,374,26,343.22,26,343.22L72.19,273.6l13.37,28.34L141,218.48m0-26a26,26,0,0,0-21.66,11.62l-32,48.3a26,26,0,0,0-13.16-4.73c-.63,0-1.26-.07-1.89-.07a26,26,0,0,0-21.66,11.63L4.34,328.85a26,26,0,0,0,6.49,35.49c2,1.45,50.4,35.63,119,35.63,40.42,0,79.45-11.69,116-34.76a26,26,0,0,0,9.64-33.08l-32.83-69.62A26,26,0,0,0,201,247.67c-.64,0-1.28-.07-1.91-.07a26,26,0,0,0-13.83,4L164.47,207.4a26,26,0,0,0-21.63-14.85c-.64-.05-1.27-.07-1.9-.07Z"/><path class="cls-3" d="M254,96.68a8.46,8.46,0,0,1-6.29-2.78C225.07,69,193.83,55.31,159.78,55.31A150.45,150.45,0,0,0,58.58,94.47,7.43,7.43,0,0,1,58,95,8.51,8.51,0,0,1,46.58,93.9L27.39,72.83A8.5,8.5,0,0,1,28,60.75,201.16,201.16,0,0,1,92.58,21.28,198.42,198.42,0,0,1,162.64,8.5c46.93,0,89.86,18.78,120.9,52.88a8.51,8.51,0,0,1-.58,12L259.73,94.48A8.52,8.52,0,0,1,254,96.68Z"/><path class="cls-2" d="M162.66,17c43.48,0,84.89,17.47,114.59,50.1h0L254,88.18a126.55,126.55,0,0,0-94.24-41.37A158.88,158.88,0,0,0,52.87,88.18h0L33.68,67.1h0A193.24,193.24,0,0,1,95.57,29.24,190.8,190.8,0,0,1,162.64,17h0m0-17h0a206.88,206.88,0,0,0-73,13.32A209.57,209.57,0,0,0,22.26,54.51a17,17,0,0,0-1.15,24L40.3,99.63a17,17,0,0,0,11.9,5.54h.67a17,17,0,0,0,11.45-4.44,141.91,141.91,0,0,1,95.46-36.93c31.63,0,60.63,12.72,81.67,35.82a17,17,0,0,0,24,1.14L288.67,79.7a17,17,0,0,0,1.15-24,168.37,168.37,0,0,0-57.94-41.45A173.16,173.16,0,0,0,162.66,0Z"/><path class="cls-3" d="M207.78,138.65a8.5,8.5,0,0,1-6.29-2.78A63.61,63.61,0,0,0,178.94,120a70,70,0,0,0-27.19-5.34,78.72,78.72,0,0,0-28.56,5.43,84.83,84.83,0,0,0-26.37,16.38,8.51,8.51,0,0,1-12-.58L65.64,114.79a8.48,8.48,0,0,1,.57-12A135.6,135.6,0,0,1,108.43,76.6a127.09,127.09,0,0,1,46.18-8.76,115.26,115.26,0,0,1,44.82,8.84,106.43,106.43,0,0,1,37.87,26.67,8.51,8.51,0,0,1-.58,12l-23.23,21.08A8.5,8.5,0,0,1,207.78,138.65Z"/><path class="cls-2" d="M154.61,76.34a107.41,107.41,0,0,1,41.54,8.18A98.37,98.37,0,0,1,231,109.07h0l-23.23,21.08a72.11,72.11,0,0,0-25.56-18,78.88,78.88,0,0,0-30.47-6,87.75,87.75,0,0,0-31.63,6,93.65,93.65,0,0,0-29,18L71.92,109.07A127.84,127.84,0,0,1,111.5,84.52a119.41,119.41,0,0,1,43.11-8.18m0-17h0a135.84,135.84,0,0,0-49.26,9.33A144.24,144.24,0,0,0,60.5,96.48a17,17,0,0,0-1.15,24l19.19,21.07a17,17,0,0,0,24,1.15A76.56,76.56,0,0,1,126.27,128a70.39,70.39,0,0,1,25.48-4.85,61.58,61.58,0,0,1,23.9,4.68,55,55,0,0,1,19.56,13.78,17,17,0,0,0,24,1.14l23.24-21.08a17,17,0,0,0,1.14-24,114.81,114.81,0,0,0-40.86-28.79,123.91,123.91,0,0,0-48.11-9.5Z"/><path class="cls-3" d="M161.54,180.6a8.49,8.49,0,0,1-6.29-2.77,11.25,11.25,0,0,0-4.07-2.87,13.19,13.19,0,0,0-5.14-1,15.81,15.81,0,0,0-5.67,1.09A17.19,17.19,0,0,0,135,178.4a8.5,8.5,0,0,1-12-.58l-19.19-21.08a8.52,8.52,0,0,1,.57-12,68.4,68.4,0,0,1,21.22-13.15,64.26,64.26,0,0,1,23.3-4.41,58.55,58.55,0,0,1,22.78,4.5,54.36,54.36,0,0,1,19.37,13.64,8.48,8.48,0,0,1-.57,12l-23.24,21.08A8.44,8.44,0,0,1,161.54,180.6Z"/><path class="cls-2" d="M148.9,135.66a50.34,50.34,0,0,1,19.5,3.84A46.27,46.27,0,0,1,184.77,151h0L161.53,172.1a19.93,19.93,0,0,0-7.06-5,21.76,21.76,0,0,0-8.42-1.66h0a24.2,24.2,0,0,0-8.74,1.66,25.81,25.81,0,0,0-8,5L110.1,151a59.88,59.88,0,0,1,18.58-11.52,55.86,55.86,0,0,1,20.22-3.84m0-17h0a72.71,72.71,0,0,0-26.37,5,76.6,76.6,0,0,0-23.86,14.78,17,17,0,0,0-1.15,24l19.19,21.08a17,17,0,0,0,24,1.16,8.81,8.81,0,0,1,2.76-1.73,7.27,7.27,0,0,1,2.59-.51,4.82,4.82,0,0,1,1.86.34,2.8,2.8,0,0,1,1.07.76,17,17,0,0,0,24,1.13l23.23-21.08a17,17,0,0,0,1.15-24A62.83,62.83,0,0,0,175,123.82a66.93,66.93,0,0,0-26.05-5.16Z"/></g></g></svg>