<svg xmlns="http://www.w3.org/2000/svg" viewBox="0 0 1207.69 229.99"><defs><style>.cls-1{fill:#111211;}.cls-2{fill:#f6c84c;}.cls-3{fill:#3455db;}</style></defs><g id="Layer_2" data-name="Layer 2"><g id="Layer_1-2" data-name="Layer 1"><path class="cls-1" d="M207.26,199.23a8.49,8.49,0,0,1-8.46-9.29c1.7-18.34,3.29-36.58,4.73-54.22.66-7.38,1.28-15.18,1.87-23.23S206.51,96.4,207,88.42c.45-7.83.81-15.54,1.08-22.92s.46-14.17.59-20.32a8.49,8.49,0,0,1,8.5-8.31c3.07,0,6.39-.07,9.85-.19s6.87-.27,9.81-.4c2.76-.12,6.24-.37,10.35-.76.27,0,.53,0,.8,0A8.47,8.47,0,0,1,256,41.41a8.52,8.52,0,0,1,6.61-3.55c3.41-.12,7-.32,10.56-.58,3.32-.26,6.93-.47,10.66-.6,3.32-.12,6.41-.37,9.19-.73a8.23,8.23,0,0,1,1.1-.07A8.5,8.5,0,0,1,302.26,47c-1.81,5.68-3.67,12-5.53,18.82q-2.87,10.47-5.92,21.71c-2,7.38-4,15-5.87,22.71s-3.82,15.39-5.65,22.58c-4.14,16.68-8.38,34.25-12.6,52.19a8.52,8.52,0,0,1-7,6.46l-51.15,7.7A9.17,9.17,0,0,1,207.26,199.23Z"/><path class="cls-2" d="M247.94,44h0m0,0q-2.17,22.92-3.75,37.63t-2.47,23.89q-.89,9.19-1.58,17.68T238.66,139q-.79,7.31-1.38,12.44h3.55L263,46.35q5.34-.18,10.87-.59c3.29-.26,6.74-.46,10.37-.59s6.94-.4,10-.79q-2.78,8.68-5.63,19.16t-5.92,21.72q-3.08,11.26-5.93,22.91t-5.63,22.52q-6.32,25.47-12.64,52.33l-51.15,7.71q2.56-27.66,4.74-54.32,1-11.06,1.88-23.3t1.58-24.19q.69-12,1.08-23.11t.6-20.44q4.73,0,10.17-.2t9.87-.4c3-.12,6.55-.39,10.76-.79m0-17h-.3q-.77,0-1.5.09c-3.87.36-7.13.6-9.71.71-3,.14-6.31.27-9.74.39s-6.6.19-9.56.19a17,17,0,0,0-17,16.63c-.13,6.11-.33,12.91-.59,20.21s-.62,15-1.07,22.73c-.46,8-1,16-1.56,23.94s-1.2,15.74-1.85,23a.62.62,0,0,0,0,.13c-1.44,17.63-3,35.84-4.73,54.13a17,17,0,0,0,16.93,18.57,18,18,0,0,0,2.53-.19l51.15-7.71a17,17,0,0,0,14-12.91c4.21-17.88,8.44-35.41,12.58-52.1,1.84-7.24,3.74-14.84,5.65-22.59S297,97,299,89.73q3.06-11.25,5.92-21.71c1.83-6.71,3.66-12.93,5.43-18.48a17,17,0,0,0-16.2-22.16,18.18,18.18,0,0,0-2.2.14c-2.51.33-5.33.55-8.38.66-3.84.14-7.55.35-11.05.63s-6.89.44-10.19.56a16.54,16.54,0,0,0-4.52.78A16.82,16.82,0,0,0,248.16,27H248Z"/><path class="cls-1" d="M324.06,198.24A36.44,36.44,0,0,1,308.63,195a34.34,34.34,0,0,1-12.29-9.65A43.72,43.72,0,0,1,288.56,170a72.69,72.69,0,0,1-2.63-20.7,115.07,115.07,0,0,1,3-25.18,177.29,177.29,0,0,1,7.89-25.53,143.4,143.4,0,0,1,12.39-24.36,125,125,0,0,1,16.33-20.67,80.54,80.54,0,0,1,19.9-14.89,50.8,50.8,0,0,1,23.68-5.9c7.51,0,14,1.67,19.22,5a34.58,34.58,0,0,1,12,12.53,51.86,51.86,0,0,1,5.58,15.71,88,88,0,0,1,1.53,16.19,138.44,138.44,0,0,1-3.7,32.51,141.48,141.48,0,0,1-9.78,28,116.29,116.29,0,0,1-14.39,23,113.08,113.08,0,0,1-17.2,17.3,77.58,77.58,0,0,1-18.89,11.3A51.7,51.7,0,0,1,324.06,198.24Zm37.86-107a13.94,13.94,0,0,0-7.07,2,27.65,27.65,0,0,0-7.31,6.43,50.53,50.53,0,0,0-6.33,10.16,107.8,107.8,0,0,0-5,12.45,71.28,71.28,0,0,0-2.92,11.92,68.7,68.7,0,0,0-.89,10,6.13,6.13,0,0,0,.35,1.85,5.16,5.16,0,0,0,.82,1.61,4.28,4.28,0,0,0,1.22,1.06h.06a14.52,14.52,0,0,0,10.08-4,42.46,42.46,0,0,0,9.52-12.51A79,79,0,0,0,360.73,115,69.48,69.48,0,0,0,363,98.69a41.55,41.55,0,0,0-.25-4.23,12.89,12.89,0,0,0-.69-3A1,1,0,0,0,361.92,91.2Z"/><path class="cls-2" d="M369.09,41.22q8.88,0,14.71,3.65a26.16,26.16,0,0,1,9.08,9.48,43.27,43.27,0,0,1,4.65,13.14,79.4,79.4,0,0,1,1.38,14.61,130,130,0,0,1-3.46,30.52,132.77,132.77,0,0,1-9.18,26.26,107.73,107.73,0,0,1-13.33,21.33,104.22,104.22,0,0,1-15.9,16,68.35,68.35,0,0,1-16.79,10.07,42.85,42.85,0,0,1-16.19,3.46,27.77,27.77,0,0,1-11.85-2.47,26.06,26.06,0,0,1-9.29-7.31,35.46,35.46,0,0,1-6.22-12.44,64.53,64.53,0,0,1-2.27-18.27A105.46,105.46,0,0,1,297.2,126a166.11,166.11,0,0,1,7.5-24.3,134.08,134.08,0,0,1,11.65-22.91,115.67,115.67,0,0,1,15.21-19.25,71.28,71.28,0,0,1,17.78-13.33,42.23,42.23,0,0,1,19.75-4.94M334.72,157.15a23.15,23.15,0,0,0,15.8-6.12A50.53,50.53,0,0,0,362,136a87.85,87.85,0,0,0,7-19,78.1,78.1,0,0,0,2.47-18.37,47.67,47.67,0,0,0-.3-5.13A20.66,20.66,0,0,0,370,88.42a10.1,10.1,0,0,0-2.76-4,7.32,7.32,0,0,0-5-1.68,22.52,22.52,0,0,0-11.65,3.16,36,36,0,0,0-9.58,8.4,59,59,0,0,0-7.4,11.85,116.87,116.87,0,0,0-5.44,13.43,79.49,79.49,0,0,0-3.25,13.33,76.45,76.45,0,0,0-1,11.26,14.24,14.24,0,0,0,.79,4.54,13.75,13.75,0,0,0,2.17,4.15,13,13,0,0,0,3.46,3.06,8.32,8.32,0,0,0,4.44,1.28M369.09,24.22a59.24,59.24,0,0,0-27.6,6.86,88.43,88.43,0,0,0-22,16.46A132.61,132.61,0,0,0,302,69.62a151.63,151.63,0,0,0-13.13,25.81,186.15,186.15,0,0,0-8.27,26.77,123.36,123.36,0,0,0-3.18,27.05,80.12,80.12,0,0,0,3,23.14,52.31,52.31,0,0,0,9.34,18.33,43,43,0,0,0,15.3,12,44.87,44.87,0,0,0,19,4,60.09,60.09,0,0,0,22.6-4.71,85.7,85.7,0,0,0,21-12.53,121.77,121.77,0,0,0,18.5-18.58,125.33,125.33,0,0,0,15.46-24.69A151.07,151.07,0,0,0,412,116.61a147.44,147.44,0,0,0,3.93-34.51,96.39,96.39,0,0,0-1.68-17.77,60.13,60.13,0,0,0-6.51-18.27,43.12,43.12,0,0,0-14.88-15.58c-6.63-4.16-14.62-6.26-23.75-6.26ZM341.56,136l.09-.61a63.41,63.41,0,0,1,2.58-10.5,98.19,98.19,0,0,1,4.65-11.48,42.51,42.51,0,0,1,5.11-8.28,75,75,0,0,1-1.52,7.86,70.22,70.22,0,0,1-5.63,15.27,34.68,34.68,0,0,1-5.28,7.74Z"/><path class="cls-1" d="M408.9,197.84a8.5,8.5,0,0,1-8.43-9.62c.82-6.14,1.75-12.82,2.78-19.85,1.05-7.23,2.29-14.9,3.69-22.78s2.77-15.59,4.15-23.48,2.84-15.73,4.28-22.91c3.26-17.07,6.79-34.85,10.48-52.78a8.52,8.52,0,0,1,7.22-6.72l34.56-4.54a8.27,8.27,0,0,1,1.11-.07A8.5,8.5,0,0,1,477,45.52C473.41,61,470,76,466.75,90.11c-1.43,6.12-2.88,12.56-4.32,19.18s-2.84,13.16-4.13,19.37-2.48,12.33-3.51,18.13q-.5,2.75-.93,5.33h.4c3.81-.07,7.22-.1,10.13-.1a8.51,8.51,0,0,1,8.49,8.06c.12,2.33.31,4.66.55,6.92s.52,4.34.83,6.14c.35,2.16.63,4,.83,5.53s.31,2.09.32,2.14a8.46,8.46,0,0,1-8.25,10.53c-1.3,0-2.49,0-3.64-.12-.8-.05-1.64-.08-2.49-.08-3.88,0-8.07.13-12.44.38s-8.82.64-13.26,1.14-8.69,1.17-12.87,2a86.68,86.68,0,0,0-10.88,2.78A8.54,8.54,0,0,1,408.9,197.84Z"/><path class="cls-2" d="M468.74,43.59h0m0,0Q463.4,66.5,458.47,88.22q-2.19,9.28-4.35,19.26T450,126.93q-2,9.48-3.55,18.37t-2.57,15.8c3.29-.26,6.81-.43,10.57-.49s7.07-.1,10-.1q.19,3.75.59,7.4c.27,2.44.56,4.65.89,6.62s.59,3.72.79,5.23a29.6,29.6,0,0,0,.5,3.06c-1.06,0-2.08,0-3.07-.09s-2-.1-3.06-.1q-6.12,0-12.93.39t-13.73,1.19c-4.61.52-9.12,1.22-13.53,2.07a97.28,97.28,0,0,0-11.95,3.06q1.19-8.88,2.77-19.75t3.65-22.51q2.07-11.65,4.15-23.5t4.25-22.72Q428.65,75,434.17,48.13l34.57-4.54m0-17h-.52a18,18,0,0,0-2,.17L432,31.28A17,17,0,0,0,417.52,44.7c-3.69,18-7.23,35.76-10.5,52.91-1.45,7.25-2.9,15-4.31,23-1.36,7.79-2.75,15.68-4.13,23.45-1.42,8-2.68,15.71-3.74,23.05-1,7.1-2,13.82-2.8,19.95a17,17,0,0,0,22.23,18.37,78.76,78.76,0,0,1,9.81-2.5c4-.77,8.07-1.4,12.22-1.87s8.59-.86,12.79-1.11,8.22-.36,11.94-.36c.66,0,1.31,0,1.94.06,1.32.09,2.7.13,4.19.13A17,17,0,0,0,483.73,179c0-.17-.1-.61-.21-1.47-.22-1.69-.51-3.59-.88-5.82-.28-1.66-.53-3.56-.75-5.65s-.41-4.3-.52-6.47a17,17,0,0,0-17-16.12H464c.8-4.27,1.67-8.66,2.6-13.11,1.29-6.23,2.68-12.72,4.11-19.3s2.88-13,4.29-19l0-.11c3.15-13.87,6.57-28.7,10.15-44.09a17,17,0,0,0-16-21.31Zm0,34Z"/><path class="cls-1" d="M490,197.25a8.5,8.5,0,0,1-8.28-10.42c1.3-5.6,2.65-11.86,4-18.61s2.72-13.79,4.23-21.65c1.43-7.51,2.82-15.19,4.11-22.83s2.57-15.24,3.75-22.47c2.76-16.82,5.55-34.27,8.28-51.88a8.5,8.5,0,0,1,7.06-7.08L544,37.37a8.75,8.75,0,0,1,1.34-.11,8.5,8.5,0,0,1,8.38,9.94q-4.54,26.46-8.89,51.93c-1.17,7.18-2.39,14.68-3.64,22.44s-2.5,15.49-3.75,23.13c-1.23,7.46-2.38,14.89-3.44,22.08s-2.05,13.74-3,19.55a8.51,8.51,0,0,1-8.4,7.17c-.41,0-1.83,0-6.22.45-3.36.32-6.9.71-10.5,1.16s-7,.88-9.9,1.28c-2.28.3-3.24.46-3.59.52A8.4,8.4,0,0,1,490,197.25Z"/><path class="cls-2" d="M545.3,45.76q-4.54,26.48-8.89,51.94-1.77,10.88-3.65,22.52T529,143.33q-1.87,11.44-3.46,22.21t-3,19.46q-1.77,0-7,.49t-10.76,1.19q-5.54.69-10,1.28a39.91,39.91,0,0,0-4.84.79q2-8.49,4.05-18.86t4.25-21.73q2.16-11.35,4.15-23t3.75-22.52q4.14-25.27,8.29-51.94l30.81-4.94m0-17a16.36,16.36,0,0,0-2.69.22L511.8,33.91a17,17,0,0,0-14.11,14.18c-2.74,17.64-5.52,35.07-8.27,51.8-1.14,7-2.36,14.33-3.74,22.43-1.28,7.59-2.66,15.21-4.08,22.65-1.47,7.65-2.88,14.92-4.22,21.59s-2.66,12.83-3.94,18.34A17,17,0,0,0,490,205.75a16.6,16.6,0,0,0,4.19-.53l2.89-.41c2.71-.36,5.83-.76,9.84-1.27,3.51-.43,7-.81,10.25-1.12,4.17-.39,5.32-.42,5.44-.42a17,17,0,0,0,16.76-14.34c.93-5.83,1.93-12.44,3-19.64s2.19-14.5,3.41-21.94q1.89-11.49,3.76-23.15t3.64-22.42C556,83.9,559,66.45,562.06,48.64A17,17,0,0,0,545.3,28.76Zm0,34h0Z"/><path class="cls-1" d="M567.53,197.65a8.51,8.51,0,0,1-8.32-10.24c3-14.46,5.94-28.85,8.67-42.76,1.18-5.88,2.37-12.08,3.54-18.46s2.33-12.78,3.45-19,2.07-12.15,2.92-17.91c.33-2.3.66-4.55,1-6.74h-.64A35.93,35.93,0,0,1,567.62,81a8.49,8.49,0,0,1-6-8.65c.12-2,.18-4.23.18-6.79,0-2.9.07-5.83.21-8.7s.26-6.19.39-9.6A8.49,8.49,0,0,1,570.89,39q.33,0,.66,0c3.29.25,6.63.44,9.93.57s6.64.19,9.95.19c6.55,0,12.94-.16,19-.48s11.89-.72,17.09-1.17,10.38-1,15.35-1.64a8,8,0,0,1,1.09-.07,8.51,8.51,0,0,1,8.32,10.2L650.1,57.45c-.63,2.87-1.24,5.91-1.83,9s-1.2,6.08-1.76,8.47a8.51,8.51,0,0,1-6,6.26,66.21,66.21,0,0,1-10.09,1.92c-.85.1-1.71.2-2.56.32-.57,2.83-1.16,5.86-1.78,9-1,5.3-2,10.94-3,16.79s-1.95,11.88-2.84,17.74c-.92,6-1.86,11.91-2.79,17.49-2.08,12.87-4.06,26.41-5.88,40.21a8.5,8.5,0,0,1-7.12,7.29l-35.55,5.52A8.27,8.27,0,0,1,567.53,197.65Z"/><path class="cls-2" d="M644,45l-2.18,10.67q-1,4.55-1.87,9.28T638.24,73a57.73,57.73,0,0,1-8.79,1.68c-3,.33-5.9.75-8.79,1.28q-1.38,6.72-3,14.91t-3.06,17q-1.49,8.79-2.87,17.87T609,143.13q-3.16,19.55-5.93,40.49l-35.55,5.53q4.54-21.74,8.69-42.86,1.78-8.89,3.56-18.57t3.45-19q1.68-9.39,3-18.17t2.27-16.1a52.64,52.64,0,0,0-6.88-.44c-.77,0-1.53,0-2.31,0-.38,0-.77,0-1.16,0a27.28,27.28,0,0,1-8-1.21c.13-2.11.2-4.54.2-7.31s.06-5.53.2-8.29q.19-4.55.39-9.68c3.42.27,6.85.46,10.27.59s6.85.2,10.27.2q10.08,0,19.45-.49t17.38-1.19Q636.27,46,644,45m0-17a17.57,17.57,0,0,0-2.17.14c-4.86.63-9.9,1.16-15,1.6S616,30.54,610,30.86s-12.17.47-18.57.47c-3.21,0-6.44-.06-9.61-.18s-6.44-.31-9.61-.56c-.44,0-.88-.05-1.32-.05a17,17,0,0,0-17,16.34c-.13,3.39-.26,6.57-.39,9.57s-.21,6-.21,9.06c0,2.38-.06,4.48-.17,6.27a17,17,0,0,0,12,17.3c1.3.4,2.61.73,3.93,1-.76,5-1.62,10.26-2.57,15.58-1.16,6.47-2.32,12.85-3.44,19-1.16,6.32-2.34,12.47-3.51,18.31v0c-2.72,13.88-5.63,28.23-8.65,42.66a17,17,0,0,0,16.64,20.48,16.62,16.62,0,0,0,2.62-.21l35.55-5.53a17,17,0,0,0,14.24-14.57c1.81-13.72,3.77-27.16,5.84-40,.94-5.62,1.88-11.53,2.8-17.57.88-5.81,1.83-11.73,2.82-17.61s2-11.36,3-16.59c.2-1,.39-2,.58-3a73.58,73.58,0,0,0,7.74-1.67A17,17,0,0,0,654.79,76.9c.59-2.51,1.21-5.49,1.84-8.85.56-3,1.16-6,1.77-8.79a1.89,1.89,0,0,0,.05-.23l2.17-10.66A17,17,0,0,0,644,28Zm0,34Z"/><path class="cls-1" d="M658.76,199.23a8.5,8.5,0,0,1-8.47-9.29c1.7-18.34,3.29-36.58,4.73-54.22.66-7.38,1.29-15.18,1.87-23.23S658,96.4,658.47,88.42c.45-7.83.81-15.54,1.07-22.92s.46-14.17.59-20.32a8.5,8.5,0,0,1,8.5-8.31c3.07,0,6.39-.07,9.86-.19s6.87-.27,9.81-.4c2.76-.12,6.24-.37,10.35-.76.26,0,.53,0,.79,0a8.51,8.51,0,0,1,8.1,5.92,8.52,8.52,0,0,1,6.6-3.55c3.41-.12,7-.32,10.56-.58,3.32-.26,6.93-.47,10.67-.6,3.32-.12,6.41-.37,9.19-.73a8,8,0,0,1,1.09-.07A8.49,8.49,0,0,1,753.75,47c-1.8,5.68-3.66,12-5.53,18.82q-2.87,10.47-5.92,21.71c-2,7.38-4,15-5.87,22.71s-3.82,15.39-5.65,22.58c-4.13,16.68-8.38,34.25-12.6,52.19a8.51,8.51,0,0,1-7,6.46L660,199.13A8.91,8.91,0,0,1,658.76,199.23Z"/><path class="cls-2" d="M699.44,44h0m0,0q-2.18,22.92-3.75,37.63t-2.47,23.89q-.88,9.19-1.58,17.68T690.16,139q-.79,7.31-1.39,12.44h3.56L714.45,46.35q5.32-.18,10.86-.59,4.94-.39,10.37-.59c3.62-.13,6.94-.4,10-.79q-2.76,8.68-5.62,19.16T734.1,85.26q-3.06,11.26-5.92,22.91t-5.63,22.52q-6.33,25.47-12.64,52.33l-51.15,7.71q2.55-27.66,4.73-54.32,1-11.06,1.88-23.3T667,88.92q.69-12,1.09-23.11t.59-20.44q4.74,0,10.17-.2t9.88-.4c3-.12,6.54-.39,10.76-.79m0-17h-.3q-.75,0-1.5.09c-3.86.36-7.13.6-9.71.71-3,.14-6.3.27-9.74.39s-6.6.19-9.56.19a17,17,0,0,0-17,16.63c-.13,6.11-.32,12.91-.58,20.21s-.62,15-1.07,22.73c-.46,8-1,16-1.56,23.94s-1.21,15.74-1.86,23c0,0,0,.09,0,.13-1.44,17.63-3,35.84-4.72,54.13a17,17,0,0,0,16.92,18.57,18.09,18.09,0,0,0,2.54-.19l51.15-7.71a17,17,0,0,0,14-12.91c4.2-17.88,8.43-35.41,12.58-52.1,1.84-7.24,3.74-14.84,5.64-22.59s3.83-15.19,5.82-22.5q3.06-11.25,5.92-21.71c1.84-6.71,3.66-12.93,5.43-18.48a17,17,0,0,0-16.19-22.16,18.05,18.05,0,0,0-2.2.14c-2.52.33-5.34.55-8.39.66-3.83.14-7.54.35-11,.63s-6.89.44-10.2.56a16.46,16.46,0,0,0-4.51.78A16.83,16.83,0,0,0,699.65,27h-.21Z"/><path class="cls-1" d="M777.55,198.24A36.39,36.39,0,0,1,762.13,195a34.46,34.46,0,0,1-12.3-9.65A44,44,0,0,1,742.05,170a73.07,73.07,0,0,1-2.62-20.7,114.93,114.93,0,0,1,3-25.18,176,176,0,0,1,7.89-25.53,142.67,142.67,0,0,1,12.39-24.36A124.52,124.52,0,0,1,779,53.51,80.43,80.43,0,0,1,798.9,38.62a50.83,50.83,0,0,1,23.68-5.9c7.52,0,14,1.67,19.23,5a34.75,34.75,0,0,1,12,12.53,51.85,51.85,0,0,1,5.57,15.71A87.16,87.16,0,0,1,860.9,82.1a139,139,0,0,1-3.69,32.51,142.13,142.13,0,0,1-9.78,28,115.86,115.86,0,0,1-14.4,23,112.54,112.54,0,0,1-17.2,17.29A77.27,77.27,0,0,1,797,194.16,51.75,51.75,0,0,1,777.55,198.24Zm37.87-107a13.91,13.91,0,0,0-7.07,2A27.68,27.68,0,0,0,801,99.6a51,51,0,0,0-6.34,10.16,109.61,109.61,0,0,0-5,12.45,73.54,73.54,0,0,0-2.92,11.92,68.7,68.7,0,0,0-.89,10,5.88,5.88,0,0,0,.36,1.85,5.38,5.38,0,0,0,.81,1.61,4.42,4.42,0,0,0,1.22,1.06h0a14.6,14.6,0,0,0,10.12-4,42.29,42.29,0,0,0,9.52-12.51A79.53,79.53,0,0,0,814.23,115a70,70,0,0,0,2.22-16.34,38.86,38.86,0,0,0-.25-4.23,12.42,12.42,0,0,0-.69-3A2.2,2.2,0,0,0,815.42,91.2Z"/><path class="cls-2" d="M822.58,41.22q8.88,0,14.71,3.65a26.11,26.11,0,0,1,9.09,9.48A43.26,43.26,0,0,1,851,67.49,78.55,78.55,0,0,1,852.4,82.1,130,130,0,0,1,849,112.62a132.78,132.78,0,0,1-9.19,26.26,107.27,107.27,0,0,1-13.33,21.33,104.22,104.22,0,0,1-15.9,16,68.3,68.3,0,0,1-16.78,10.07,42.89,42.89,0,0,1-16.2,3.46,27.84,27.84,0,0,1-11.85-2.47,26,26,0,0,1-9.28-7.31,35.29,35.29,0,0,1-6.22-12.44,64.17,64.17,0,0,1-2.27-18.27,106,106,0,0,1,2.76-23.3,166.16,166.16,0,0,1,7.51-24.3,134.08,134.08,0,0,1,11.65-22.91,115.67,115.67,0,0,1,15.21-19.25,71.23,71.23,0,0,1,17.77-13.33,42.23,42.23,0,0,1,19.75-4.94M788.22,157.15A23.17,23.17,0,0,0,804,151a50.67,50.67,0,0,0,11.45-15,87.33,87.33,0,0,0,7-19A77.58,77.58,0,0,0,825,98.69a47.67,47.67,0,0,0-.3-5.13,20.66,20.66,0,0,0-1.18-5.14,10.13,10.13,0,0,0-2.77-4,7.31,7.31,0,0,0-5-1.68A22.47,22.47,0,0,0,804,85.85a35.9,35.9,0,0,0-9.58,8.4A59,59,0,0,0,787,106.1a115,115,0,0,0-5.43,13.43,79.55,79.55,0,0,0-3.26,13.33,76.45,76.45,0,0,0-1,11.26,14.52,14.52,0,0,0,.79,4.54,13.77,13.77,0,0,0,2.18,4.15,13.11,13.11,0,0,0,3.45,3.06,8.36,8.36,0,0,0,4.45,1.28M822.58,24.22A59.27,59.27,0,0,0,795,31.08a88.61,88.61,0,0,0-22,16.46,133.09,133.09,0,0,0-17.45,22.08,150.19,150.19,0,0,0-13.13,25.81,183.67,183.67,0,0,0-8.27,26.77,123.36,123.36,0,0,0-3.18,27.05,80.14,80.14,0,0,0,3,23.14,52.48,52.48,0,0,0,9.34,18.33,43.08,43.08,0,0,0,15.31,12,44.83,44.83,0,0,0,19,4,60.09,60.09,0,0,0,22.6-4.71,85.94,85.94,0,0,0,21-12.53,122.23,122.23,0,0,0,18.5-18.58,125.3,125.3,0,0,0,15.45-24.69,149.65,149.65,0,0,0,10.38-29.63,147.29,147.29,0,0,0,3.93-34.5,95.53,95.53,0,0,0-1.68-17.77,60.38,60.38,0,0,0-6.5-18.27,43.07,43.07,0,0,0-14.89-15.58c-6.62-4.16-14.61-6.26-23.75-6.26ZM795.06,136l.09-.61a62.43,62.43,0,0,1,2.58-10.5,99.89,99.89,0,0,1,4.64-11.48,42.06,42.06,0,0,1,5.12-8.28A75,75,0,0,1,806,113a70.24,70.24,0,0,1-5.64,15.27,35,35,0,0,1-5.27,7.74Z"/><path class="cls-1" d="M851.09,196.26A8.5,8.5,0,0,1,843,185.09c5.71-17.23,11.28-34.53,16.55-51.41,2.29-7.28,4.61-14.76,6.9-22.26q3.56-11.67,7.12-23.15c2.3-7.41,4.51-14.79,6.56-22s3.84-13.63,5.38-19.54a8.5,8.5,0,0,1,8.22-6.36,162.37,162.37,0,0,0,19.51-1.12c6.43-.79,13.57-1.53,21.22-2.2.25,0,.5,0,.75,0a8.51,8.51,0,0,1,8.42,9.65c-.37,2.73-.77,5.77-1.2,9.14.62-1.49,1.22-3,1.82-4.38,1.55-3.71,3-7.06,4.42-10a8.48,8.48,0,0,1,7-4.81c3.11-.25,6.07-.57,8.82-.94,2.92-.4,5.77-.82,8.49-1.26l8.82-1.38c2.91-.45,6.11-1,9.54-1.64a8.05,8.05,0,0,1,1.55-.14,8.49,8.49,0,0,1,8.37,9.94c-1.29,7.5-2.54,15.34-3.72,23.3s-2.22,15.93-3.12,23.73c-.92,8-1.82,15.88-2.66,23.56s-1.6,15-2.26,22c-1.57,16.23-3,32.25-4.13,47.65a8.51,8.51,0,0,1-7,7.72L944,195.34a8.41,8.41,0,0,1-1.49.13A8.49,8.49,0,0,1,934,187c0-.63,0-1.82.31-5.91,0-.59.09-1.21.13-1.86-1.15,3.33-2.21,6.57-3.18,9.69a8.5,8.5,0,0,1-7.87,6c-4.55.13-8.45.29-11.59.48l-11.45.69-.52,0a8.51,8.51,0,0,1-8.38-7.12,8.49,8.49,0,0,1-7.24,5.12l-32.59,2.17A5.43,5.43,0,0,1,851.09,196.26Z"/><path class="cls-2" d="M992.9,39.84h0m0,0q-2,11.44-3.76,23.5t-3.16,24q-1.38,11.94-2.66,23.6t-2.27,22.12q-2.37,24.48-4.15,47.79L942.54,187c0-.65.09-2.43.29-5.33s.46-6.45.79-10.66.79-8.89,1.38-14,1.19-10.27,1.78-15.4,1.22-10.1,1.88-14.91,1.31-8.92,2-12.35h-1.77q-2.77,8.29-6.13,17.48t-6.81,18.67q-3.46,9.48-6.81,18.56t-5.93,17.38q-6.91.19-11.85.49l-11.45.7,6.32-73.28h-3q-.39,2.58-2,8.59c-1.06,4-2.27,8.63-3.66,13.83s-2.86,10.6-4.44,16.19-3.06,10.8-4.44,15.61-2.54,8.75-3.46,11.85-1.45,4.84-1.58,5.23l-32.59,2.17q8.7-26.26,16.59-51.54,3.36-10.66,6.92-22.32t7.11-23.11q3.56-11.45,6.61-22.12t5.43-19.75a169.21,169.21,0,0,0,20.54-1.18q9.68-1.18,20.94-2.18-.6,4.35-1.29,9.78T932.36,66.7q-.89,5.92-1.87,12.24t-2.37,16.2q-1.38,9.87-3.75,24.68h2.56q5.73-15,9.48-25t6.13-16.29q2.37-6.33,4.83-12.35t4.74-11.45q2.28-5.43,4.25-9.58,4.93-.39,9.28-1c2.9-.39,5.79-.82,8.69-1.28l8.79-1.38q4.44-.69,9.78-1.68m-57.67,5.72h0M992.9,22.84h-.63a17.14,17.14,0,0,0-2.8.33c-3.22.6-6.23,1.11-9,1.54l-8.85,1.39c-2.67.43-5.46.84-8.32,1.23-2.58.35-5.39.65-8.33.88a17,17,0,0,0-9.46,3.83,16.92,16.92,0,0,0-10-3.48h-.64c-.45,0-.89,0-1.33.08-7.65.67-14.82,1.42-21.3,2.21a151.58,151.58,0,0,1-18.48,1.06A17,17,0,0,0,877.3,44.63C875.78,50.47,874,57,872,64s-4.23,14.42-6.51,21.76c-2.39,7.72-4.79,15.52-7.13,23.19-2.28,7.46-4.59,14.92-6.87,22.17C846.2,148,840.65,165.22,835,182.42a17,17,0,0,0,16.13,22.34c.38,0,.76,0,1.13,0l32.59-2.17a16.87,16.87,0,0,0,5.16-1.17,17,17,0,0,0,9.9,3.19c.34,0,.69,0,1,0l5.45-.33,6-.36c3.06-.18,6.87-.34,11.32-.47a17,17,0,0,0,8.76-2.73A17,17,0,0,0,942.54,204a16.67,16.67,0,0,0,3-.26l34.36-6.12a17,17,0,0,0,14-15.45c1.17-15.33,2.56-31.3,4.12-47.45.65-7,1.41-14.32,2.25-21.89s1.73-15.58,2.65-23.51c.89-7.71,1.93-15.61,3.09-23.47s2.36-15.36,3.62-22.67a17.2,17.2,0,0,0,.32-3.31,17,17,0,0,0-16.55-17Zm0,34Z"/><path class="cls-1" d="M1053.27,197.05a8.48,8.48,0,0,1-8.44-9.52q.78-6.5,1.58-12.79c.37-3.54.73-7.19,1.06-10.84,0-.08,0-.15,0-.22h-1.39l-6.17,22.21a8.51,8.51,0,0,1-7,6.15c-3.05.41-6.56.85-10.44,1.3s-7.64.89-11.06,1.29c-4.13.51-8.26,1-12.34,1.56a7.83,7.83,0,0,1-1.08.07,8.5,8.5,0,0,1-8.14-10.94q7.9-26.28,15.61-51.76,3.13-10.61,6.6-22.28T1019,88.06q3.45-11.53,6.61-22.2c2.09-7.08,3.93-13.58,5.46-19.33a8.51,8.51,0,0,1,7.6-6.28c8.84-.65,18-1.44,27.13-2.35,9-.89,17.91-2.13,26.5-3.66a8.5,8.5,0,0,1,10,9.15c-.4,4.24-.82,9.46-1.27,15.54s-.88,12.88-1.27,20.27-.79,15-1.19,23.07-.78,15.9-1.18,23.65c-.69,19-1.42,38.49-2.17,57.83a8.5,8.5,0,0,1-7.09,8.05c-4,.67-8.09,1.22-12.15,1.63q-4.82.78-10.57,1.73l-10.67,1.78A8.14,8.14,0,0,1,1053.27,197.05Z"/><path class="cls-2" d="M1093.76,42.6q-.6,6.33-1.29,15.7t-1.28,20.44q-.6,11.07-1.19,23.11t-1.18,23.7q-1,27.26-2.17,57.87-5.93,1-11.85,1.58-5,.8-10.87,1.78l-10.66,1.77q.78-6.51,1.58-12.83.59-5.53,1.09-11.06c.32-3.69.62-6.85.88-9.48h-17.18l-7.9,28.44q-4.35.58-10.27,1.28l-11.06,1.28L998,187.76q7.89-26.26,15.6-51.74,3.16-10.67,6.62-22.32t6.91-23.2q3.45-11.56,6.62-22.22t5.53-19.56q13.43-1,27.35-2.37t27.16-3.75m-29.63,26.07-3,.2-4.54,17-12.25,49.58c.53,0,1.48,0,2.87-.1l4.34-.2c1.51-.06,2.93-.13,4.25-.2a16.29,16.29,0,0,0,2.76-.29q0-1.19.3-4t.59-6.52q.3-3.64.69-8c.26-2.89.53-5.73.79-8.49q.79-10.08,2-21.73l1.18-17.18m29.63-43.07a16.9,16.9,0,0,0-3,.27c-8.37,1.5-17.07,2.7-25.84,3.57-9.09.9-18.15,1.69-26.92,2.33a17,17,0,0,0-15.18,12.57c-1.51,5.68-3.33,12.11-5.4,19.11s-4.31,14.49-6.61,22.18-4.61,15.46-6.92,23.24-4.5,15.18-6.61,22.28c-5.48,18.15-10.58,35.06-15.59,51.72A17,17,0,0,0,998,204.76a15.67,15.67,0,0,0,2.16-.14l12.31-1.56,11-1.28c3.92-.45,7.48-.9,10.59-1.32a17,17,0,0,0,5.58-1.78,16.15,16.15,0,0,0,1.9,2.16,17,17,0,0,0,11.75,4.71,16.41,16.41,0,0,0,2.79-.23l10.68-1.78c3.62-.6,7.07-1.17,10.26-1.68,4.17-.43,8.35-1,12.45-1.67a17,17,0,0,0,14.18-16.11c.75-19.33,1.48-38.77,2.17-57.79q.6-11.6,1.18-23.6c.39-7.82.78-15.57,1.18-23s.82-14.09,1.27-20.09.86-11.19,1.25-15.37a17,17,0,0,0-16.92-18.59Zm0,34Z"/><path class="cls-1" d="M1114.26,197.65a8.5,8.5,0,0,1-8.32-10.24c3-14.46,5.94-28.85,8.67-42.76,1.19-5.94,2.37-12.14,3.53-18.46s2.34-12.78,3.45-19,2.08-12.15,2.92-17.91q.51-3.44,1-6.74h-.63a35.93,35.93,0,0,1-10.5-1.58,8.5,8.5,0,0,1-6-8.65c.12-2,.18-4.24.18-6.79,0-2.91.07-5.84.21-8.7s.26-6.19.39-9.6a8.49,8.49,0,0,1,8.5-8.17l.65,0c3.29.25,6.63.44,9.94.57s6.64.19,10,.19c6.54,0,12.94-.16,19-.48s11.89-.72,17.09-1.17,10.38-1,15.36-1.64a7.83,7.83,0,0,1,1.08-.07,8.51,8.51,0,0,1,8.33,10.2l-2.2,10.78c-.62,2.86-1.24,5.9-1.82,9s-1.2,6.08-1.76,8.47a8.52,8.52,0,0,1-6,6.26,66.45,66.45,0,0,1-10.09,1.92c-.86.1-1.71.2-2.57.32-.57,2.84-1.16,5.87-1.77,9-1,5.28-2,10.93-3,16.79s-2,11.9-2.84,17.73c-.91,6-1.85,11.88-2.78,17.5-2.08,12.84-4.06,26.38-5.89,40.21a8.5,8.5,0,0,1-7.12,7.29l-35.55,5.52A8.15,8.15,0,0,1,1114.26,197.65Z"/><path class="cls-2" d="M1190.69,45l-2.17,10.67q-1,4.55-1.88,9.28T1185,73a57.5,57.5,0,0,1-8.79,1.68c-3,.33-5.89.75-8.78,1.28q-1.4,6.72-3,14.91t-3.06,17q-1.48,8.79-2.86,17.87t-2.77,17.38q-3.15,19.55-5.92,40.49l-35.55,5.53q4.54-21.74,8.69-42.86,1.77-8.89,3.55-18.57t3.46-19q1.68-9.39,3-18.17t2.27-16.1a52.37,52.37,0,0,0-6.87-.44c-.77,0-1.54,0-2.31,0l-1.16,0a27.23,27.23,0,0,1-8-1.21c.13-2.11.19-4.54.19-7.31s.07-5.53.2-8.29q.19-4.55.4-9.68c3.42.27,6.84.46,10.27.59s6.84.2,10.27.2q10.06,0,19.45-.49T1175,46.65q8-.69,15.7-1.68m0-17a17.69,17.69,0,0,0-2.17.14c-4.85.63-9.9,1.16-15,1.6s-10.77.83-16.81,1.15-12.16.47-18.56.47c-3.22,0-6.45-.06-9.62-.18s-6.43-.31-9.61-.56c-.44,0-.88-.05-1.31-.05a17,17,0,0,0-17,16.35q-.2,5.07-.39,9.55c-.14,3-.22,6-.22,9.07,0,2.37,0,4.48-.16,6.26a17,17,0,0,0,12,17.31c1.3.4,2.61.73,3.93,1-.76,5-1.63,10.27-2.58,15.58-1.19,6.65-2.31,12.86-3.44,19-1.15,6.29-2.33,12.45-3.5,18.31v0c-2.73,13.89-5.64,28.24-8.65,42.66a17,17,0,0,0,16.64,20.48,16.4,16.4,0,0,0,2.61-.21l35.55-5.53a17,17,0,0,0,14.24-14.57c1.82-13.73,3.78-27.18,5.85-40,.94-5.64,1.88-11.56,2.79-17.57.88-5.8,1.83-11.72,2.83-17.61s2-11.36,3-16.59c.2-1,.4-2,.59-3a76.59,76.59,0,0,0,7.73-1.67,17,17,0,0,0,12.08-12.52c.59-2.51,1.21-5.49,1.84-8.85.57-3,1.17-6,1.78-8.79a1.89,1.89,0,0,1,0-.23l2.17-10.67A17,17,0,0,0,1190.69,28Zm0,34Z"/><path class="cls-3" d="M14,198.24l26.66-40.17,7.71,16.35,32-48.16L103,174.42l10.87-16.35,19,40.17c-63.27,39.94-118.84,0-118.84,0"/><path class="cls-3" d="M73.92,223c-37,0-62.92-18.28-64-19.06a7,7,0,0,1-1.75-9.56L34.82,154.2a7,7,0,0,1,5.83-3.13l.51,0a7,7,0,0,1,5.83,4l2.41,5.13,25.1-37.82a7,7,0,0,1,5.83-3.13l.51,0a7,7,0,0,1,5.82,4l17.4,36.93,4-6a7,7,0,0,1,5.82-3.12l.52,0a7,7,0,0,1,5.82,4l18.94,40.18a7,7,0,0,1-2.6,8.9C116.78,216.65,95.7,223,73.92,223Z"/><path class="cls-2" d="M80.33,126.26,103,174.42l10.87-16.35,19,40.17C111.76,211.55,91.52,216,73.92,216,38.7,216,14,198.24,14,198.24l26.66-40.17,7.71,16.35,32-48.16m0-14a14,14,0,0,0-11.67,6.26L49.58,147.28a14,14,0,0,0-7.91-3.17c-.34,0-.68,0-1,0A14,14,0,0,0,29,150.33L2.34,190.5a14,14,0,0,0,3.49,19.11C7,210.45,34.65,230,73.92,230c23.13,0,45.47-6.7,66.39-19.91a14,14,0,0,0,5.19-17.81L126.56,152.1a14,14,0,0,0-11.64-8c-.35,0-.69,0-1,0a14,14,0,0,0-8.38,2.79L93,120.3a14,14,0,0,0-11.64-8c-.34,0-.69,0-1,0Z"/><path class="cls-1" d="M145.58,56.07a5,5,0,0,1-3.7-1.63A67.71,67.71,0,0,0,91.2,32.2,86.68,86.68,0,0,0,32.87,54.77a5,5,0,0,1-3.36,1.3h-.12a5,5,0,0,1-3.58-1.63L14.73,42.28a5,5,0,0,1,.17-6.9,1.37,1.37,0,0,1,.17-.17A116,116,0,0,1,52.39,12.38,114.47,114.47,0,0,1,92.85,5c27.1,0,51.9,10.85,69.83,30.55a5,5,0,0,1-.34,7.07L148.93,54.78A5,5,0,0,1,145.58,56.07Z"/><path class="cls-2" d="M92.86,10A88.77,88.77,0,0,1,159,38.91h0L145.57,51.07A73,73,0,0,0,91.2,27.2,91.66,91.66,0,0,0,29.51,51.07h0L18.43,38.91h0A111.6,111.6,0,0,1,54.14,17.06,110.06,110.06,0,0,1,92.85,10h0m0-10h0A119.54,119.54,0,0,0,50.63,7.7,121.42,121.42,0,0,0,11.71,31.5l-.11.11a10,10,0,0,0-.56,14L22.11,57.81a10,10,0,0,0,6.94,3.25h.45a10,10,0,0,0,6.75-2.62,81.75,81.75,0,0,1,55-21.25,62.76,62.76,0,0,1,47,20.61,10,10,0,0,0,14.11.67L165.7,46.32a10,10,0,0,0,.68-14.14,97.51,97.51,0,0,0-33.5-24A100.15,100.15,0,0,0,92.86,0Z"/><path class="cls-1" d="M51.57,80.29a5,5,0,0,1-3.7-1.63L36.8,66.5a5,5,0,0,1,.34-7.07A78.32,78.32,0,0,1,61.53,44.3a73.53,73.53,0,0,1,26.68-5.06,66.62,66.62,0,0,1,25.9,5.11A61.59,61.59,0,0,1,136,59.76a5,5,0,0,1-.34,7.07L122.25,79a5,5,0,0,1-7-.33,36.65,36.65,0,0,0-13-9.15,40.22,40.22,0,0,0-15.65-3.07,45.33,45.33,0,0,0-16.44,3.12A48.76,48.76,0,0,0,54.93,79,5,5,0,0,1,51.57,80.29Z"/><path class="cls-2" d="M88.21,44.24a62,62,0,0,1,24,4.72A56.81,56.81,0,0,1,132.3,63.13h0L118.89,75.29A41.65,41.65,0,0,0,104.15,64.9a45.6,45.6,0,0,0-17.59-3.46A50.7,50.7,0,0,0,68.31,64.9,54.15,54.15,0,0,0,51.57,75.29L40.5,63.13A73.62,73.62,0,0,1,63.34,49a68.86,68.86,0,0,1,24.87-4.72M132.3,63.13h0M88.21,34.24h0a78.58,78.58,0,0,0-28.49,5.4A83.38,83.38,0,0,0,33.78,55.72a10,10,0,0,0-.68,14.14L44.18,82a10,10,0,0,0,14.11.68,44.09,44.09,0,0,1,13.64-8.48,40.49,40.49,0,0,1,14.63-2.78,35.33,35.33,0,0,1,13.72,2.68A31.63,31.63,0,0,1,111.5,82a10,10,0,0,0,14.11.67l13.31-12.08a10,10,0,0,0,.61-14.41,66.51,66.51,0,0,0-23.48-16.47,71.64,71.64,0,0,0-27.84-5.5Z"/><path class="cls-1" d="M73.6,104.5a5,5,0,0,1-3.7-1.64L58.83,90.7a5,5,0,0,1,.34-7.07A39.36,39.36,0,0,1,71.44,76a37.07,37.07,0,0,1,13.48-2.56A33.87,33.87,0,0,1,98.1,76.08,31.33,31.33,0,0,1,109.31,84,5,5,0,0,1,109,91L95.57,103.2a5,5,0,0,1-7-.33,6.52,6.52,0,0,0-2.32-1.63,7.47,7.47,0,0,0-2.93-.57,8.92,8.92,0,0,0-3.24.62A10.15,10.15,0,0,0,77,103.2,4.94,4.94,0,0,1,73.6,104.5Z"/><path class="cls-2" d="M84.92,78.47a29.09,29.09,0,0,1,11.25,2.22,26.73,26.73,0,0,1,9.44,6.64h0L92.21,99.5a11.41,11.41,0,0,0-4.08-2.87,12.47,12.47,0,0,0-4.86-1h0a13.92,13.92,0,0,0-5,1A14.69,14.69,0,0,0,73.6,99.5L62.53,87.33a34.74,34.74,0,0,1,10.72-6.64,32.33,32.33,0,0,1,11.67-2.22m0-10h0a42.16,42.16,0,0,0-15.29,2.89,44.37,44.37,0,0,0-13.82,8.57,10,10,0,0,0-.68,14.14L66.2,106.23a10,10,0,0,0,14.11.68,4.83,4.83,0,0,1,1.54-1,4,4,0,0,1,1.42-.28,2.59,2.59,0,0,1,1,.18,1.42,1.42,0,0,1,.55.39,10,10,0,0,0,14.11.66l13.4-12.16A10,10,0,0,0,113,80.6a36.55,36.55,0,0,0-13-9.14,39,39,0,0,0-15.11-3Z"/></g></g></svg>