<svg xmlns="http://www.w3.org/2000/svg" viewBox="0 0 141.04 135.99"><defs><style>.cls-1{fill:#dbad3b;}.cls-2{fill:#f6c84c;}</style></defs><g id="Layer_2" data-name="Layer 2"><g id="Layer_1-2" data-name="Layer 1"><path class="cls-1" d="M.73,47.72c-.3,3.7-1.6,8.3.2,11.8,1.8,3.3,5.4,6.2,8.1,8.7,6.9,6.5,14.3,12.7,21.7,18.5,5,4,12.1-3.1,7.1-7.1-6-4.8-11.8-9.8-17.6-14.8-2.7-2.4-5.5-4.9-8-7.5-1.1-1.2-1.8-1.8-2.1-3.4-.3-1.9.4-4.3.6-6.2.6-6.5-9.4-6.4-10,0Z"/><path class="cls-1" d="M131,53.52c.1,4.4-1.6,5.8-5.1,8.4-2.9,2.1-6,4-9,5.9a158.41,158.41,0,0,0-17.7,13.8c-4.9,4.2,2.2,11.3,7.1,7.1,7.2-6.3,14.8-11.4,22.6-16.8,7.1-4.9,12.3-9.3,12.1-18.4-.2-6.4-10.2-6.5-10,0Z"/><path class="cls-1" d="M102.33,124.32a32.72,32.72,0,0,1-.4,5.4c2.1-1.2,4.1-2.3,6.2-3.5-15.4-4.3-29.4-14.3-42.5-23.3-5.3-3.7-10.3,5-5,8.6,13.9,9.6,28.5,19.8,44.9,24.3,2.4.7,5.7-.8,6.2-3.5a54.21,54.21,0,0,0,.8-8c-.1-6.4-10.1-6.4-10.2,0Z"/><path class="cls-1" d="M23.73,124.52a25.71,25.71,0,0,0,1.4,6.1c1,2.5,3.3,4.3,6.2,3.5,7-2,13.4-6.1,19.7-9.7q10-5.7,19.8-12c5.4-3.5.4-12.1-5-8.6-6,3.9-12,7.6-18.2,11.1-6,3.4-12.3,7.7-18.9,9.6,2.1,1.2,4.1,2.3,6.2,3.5a10.24,10.24,0,0,1-1-3.4c-1-6.4-11-6.5-10.2-.1Z"/><path class="cls-2" d="M69.13,5.52c0-.5-10.7,22.1-16,33.2a5,5,0,0,1-1.6,2.2,6,6,0,0,1-2.7.7c-13.3,1.3-29.6,2.6-42.9,3.8,8.6,9.8,20.3,19.6,28.9,29.4a7,7,0,0,1,1.5,2.3,5.3,5.3,0,0,1,.1,2.5c-1,14.1-8.1,43.9-8.1,43.9s22.5-13.5,34-18.4c1.1-.5,4.1-2.8,5.2-2.8a9.4,9.4,0,0,1,4.6,1.3c11.3,7.3,22.5,15.8,34.9,21,1-13.3-2.5-26.4-4.8-39.5-.2-1-.4-3.7,0-4.6.3-.6.6-3.3,1.1-3.7,8.9-8.4,23.5-16.2,32.4-24.6-15.2-2.4-24.9-3.1-36.4-4.3-1.2-.1-4.5-1.9-5.5-2.7,0,0-2.5-3.2-3-4-8.3-13.3-13.5-23.1-21.8-36.4"/><path class="cls-2" d="M67.83.72c-3.4.7-5,6.3-6.3,9l-9,18.9c-.9,2-2.1,6.5-3.6,7.9-.8.8-4.3.7-5.8.8-2.6.2-5.2.5-7.7.7-9.8.9-19.6,1.7-29.4,2.6-4.3.4-6.6,5.1-3.5,8.5,6.8,7.6,14.4,14.5,21.7,21.7,2.8,2.8,7.6,6.1,7.4,10.4a83,83,0,0,1-1.4,10c-1.7,10.4-3.9,20.8-6.4,31.1-1,4.1,3.5,8,7.3,5.6,9.2-5.5,18.6-10.9,28.2-15.7,2.5-1.2,5-2.3,7.4-3.7s3-.7,5.4.9c2,1.3,3.9,2.6,5.9,3.9,8.6,5.8,17.2,11.5,26.8,15.7,3.5,1.5,7.3-.2,7.5-4.3.5-8.7-.6-17.3-2.1-25.9-.7-3.8-1.5-7.5-2.2-11.3-.4-2.2-1.3-4.9-.4-7.1s3.9-4,6-5.5c2.8-2.1,5.7-4.1,8.6-6.1,5.9-4.1,11.9-8.2,17.2-13.1,2.6-2.4,1.5-7.8-2.2-8.4-7.9-1.2-15.8-2.3-23.8-3.1-4.7-.5-13.1,0-16.1-2.8-1.7-1.5-2.9-4.2-4.1-6-2.2-3.5-4.3-7-6.3-10.6-4.4-7.5-8.8-15.1-13.5-22.5-3.4-5.4-12.1-.4-8.6,5,4.9,7.9,9.6,16,14.3,24,3.3,5.6,6.4,12.8,11.3,17.4s12.4,4.5,18.8,5.1c8.5.8,16.9,1.8,25.3,3.1-.7-2.8-1.5-5.6-2.2-8.4-5.9,5.4-12.7,9.7-19.2,14.3-4.9,3.4-13.1,7.8-15,13.8-1.9,6.4,0,12.7,1.3,19,1.9,9.6,3.4,19.1,2.9,28.8,2.5-1.4,5-2.9,7.5-4.3-10.4-4.5-19.6-10.9-29-17.2-4.1-2.7-8.5-6.4-13.7-5.8-3.2.4-6,2.9-8.9,4.2-11.1,5.1-21.7,11.3-32.2,17.6,2.4,1.9,4.9,3.8,7.3,5.6,2.8-11.9,5.4-23.9,7.1-36,.5-3.4,1.3-7.1,1.1-10.5-.2-4.9-4.2-8.3-7.3-11.6-8.1-8.5-17-16.2-24.8-24.9-1.2,2.8-2.4,5.7-3.5,8.5,10.1-1,20.2-1.8,30.3-2.7,4.6-.4,9.4-.5,13.9-1.3s6.3-3.3,8.1-7.1c3.1-6.4,6.1-12.7,9.1-19.1,1.9-4,3.5-8.5,6-12.2-1,.8-2,1.5-3,2.3h0c6.5-.8,3.8-10.4-2.5-9.2Z"/></g></g></svg>