<svg xmlns="http://www.w3.org/2000/svg" viewBox="0 0 453.48 160.02"><defs><style>.cls-1{fill:#9d3140;}.cls-2{fill:#fff;}</style></defs><g id="Layer_2" data-name="Layer 2"><g id="Layer_2-2" data-name="Layer 2"><path class="cls-1" d="M.19,26.82a132.39,132.39,0,0,0,4.06,24A163.2,163.2,0,0,0,19.52,88.26a205,205,0,0,0,17.89,26.4c6.2,8,10.87,16,18.69,23a89.3,89.3,0,0,0,35.62,19.78c24.06,6.55,51.93.65,69-17.49,20.94-22.22,22.1-55.77,26.9-85.93,1.75-11.06,7.16-28.36,22-24.32,5,1.35,9.2,4.71,13.48,7.64s9.18,5.59,14.36,5.24c11-.75,19.15-14.51,29.83-11.93,7.26,1.76,10.47,10,13.09,17,3.11,8.3,7.1,16.53,13.56,22.6s15.83,9.64,24.38,7.3c11.61-3.18,17.87-15.42,22.83-26.4S352.64,28,364.32,25.09c8.05-2,16.49,1.11,23.76,5.1s14.16,9,22.17,11.15a35,35,0,0,0,33.48-9A35,35,0,0,0,452.53,0H7.09C.36,6.55-.49,17.31.19,26.82Z"/><path class="cls-2" d="M122.35,72.45c-9.47-.5-18.63-4.61-28.21-2.91a18.94,18.94,0,0,0-9.91,4.93C81.64,77,79.1,81.42,81,85c1.54,3,5.43,3.49,8.37,2.66,3.85-1.09,6.55-4.75,10.6-5.27s8.17,1.93,11.18,4.48a47.3,47.3,0,0,1,8.38,9.32c.69,1,1.33,2,1.94,3.06.46.78,1.49,2.07,1.54,3,.08,1.82-2.63,2.11-3.81,1.6-2-.86-3.32-3-4.59-4.65a13,13,0,0,0-4.79-4.34c-1.75-.78-3.28,1.8-1.52,2.6,3.67,1.65,5,6,8.25,8.3,2.87,2.06,7.27,1.82,9-1.62.93-1.86.16-3.43-.75-5.1a51.35,51.35,0,0,0-3.54-5.57,48.18,48.18,0,0,0-8.63-9.24c-3.17-2.54-6.93-4.69-11.08-4.88a11.84,11.84,0,0,0-5.81,1.3c-1.91,1-3.55,2.34-5.42,3.37-2.5,1.39-7.77,1.74-6.84-2.62.81-3.74,4.33-6.56,7.71-7.93,4.7-1.89,10-1.55,14.86-.73,5.45.93,10.79,2.4,16.33,2.69,1.93.1,1.93-2.9,0-3Z"/><path class="cls-2" d="M102,106.11c2,1.83,3.22,4.25,5.17,6.09a8,8,0,0,0,7.19,2.39,5.77,5.77,0,0,0,4.32-5.44c.22-2.61-1.11-5-2.74-6.89-1.93-2.26-4.46-4-5.71-6.79A1.5,1.5,0,1,0,107.59,97c1.24,2.75,3.63,4.62,5.63,6.78,1.54,1.67,3.14,4.06,2.15,6.42s-3.93,1.67-5.53.42c-2.33-1.81-3.64-4.61-5.76-6.62-1.41-1.32-3.53.8-2.13,2.13Z"/><path class="cls-2" d="M125.34,100.35l43.55-18c1.76-.73,1-3.63-.8-2.89l-43.55,18c-1.76.73-1,3.63.8,2.89Z"/><path class="cls-2" d="M124,75.3q15.15-9.06,29.4-19.53c1.53-1.13,0-3.74-1.52-2.59q-14.22,10.45-29.4,19.53A1.5,1.5,0,0,0,124,75.3Z"/><path class="cls-2" d="M79.31,89.68c-3.3,1.54-6.71,3.19-9,6.13-2.13,2.74-3.3,6.7-1.51,9.91A4.8,4.8,0,0,0,73,108.33c1.86,0,3.6-1.27,5-2.3,2.92-2.09,6-4.85,7.46-8.21a6.62,6.62,0,0,0,0-5.78A5,5,0,0,0,80.9,89.2c-1.92.1-1.93,3.1,0,3a2.11,2.11,0,0,1,2,1.41,3.94,3.94,0,0,1-.32,3.31,18.93,18.93,0,0,1-5.66,6.19,12.89,12.89,0,0,1-3.49,2.12c-1,.32-1.74-.33-2.15-1.22-1-2.17.1-4.88,1.54-6.58,2.09-2.46,5.13-3.82,8-5.16a1.51,1.51,0,0,0,.54-2,1.54,1.54,0,0,0-2-.54Z"/><path class="cls-2" d="M85.07,98.82A4.25,4.25,0,0,1,88,98.33c.67.11,1.71.29,2,.85.82,1.35-.52,3.6-1.38,4.76A23.29,23.29,0,0,1,84,108.57a23.63,23.63,0,0,1-2.8,1.83c-.74.41-1.88,1-2.73.58a2.16,2.16,0,0,1-1-1.83,6.1,6.1,0,0,1,1.36-3.43c1.09-1.6-1.51-3.11-2.59-1.51-1.69,2.5-2.66,5.88-.46,8.42s5.83,1.11,8.26-.47A27.8,27.8,0,0,0,90.82,106c1.7-2.19,3.27-5.42,1.86-8.15a5.13,5.13,0,0,0-3.8-2.36,7.46,7.46,0,0,0-5.32.77,1.5,1.5,0,0,0,1.51,2.59Z"/><path class="cls-2" d="M82.25,111.1c-1.8,2.37-3,5.82-.73,8.34s5.87,1.65,8.4.18a23.47,23.47,0,0,0,6.84-6.06c1.77-2.33,2.84-5.31,1.5-8.11a4.94,4.94,0,0,0-3.34-2.73c-2-.4-3.8.49-5.45,1.44A1.5,1.5,0,0,0,91,106.75c1.42-.82,3.49-2,4.54-.06.94,1.7-.11,3.66-1.13,5a19.46,19.46,0,0,1-4.66,4.44c-1.45,1-3.59,2.48-5.44,1.65-2.24-1-.4-4,.54-5.22a1.5,1.5,0,0,0-.53-2,1.55,1.55,0,0,0-2.06.54Z"/><path class="cls-2" d="M96.77,113.41a4.55,4.55,0,0,1,.47-.13c-.28,0,.49.07.18,0a1.2,1.2,0,0,1,.79.35c-.22-.18.31.35.13.13a1.73,1.73,0,0,1,.25.41c-.07-.15.09.33.1.41,0-.29,0,.45,0,.21a5.2,5.2,0,0,1-1.39,2.37,25.76,25.76,0,0,1-2.43,2.47c-.86.77-1.76,1.5-2.68,2.21a5.75,5.75,0,0,1-2.42,1.4c-2,.3-1.18-2.2-.7-3.33a1.55,1.55,0,0,0-.54-2.05,1.51,1.51,0,0,0-2,.54c-.92,2.18-1.75,5,.32,6.87s4.9.7,6.85-.79a37.64,37.64,0,0,0,5.54-4.94c1.52-1.72,3.15-4,2.22-6.38a4.44,4.44,0,0,0-6.15-2.36,1.52,1.52,0,0,0-.54,2.05,1.54,1.54,0,0,0,2.06.54Z"/><path class="cls-2" d="M48.85,60.27l9.79,7.51c2.83,2.18,5.77,4.78,9.51,5a15.73,15.73,0,0,0,5.51-1,25.37,25.37,0,0,1,5.46-1.07A24.77,24.77,0,0,1,90.3,72.62c1.78.73,2.56-2.17.8-2.89a27,27,0,0,0-10.67-2,26.48,26.48,0,0,0-5.4.65,49.2,49.2,0,0,1-5.52,1.43C65.78,70.19,62.7,67.14,60,65l-9.6-7.36c-1.53-1.18-3,1.43-1.51,2.59Z"/><path class="cls-2" d="M38.09,85.42,69.6,98c1.79.71,2.57-2.19.8-2.9L38.89,82.53c-1.79-.72-2.57,2.18-.8,2.89Z"/><path class="cls-2" d="M99.29,116.5c2.17,1.93,4.51,3.88,7.5,4.25a4.85,4.85,0,0,0,3.67-1,4.65,4.65,0,0,0,1.66-3.89,9.89,9.89,0,0,0-1.52-4.52,1.5,1.5,0,0,0-2.59,1.52c.16.27.31.54.45.82,0,0,.25.54.16.31l.16.43a9.1,9.1,0,0,1,.29,1c0,.1,0,.2.05.3,0-.15,0-.14,0,0s0,.29,0,.44a2.72,2.72,0,0,1,0,.28c0-.17,0-.17,0,0s-.07.26-.12.39c.12-.3-.13.2-.17.26-.15.25.12-.08-.1.12,0,0-.37.34-.23.23s-.21.12-.25.15-.14.07,0,0a.58.58,0,0,1-.17.06l-.4.11c-.32.07.24,0-.07,0-.16,0-.32,0-.49,0s-.35-.05-.09,0l-.5-.1c-.29-.08-.58-.18-.86-.28s.25.13-.13,0l-.47-.23a17.55,17.55,0,0,1-3.69-2.75,1.53,1.53,0,0,0-2.12,0,1.51,1.51,0,0,0,0,2.12Z"/><path class="cls-2" d="M95.15,120.82a5.52,5.52,0,0,0,5.28,5.28,5.7,5.7,0,0,0,3.73-1.38,5.27,5.27,0,0,0,1.78-3.61,5.48,5.48,0,0,0-1.49-4.2,1.5,1.5,0,0,0-2.12,0,1.52,1.52,0,0,0,0,2.12s.14.21.2.23-.15-.23-.07-.09a1.48,1.48,0,0,0,.08.13c.06.09.11.18.16.27l.07.14c.1.17-.12-.34,0,0a4.5,4.5,0,0,1,.17.6l0,.16c0,.17,0-.13,0-.14a1.56,1.56,0,0,0,0,.37c0,.1,0,.21,0,.31a.86.86,0,0,0,0,.16s0-.3,0-.14-.1.44-.17.66.12-.23,0,.07a2.54,2.54,0,0,1-.16.28s-.23.28-.09.14l-.15.15a2.39,2.39,0,0,1-.23.22c-.2.18.21-.14,0,0a4.08,4.08,0,0,1-.57.34c-.34.17.18,0-.07,0l-.3.09-.3.07c-.25.06.29,0-.06,0h-.62c-.16,0,.14,0,.15,0a.8.8,0,0,0-.15,0,2,2,0,0,1-.35-.09l-.15,0c-.2,0,.25.13.07,0l-.27-.14-.27-.17s-.09-.08-.12-.08.22.18.06,0l-.27-.25s-.18-.25-.24-.26.17.23.08.1l-.12-.17a2.48,2.48,0,0,1-.18-.31,1.14,1.14,0,0,1-.1-.19c-.1-.19,0,0,0,.08a1.5,1.5,0,0,0-.11-.34c0-.12-.06-.23-.08-.35s0-.22,0,0,0-.07,0-.11a1.5,1.5,0,0,0-3,0Z"/></g></g></svg>