<svg xmlns="http://www.w3.org/2000/svg" viewBox="0 0 473.91 129.72"><defs><style>.cls-1{fill:#c91b4e;}.cls-2{fill:#fff;}</style></defs><g id="Layer_2" data-name="Layer 2"><g id="Layer_2-2" data-name="Layer 2"><path class="cls-1" d="M19.81,1.57C3.63,11.23-3.83,32.86,1.93,50.8,12.54,83.89,52.3,89.32,79.85,75.52,89.73,70.58,102.41,59.9,114,63c13.87,3.74,17.14,22.74,29.15,30.64,12.28,8.07,29.1,1.68,40.29-7.85,7.12-6.07,13.92-13.69,23.17-15.09,9.1-1.37,18,3.9,24.3,10.64s10.68,15,16.49,22.12A71.29,71.29,0,0,0,347.3,114c14.83-11.91,25.43-30,43.39-36.31,13.86-4.83,29.31-1.46,43.91-2.19a48.76,48.76,0,0,0,15.8-3.15c28.61-11.52,31.22-50.2,7.2-66.15A59.2,59.2,0,0,0,445.08,0H22.73C21.74.49,20.77,1,19.81,1.57Z"/><path class="cls-2" d="M261.89,25.48A116.93,116.93,0,0,0,263.79,52c.35,1.9,3.25,1.1,2.89-.79a114,114,0,0,1-1.79-25.75c.09-1.93-2.91-1.93-3,0Z"/><path class="cls-2" d="M264.2,26.28l25.43-3.77,6.12-.9c1.53-.22,3.59-.59,4.68.82.92,1.18,1,2.95,1.16,4.38q.33,3.18.51,6.36.42,7.23.11,14.47c-.08,1.93,2.92,1.93,3,0q.29-7-.08-14-.19-3.55-.56-7.09a14.53,14.53,0,0,0-1.14-5c-2-4.06-6.52-3.18-10.19-2.64L279.3,21l-15.89,2.36c-1.91.28-1.1,3.17.79,2.89Z"/><path class="cls-2" d="M266.49,53.87A279.33,279.33,0,0,0,303.27,51c1.9-.28,1.09-3.17-.8-2.89a274.11,274.11,0,0,1-36,2.77,1.5,1.5,0,0,0,0,3Z"/><path class="cls-2" d="M274.6,33.87l17.34,9.67c1.69.94,3.21-1.65,1.52-2.59l-17.34-9.67c-1.69-.94-3.2,1.65-1.52,2.59Z"/><path class="cls-2" d="M288.09,28a53.48,53.48,0,0,0-13.74,17c-.88,1.71,1.71,3.23,2.59,1.51a51.49,51.49,0,0,1,13.27-16.41,1.51,1.51,0,0,0,0-2.12,1.53,1.53,0,0,0-2.12,0Z"/><path class="cls-2" d="M321.49,35.35a61.8,61.8,0,0,0-6.89,26c-.08,1.93,2.92,1.93,3,0a58.28,58.28,0,0,1,6.48-24.52c.89-1.71-1.7-3.23-2.59-1.52Z"/><path class="cls-2" d="M321.93,37.24a341.44,341.44,0,0,0,38.61,9.64c1.89.35,2.69-2.54.8-2.9a339.32,339.32,0,0,1-38.61-9.64c-1.85-.57-2.64,2.32-.8,2.9Z"/><path class="cls-2" d="M359.89,45l-5.82,23c-.47,1.88,2.42,2.67,2.9.8l5.81-23c.47-1.88-2.42-2.67-2.89-.8Z"/><path class="cls-2" d="M315.75,63.31l38.13,8.43c1.88.42,2.68-2.47.8-2.89l-38.13-8.43c-1.88-.42-2.69,2.47-.8,2.89Z"/><path class="cls-2" d="M329.29,51.2l0,4.66a1.52,1.52,0,0,0,1.9,1.44l22.59-3.65c1.9-.31,1.09-3.2-.8-2.89l-22.58,3.65,1.89,1.45,0-4.66a1.5,1.5,0,0,0-3,0Z"/><path class="cls-2" d="M283.69,52.12l9.08,46c.38,1.9,3.27,1.09,2.9-.79l-9.09-46c-.37-1.89-3.26-1.09-2.89.8Z"/><path class="cls-2" d="M332.4,67.18Q325,86.6,319.46,106.63a1.51,1.51,0,0,0,2.9.8q5.56-20,12.93-39.45c.68-1.81-2.22-2.59-2.89-.8Z"/><path class="cls-2" d="M278.43,71.86A149.17,149.17,0,0,0,251,68.57c-1.93,0-1.93,3,0,3a143.3,143.3,0,0,1,26.67,3.19c1.88.4,2.68-2.49.79-2.9Z"/><path class="cls-2" d="M280.8,83.58l-9.31,7.1a1.53,1.53,0,0,0-.53,2,1.51,1.51,0,0,0,2.05.54l9.3-7.1a1.54,1.54,0,0,0,.54-2,1.51,1.51,0,0,0-2.05-.54Z"/><path class="cls-2" d="M320.5,77.78l-13.3-9.31a1.52,1.52,0,0,0-2.06.53,1.55,1.55,0,0,0,.54,2.06L319,80.37a1.5,1.5,0,1,0,1.52-2.59Z"/><path class="cls-2" d="M316.6,85.66,306,86.53a1.54,1.54,0,0,0-1.5,1.5,1.51,1.51,0,0,0,1.5,1.5l10.64-.87a1.54,1.54,0,0,0,1.5-1.5,1.51,1.51,0,0,0-1.5-1.5Z"/><path class="cls-2" d="M336.94,85.84l24.39-4.42c1.9-.34,1.09-3.23-.8-2.89L336.14,83c-1.89.34-1.09,3.23.8,2.89Z"/></g></g></svg>