<svg xmlns="http://www.w3.org/2000/svg" viewBox="0 0 458.1 131.5"><defs><style>.cls-1{fill:#a4ae4c;}.cls-2{fill:#fff;}</style></defs><g id="Layer_2" data-name="Layer 2"><g id="Layer_2-2" data-name="Layer 2"><path class="cls-1" d="M31.32,55.57c23.81,12,45.29,3,69.52,5.9,21.7,2.63,43.5,17.41,59.66,31.16,11.49,9.78,22.18,20.67,35,28.62S224,134,238.6,130.13c15.21-4,26.78-16.75,41.7-21.77,17-5.73,35.67-.67,52.56,5.47s34.11,13.48,52,12.26c13.1-.9,25.16-6.44,35.31-14.76A89.11,89.11,0,0,0,444.58,79c.11-.25.22-.51.34-.77,7.85-17.87,15-39.28,12.75-59-.71-6.19-2.8-14-7.29-19.2H.78C-3.61,22.12,11,45.36,31.32,55.57Z"/><path class="cls-2" d="M315.77,30.93l-5.58,46.35c-.23,1.91,2.77,1.89,3,0l5.58-46.35c.23-1.92-2.77-1.9-3,0Z"/><path class="cls-2" d="M318.41,32.64l67,8.52,19,2.42c1.91.25,1.89-2.76,0-3l-67-8.52-19-2.42c-1.91-.24-1.89,2.76,0,3Z"/><path class="cls-2" d="M403.6,42.73,398.45,86.9c-.22,1.91,2.78,1.9,3,0l5.15-44.17c.22-1.91-2.78-1.9-3,0Z"/><path class="cls-2" d="M311.23,79q33.91,5.18,68.07,8.46,9.6.91,19.2,1.69c1.92.15,1.91-2.85,0-3q-33.79-2.72-67.39-7.28-9.56-1.31-19.08-2.77c-1.89-.29-2.7,2.61-.8,2.9Z"/><path class="cls-2" d="M360.8,42.69A16.14,16.14,0,0,0,343.71,50c-3.74,6.27-2.39,14.62,2.42,19.92a20.42,20.42,0,0,0,19.81,5.85c7.6-2,11.54-9.62,10.56-17.15a18.36,18.36,0,0,0-16.45-15.81c-1.92-.2-1.91,2.81,0,3a15.27,15.27,0,0,1,13.05,11c1.63,5.89-.38,13.08-6.42,15.52-5.48,2.21-12.34.76-16.8-3a14.61,14.61,0,0,1-4.62-15.64c2-5.92,8.72-9.44,14.74-8.11,1.89.41,2.69-2.48.8-2.9Z"/><path class="cls-2" d="M359.86,55.79a5.81,5.81,0,0,1-.43-.43c-.26-.28.11.17,0,0l-.17-.25c-.22-.34-.41-.7-.6-1.06a17.1,17.1,0,0,0-1.14-2.16c-1.11-1.61-2.87-2.91-4.92-2.48a4.24,4.24,0,0,0-3.09,4,5.19,5.19,0,0,0,2.57,4.46c1.86,1.22,4.19,1.27,6.33,1.13a1.5,1.5,0,0,0,0-3A17.75,17.75,0,0,1,356,56c-.06,0-.6-.07-.3,0l-.55-.1a4.94,4.94,0,0,1-.55-.15l-.24-.08-.16-.06.1,0a2.31,2.31,0,0,1-.79-.45c-.06,0-.25-.14,0,0l-.18-.15c-.12-.11-.25-.23-.36-.35s-.25-.25,0,0a2,2,0,0,1-.13-.18c-.08-.13-.15-.26-.22-.39s-.13-.1,0,.06a1.11,1.11,0,0,1-.08-.21c0-.08,0-.15-.05-.22-.08-.27,0,.23,0,.05s0-.26,0-.4c0-.36-.08.26,0-.1,0-.12.08-.25.11-.38s-.14.24,0,.08a4.53,4.53,0,0,1,.25-.43c.08-.17-.19.19-.05.07l.28-.27c.13-.14-.25.13-.07.06l.16-.1c.18-.11,0-.05,0,0s-.12.06,0,0l.1,0c.25-.09-.06,0-.09,0a1.77,1.77,0,0,0,.22,0,.89.89,0,0,1,.23,0c-.21-.1-.21,0-.07,0l.21.06c.3.09-.06,0,0,0a4.45,4.45,0,0,1,.49.29s-.24-.2,0,0l.18.16c.11.11.23.22.33.34s.1.13.16.19c-.2-.23-.06-.08,0,0s.22.32.32.5c.83,1.42,1.33,3,2.59,4.13a1.5,1.5,0,0,0,2.12-2.12Z"/><path class="cls-2" d="M360.76,64.09c.09-.11.09-.1,0,0,.07-.08.13-.16.21-.24a4,4,0,0,1,.35-.36c.14-.14.28-.26.43-.39s.11-.07,0,0L362,63a6.79,6.79,0,0,1,.94-.55l.28-.13c-.12.06-.14,0,0,0s.36-.13.54-.18a9.56,9.56,0,0,1,1.06-.24c-.31.06.12,0,.23,0a5.62,5.62,0,0,1,.58,0,4.1,4.1,0,0,1,.5,0l.32,0c-.13,0-.18,0,0,0a7.25,7.25,0,0,1,1.11.29l-1.1-1.45c0,.07-.08.46,0,.12,0,.1,0,.21-.06.31a5.35,5.35,0,0,1-.21.68c.08-.2,0-.07,0,0l-.15.28-.21.33c-.15.23.08-.07,0,.05a6,6,0,0,1-.49.52s-.29.25-.14.13-.13.09-.16.11c-.2.13-.41.23-.61.35s.21-.06-.06,0l-.37.11-.31.07c-.17,0,.24,0,0,0a4.21,4.21,0,0,1-.71,0l-.32,0c.36,0-.06,0-.11,0a4.83,4.83,0,0,1-.62-.18c-.38-.12.25.14-.11,0l-.29-.15a4.74,4.74,0,0,1-.6-.39c.17.13,0,0,0,0a2.39,2.39,0,0,1-.23-.22c-.09-.09-.17-.19-.26-.29.17.2,0,0-.07-.11a1.5,1.5,0,0,0-2.59,1.51,6.43,6.43,0,0,0,11.86-3.18,1.53,1.53,0,0,0-1.11-1.44,9.08,9.08,0,0,0-10.11,3.31,1.5,1.5,0,0,0,.54,2,1.53,1.53,0,0,0,2.05-.54Z"/><path class="cls-2" d="M359.91,51.91c1.27.36,1.06,2.33.62,3.25-.93,2-2.8,3.32-3.78,5.26a9.56,9.56,0,0,0,1.87,11c1.38,1.35,3.51-.77,2.12-2.12a6.54,6.54,0,0,1-2-5.08c.09-2.18,1.46-3.68,2.77-5.3s2.44-3.37,2.31-5.53A4.54,4.54,0,0,0,360.71,49a1.5,1.5,0,0,0-.8,2.89Z"/><path class="cls-2" d="M318.14,79.82l-.48,6.38a1.49,1.49,0,0,0,1.1,1.45q32.46,4.95,65.14,8.29,9.35.94,18.7,1.76c1.93.17,1.92-2.83,0-3Q370,91.87,337.66,87.39q-9.06-1.24-18.11-2.63l1.11,1.44.48-6.38c.15-1.92-2.85-1.91-3,0Z"/><path class="cls-2" d="M405.8,96.41a321.33,321.33,0,0,1,4.9-42.51,1.53,1.53,0,0,0-1.05-1.85l-5.46-.85c-1.89-.29-2.7,2.6-.8,2.89l5.46.86L407.8,53.1a328.21,328.21,0,0,0-5,43.31c-.09,1.93,2.91,1.93,3,0Z"/></g></g></svg>