<svg xmlns="http://www.w3.org/2000/svg" viewBox="0 0 542.58 160.62"><defs><style>.cls-1{fill:#2361ab;}.cls-2{fill:#fff;}</style></defs><g id="Layer_2" data-name="Layer 2"><g id="Layer_2-2" data-name="Layer 2"><path class="cls-1" d="M2.21,41.83c4,11.5,14.28,20.35,26,23.52a42.29,42.29,0,0,0,11.89,1.43,48.79,48.79,0,0,0,23.31-6.59c11.95-6.92,22.46-18.94,36.26-18.44,7.62.28,14.56,4.55,20.18,9.71s10.29,11.26,15.89,16.44A67.14,67.14,0,0,0,189,85a67,67,0,0,0,34.15-15c10-8.34,13.9-15.54,27.83-17.3,14.74-1.87,28.92,7.26,38.35,18.74s15.45,25.34,23.53,37.81c13.54,20.87,33.41,38,56.9,46.18s50.56,6.89,72.16-5.46c20.46-11.69,35-32.69,40.36-55.62a97.87,97.87,0,0,0,2.56-21.15c.08-5.15-1.78-10.57.48-15.39a8,8,0,0,1,4.62-4.43,9,9,0,0,1,6.51.92c2,1,3.81,2.38,5.8,3.41,13.06,6.8,31.24-2.84,37.32-15,6.89-13.79,1.52-32.44-11.65-40.46A38.9,38.9,0,0,0,523.6,0h-505C3.34,8.37-4,23.9,2.21,41.83Z"/><path class="cls-2" d="M426.57,101.39l-35.41-.17-17.46-.08c-5,0-10.3.08-14.54,3a15,15,0,0,0-6.5,10.69,13.74,13.74,0,0,0,4.51,11.47c3.87,3.35,9,3.59,13.88,3.6l17.43,0,39.83,0a1.5,1.5,0,0,0,0-3l-32.86,0H370.62a29.66,29.66,0,0,1-6.91-.58,10.48,10.48,0,0,1-8-8.51A11.4,11.4,0,0,1,360,107.28c3.64-3,8.57-3.15,13.08-3.14,5.46,0,10.91,0,16.37.07l37.16.18a1.5,1.5,0,0,0,0-3Z"/><path class="cls-2" d="M418.68,103.61l1,22.61c.09,1.92,3.09,1.93,3,0l-1-22.61c-.09-1.92-3.09-1.93-3,0Z"/><path class="cls-2" d="M364.42,112.56l55.42.28a1.5,1.5,0,0,0,0-3l-55.42-.28a1.5,1.5,0,0,0,0,3Z"/><path class="cls-2" d="M364,116.79l53.64.3a1.5,1.5,0,0,0,0-3l-53.64-.3a1.5,1.5,0,0,0,0,3Z"/><path class="cls-2" d="M364.42,121.86l54.53.54a1.5,1.5,0,0,0,0-3l-54.53-.54a1.5,1.5,0,0,0,0,3Z"/><path class="cls-2" d="M369.39,60.75a14.75,14.75,0,0,1,16.22,22.69,14.75,14.75,0,1,1-16.22-22.69c1.84-.57,1.06-3.47-.8-2.9a18.34,18.34,0,0,0-12.71,15.88,17.74,17.74,0,0,0,30.35,13.6c5.34-5.32,6.43-14,3.09-20.63-3.71-7.4-12.86-11.06-20.73-8.85a1.51,1.51,0,0,0,.8,2.9Z"/><path class="cls-2" d="M383.89,88.45l8,12.86c1,1.64,3.61.14,2.59-1.51l-8-12.87c-1-1.64-3.61-.13-2.59,1.52Z"/><path class="cls-2" d="M387.23,86.19l21.57,16.6a1.5,1.5,0,1,0,1.52-2.59L388.74,83.6a1.51,1.51,0,0,0-2.05.54,1.53,1.53,0,0,0,.54,2Z"/><path class="cls-2" d="M393.68,102.44l10.94-.28a1.52,1.52,0,0,0,.75-2.8L392,89.49a1.5,1.5,0,0,0-1.82.24,1.59,1.59,0,0,0-.23,1.82,26.56,26.56,0,0,0,5.46,8.16,1.5,1.5,0,0,0,2.35-1.81,41.63,41.63,0,0,0-7.85-10.67,1.51,1.51,0,0,0-2.51,1.45,43.91,43.91,0,0,0,4.75,10.09c.47.72.95,1.79,1.82,2.06a10.82,10.82,0,0,0,3,0l6.23-.06a1.51,1.51,0,0,0,.4-3c-6.73-2.26-11.66-7.78-16.26-12.92l-2.12,2.12a103.35,103.35,0,0,0,21,15.17c1.69.92,3.21-1.67,1.51-2.6a100.21,100.21,0,0,1-20.37-14.69,1.5,1.5,0,0,0-2.12,2.12c5,5.57,10.31,11.25,17.58,13.69l.4-2.94-8.84.08,1.29.74a41.49,41.49,0,0,1-5.37-10.73l-2.5,1.46a39.26,39.26,0,0,1,7.38,10.06l2.36-1.82a24.21,24.21,0,0,1-5-7.56l-2.05,2L403.86,102l.76-2.79-10.94.28c-1.93.06-1.93,3.06,0,3Z"/><path class="cls-2" d="M413,68.6,401.83,96.05c-.72,1.79,2.18,2.56,2.9.8L415.92,69.4c.73-1.79-2.17-2.57-2.9-.8Z"/><path class="cls-2" d="M414.94,66.4a2.26,2.26,0,0,1-2.35-2.59l-1.5,1.5a45.85,45.85,0,0,1,10.47,2.4,37.39,37.39,0,0,1,9.75,4.92c.16.12.47.38.53.44-.32-.31.62,0-.21-.11a9.61,9.61,0,0,1-1.83-.26c-1.78-.49-3.54-1.08-5.26-1.74a55.77,55.77,0,0,1-10.05-5.16c-1.63-1-3.13,1.55-1.51,2.59a59.71,59.71,0,0,0,9.65,5c1.65.68,3.34,1.28,5,1.8a9.92,9.92,0,0,0,4.56.68,2.94,2.94,0,0,0,2.58-2.46c.23-1.79-1.26-2.94-2.6-3.8A48.1,48.1,0,0,0,422.72,65a48.8,48.8,0,0,0-11.63-2.64c-.86-.09-1.43.77-1.5,1.5a5.25,5.25,0,0,0,5.35,5.59c1.93-.08,1.94-3.08,0-3Z"/><path class="cls-2" d="M426.58,74.34l-4.73,27.08c-.33,1.88,2.56,2.7,2.89.79l4.73-27.07c.33-1.89-2.56-2.7-2.89-.8Z"/><path class="cls-2" d="M423.67,57.34a3.08,3.08,0,0,0,0,2A3.64,3.64,0,0,0,424.74,61a4.11,4.11,0,0,0,1.16.68,3,3,0,0,0,1,.18,2.76,2.76,0,0,0,1-.16,3.54,3.54,0,0,0,1.1-.63,3.65,3.65,0,0,0,1.17-3.45,2.91,2.91,0,0,0-.91-1.6,3.32,3.32,0,0,0-.75-.51,4.49,4.49,0,0,0-.61-.23,4.64,4.64,0,0,0-.65-.11,3.67,3.67,0,0,0-1.95.38,3.13,3.13,0,0,0-.82.58,2.6,2.6,0,0,0-.59.8,1.57,1.57,0,0,0-.15,1.16,1.49,1.49,0,0,0,.69.9,1.54,1.54,0,0,0,1.15.15,1.49,1.49,0,0,0,.9-.69,1.5,1.5,0,0,1,.19-.32l-.24.31a1.82,1.82,0,0,1,.31-.31l-.3.23a2.06,2.06,0,0,1,.41-.23l-.36.15a2.19,2.19,0,0,1,.57-.16l-.4,0a2.91,2.91,0,0,1,.59,0l-.4,0a2,2,0,0,1,.5.13l-.36-.15a1.79,1.79,0,0,1,.38.22l-.31-.24a1.59,1.59,0,0,1,.29.29l-.23-.31a2.12,2.12,0,0,1,.21.36l-.15-.36a2.18,2.18,0,0,1,.11.44l-.05-.4a1.81,1.81,0,0,1,0,.52l.06-.4a2.58,2.58,0,0,1-.16.56l.15-.36a2.43,2.43,0,0,1-.29.49l.24-.3a2.81,2.81,0,0,1-.35.34l.3-.23a2.08,2.08,0,0,1-.38.22l.35-.15a1.82,1.82,0,0,1-.4.11l.4-.06a1.41,1.41,0,0,1-.41,0l.39.05a1.62,1.62,0,0,1-.43-.12l.36.15a2.67,2.67,0,0,1-.43-.25l.31.23a2.34,2.34,0,0,1-.39-.38l.24.3a2.29,2.29,0,0,1-.3-.5l.15.36a2.14,2.14,0,0,1-.13-.48l0,.4a2.26,2.26,0,0,1,0-.45l-.05.4a1.4,1.4,0,0,1,.11-.4,1.52,1.52,0,0,0-.16-1.16,1.5,1.5,0,0,0-2.05-.54l-.3.24a1.39,1.39,0,0,0-.39.66Z"/><path class="cls-2" d="M439.06,50.47a3.26,3.26,0,0,0-1.26,1.37,3.88,3.88,0,0,0-.4,1.86,3.72,3.72,0,0,0,.55,1.81,3.42,3.42,0,0,0,1.73,1.36,3.6,3.6,0,0,0,1.9.1,3.78,3.78,0,0,0,1.69-.83,3.28,3.28,0,0,0,1-3.56,3.72,3.72,0,0,0-.49-1,4.65,4.65,0,0,0-1-1A3.24,3.24,0,0,0,440.7,50a1.64,1.64,0,0,0-1.06.44,1.52,1.52,0,0,0-.44,1.06,1.54,1.54,0,0,0,.44,1.07,1.46,1.46,0,0,0,1.06.43,2.71,2.71,0,0,1,.4,0l-.4,0a1.91,1.91,0,0,1,.47.12l-.36-.15a2.36,2.36,0,0,1,.51.3L441,53a2.09,2.09,0,0,1,.42.42l-.23-.3a2.62,2.62,0,0,1,.3.51l-.15-.35a2.21,2.21,0,0,1,.14.52l-.05-.4a2,2,0,0,1,0,.49l.06-.4a2.13,2.13,0,0,1-.13.45l.15-.35a1.91,1.91,0,0,1-.24.41l.23-.31a2.16,2.16,0,0,1-.37.37l.3-.23a2.22,2.22,0,0,1-.5.28l.36-.15a2.43,2.43,0,0,1-.6.17l.4-.06a2.08,2.08,0,0,1-.61,0l.39.06a2.64,2.64,0,0,1-.46-.13l.36.15a1.79,1.79,0,0,1-.38-.22l.3.24a2.19,2.19,0,0,1-.34-.34l.23.3a2.13,2.13,0,0,1-.23-.42l.15.36a2.14,2.14,0,0,1-.15-.55l.05.4a2.5,2.5,0,0,1,0-.67l-.05.4a2.64,2.64,0,0,1,.15-.55l-.15.36a1.89,1.89,0,0,1,.26-.46l-.24.31a1.88,1.88,0,0,1,.34-.35l-.3.24a.71.71,0,0,1,.14-.1,1.55,1.55,0,0,0,.69-.9,1.49,1.49,0,0,0-.15-1.15,1.51,1.51,0,0,0-2.05-.54Z"/><path class="cls-2" d="M427.12,40.32a3.12,3.12,0,0,0-1.21,1.31,3.67,3.67,0,0,0-.39,1.75,3.53,3.53,0,0,0,.51,1.74,3,3,0,0,0,.59.68,3.32,3.32,0,0,0,1.06.62,3.38,3.38,0,0,0,1.81.1,3.63,3.63,0,0,0,.86-.29,2.6,2.6,0,0,0,.49-.28,3.71,3.71,0,0,0,.75-.73,3.17,3.17,0,0,0,.51-.94,2.84,2.84,0,0,0,.15-1,3.22,3.22,0,0,0-.15-1,3.63,3.63,0,0,0-.45-.93,4.3,4.3,0,0,0-1-1,3.08,3.08,0,0,0-2-.59,1.61,1.61,0,0,0-1.06.44,1.56,1.56,0,0,0-.44,1.06,1.54,1.54,0,0,0,.44,1.06,1.47,1.47,0,0,0,1.06.44,1.45,1.45,0,0,1,.36,0l-.4,0a2.09,2.09,0,0,1,.43.11l-.36-.15a2.25,2.25,0,0,1,.47.28l-.31-.24a2.34,2.34,0,0,1,.38.39l-.23-.31a2.2,2.2,0,0,1,.27.47l-.15-.36a1.91,1.91,0,0,1,.14.52l-.05-.4a2.14,2.14,0,0,1,0,.44l.06-.39a2.54,2.54,0,0,1-.1.37l.15-.36a1.79,1.79,0,0,1-.22.38l.23-.31a1.77,1.77,0,0,1-.33.34l.3-.23a2.87,2.87,0,0,1-.48.28l.36-.15a2.64,2.64,0,0,1-.55.15l.4-.06a2.09,2.09,0,0,1-.56,0l.4,0a1.78,1.78,0,0,1-.45-.13l.35.15a1.68,1.68,0,0,1-.34-.2l.3.24a2.57,2.57,0,0,1-.28-.29l.24.31a1.69,1.69,0,0,1-.24-.41l.15.36a2.19,2.19,0,0,1-.14-.5l.06.4a2.08,2.08,0,0,1,0-.61l-.05.4a1.67,1.67,0,0,1,.15-.54l-.16.36a2.14,2.14,0,0,1,.25-.41l-.24.3a2.47,2.47,0,0,1,.28-.28l-.3.24a1,1,0,0,1,.16-.12,1.52,1.52,0,0,0,.69-.9,1.54,1.54,0,0,0-.15-1.15,1.5,1.5,0,0,0-2.05-.54Z"/></g></g></svg>