<svg xmlns="http://www.w3.org/2000/svg" viewBox="0 0 438.63 119.18"><defs><style>.cls-1{fill:#5947b8;}.cls-2{fill:#fff;}</style></defs><g id="Layer_2" data-name="Layer 2"><g id="Layer_2-2" data-name="Layer 2"><path class="cls-1" d="M9.21.81c-19.16,16.61-5.63,52.7,15,61A48.18,48.18,0,0,0,40,65c14.6.73,30.06-2.63,43.91,2.2,18,6.25,28.57,24.39,43.4,36.31a71.29,71.29,0,0,0,99.91-10.56c5.81-7.14,10.23-15.38,16.5-22.12s15.19-12,24.29-10.63c9.26,1.39,16.05,9,23.18,15.09,11.18,9.53,28,15.91,40.28,7.84,12-7.89,15.28-26.9,29.16-30.63,12.53-3.38,23.66,8.25,35.94,12.43a33.24,33.24,0,0,0,35.22-9.79c11.78-14,7.84-44.17-8.56-53.22A36,36,0,0,0,419.18,0h-409C9.88.27,9.54.53,9.21.81Z"/><path class="cls-2" d="M207.38,51.15l25.1-18.1-2-.53a163.91,163.91,0,0,1,8.56,23l1.85-1.85A66.85,66.85,0,0,0,225.27,52a64.64,64.64,0,0,0-7.74.53c-1.16.15-2.31.36-3.47.52a4.49,4.49,0,0,1-3.13-.3c-.76-.53-1.15-1.58-1.75-2.28A5,5,0,0,0,207,49a6.11,6.11,0,0,0-5,.59c-3.4,2.05-3.37,6.69-.76,9.38,3.31,3.41,8.89,1.81,11.06-2a1.5,1.5,0,0,0-2.59-1.51c-1.38,2.45-5.07,3.55-6.81.84a3,3,0,0,1,0-3.58,3.07,3.07,0,0,1,3.24-.8c1.32.53,1.79,2.29,2.87,3.16a6.32,6.32,0,0,0,4.74,1.1c2-.21,3.94-.62,5.92-.81s4.07-.29,6.11-.3A63.68,63.68,0,0,1,240,56.61a1.51,1.51,0,0,0,1.85-1.84A170.61,170.61,0,0,0,233,31a1.5,1.5,0,0,0-2.05-.54l-25.1,18.1c-1.56,1.12-.06,3.72,1.51,2.59Z"/><path class="cls-2" d="M209.62,56.54l2.29,7.92,1.17,4a20.38,20.38,0,0,0,1.12,3.36,3.87,3.87,0,0,0,4.93,2c1.23-.45,3-2,4.14-1.66a1.52,1.52,0,0,0,1.85-1.85l-5.47-15.46c-.64-1.81-3.54-1-2.89.8l5.47,15.46,1.84-1.84c-1.72-.52-3.27.31-4.74,1.13a4.31,4.31,0,0,1-1.68.71c-.49,0-.79-.6-1-1.13-.81-2.22-1.35-4.57-2-6.84l-2.16-7.42a1.5,1.5,0,0,0-2.89.79Z"/><path class="cls-2" d="M236.78,40l10.75-10.32a1.5,1.5,0,1,0-2.12-2.12L234.66,37.84A1.5,1.5,0,1,0,236.78,40Z"/><path class="cls-2" d="M239.49,47.78,265,43.85c1.9-.29,1.09-3.18-.8-2.89L238.7,44.88c-1.91.3-1.1,3.19.79,2.9Z"/><path class="cls-2" d="M247.08,39.09l9.11-3.51a1.54,1.54,0,0,0,1-1.85,1.52,1.52,0,0,0-1.84-1l-9.1,3.52a1.5,1.5,0,1,0,.79,2.89Z"/><path class="cls-2" d="M198.88,20.44l-.24,13.22-.06,3.43c0,.58.17,2.52-.1,2.74a10,10,0,0,1-1.4-.07l-1.49,0-3.48-.06-26.8-.48c-1.93,0-1.93,3,0,3l29.78.54c1.83,0,4.71.61,5.93-1.17a4.45,4.45,0,0,0,.53-2.51c0-1.31,0-2.61.07-3.92l.26-14.69c0-1.93-3-1.93-3,0Z"/><path class="cls-2" d="M166.91,40.8q-.82-6.88-1.13-13.82c0-1.16-.08-2.31-.11-3.47,0-.64-.22-1.91.33-2.43s1.76-.29,2.38-.27l3.45.07,27.6.56c1.93,0,1.93-3,0-3l-30.56-.62c-1.85,0-3.9-.14-5.22,1.4s-1,4.28-.92,6.27q.26,7.68,1.18,15.31c.23,1.89,3.23,1.91,3,0Z"/><path class="cls-2" d="M178.88,28.42v5.32a1.5,1.5,0,1,0,3,0V28.42a1.5,1.5,0,0,0-3,0Z"/><path class="cls-2" d="M179.62,28.38a27.2,27.2,0,0,0,8.7,4L188,29.67a22.28,22.28,0,0,1-4,1.64,26,26,0,0,1-4.43,1,1.51,1.51,0,0,0-1,1.85,1.55,1.55,0,0,0,1.84,1,28.27,28.27,0,0,0,9.14-2.93,1.51,1.51,0,0,0-.36-2.74c-.74-.19-1.48-.42-2.2-.68-.34-.12-.68-.25-1-.39l-.07,0-.28-.12-.49-.22a26.06,26.06,0,0,1-3.92-2.29,1.52,1.52,0,0,0-2.06.54,1.54,1.54,0,0,0,.54,2.05Z"/><path class="cls-2" d="M188,58.92a47.65,47.65,0,0,0-27.61-12.05,1.51,1.51,0,0,0-1.29,2.26,40.13,40.13,0,0,0,14.28,14.74,38.73,38.73,0,0,0,4.53,2.33c1.61.69,3.3,1.33,5.07.89,3.05-.75,4.35-4.08,5.1-6.79a1.5,1.5,0,0,0-2.89-.8c-.55,2-1.49,5.22-4.17,4.66s-5.5-2.4-7.78-3.93a37.16,37.16,0,0,1-11.55-12.62l-1.3,2.26A44.28,44.28,0,0,1,185.88,61c1.43,1.29,3.56-.83,2.12-2.12Z"/><path class="cls-2" d="M189.18,62.28c.36-1.05,1.82-1.14,2.73-.93,1.68.38,2.73,2,3.56,3.42,1.91,3.19,4.09,7.1,8.36,7l-1.3-2.26A9.37,9.37,0,0,1,184.83,65c0-1.93-3-1.93-3,0a12.37,12.37,0,0,0,23.29,6.1,1.51,1.51,0,0,0-1.29-2.25c-2.1,0-3.56-1.85-4.56-3.49-1.13-1.85-2.1-3.9-3.76-5.34-2.75-2.4-7.87-2.51-9.22,1.49-.62,1.83,2.28,2.62,2.89.8Z"/><path class="cls-2" d="M180.84,64.35a2.89,2.89,0,0,0,4.55-1c1-2-.5-4-2.16-5.08-2.07-1.36-4.34-2.47-6.5-3.68l-7-3.94A1.5,1.5,0,0,0,167.88,53,64.89,64.89,0,0,0,181.35,63l1.16-2.74A18.51,18.51,0,0,1,175.62,56c-1.39-1.36-3.4.69-2.12,2.12l5.62,6.32L180.93,62a32,32,0,0,1-14.37-13.41l-2.36,1.82L166.07,52l1.46-2.51-3-1.22c-1.35-.55-2.17,1.17-1.69,2.21a24.65,24.65,0,0,0,18,13.76c1.89.32,2.7-2.57.79-2.89a21.9,21.9,0,0,1-16.19-12.39l-1.7,2.2,3,1.23c1.37.55,2.59-1.59,1.46-2.51l-1.87-1.52A1.51,1.51,0,0,0,164,50.14a34.78,34.78,0,0,0,15.46,14.49,1.5,1.5,0,0,0,1.82-2.35L175.62,56l-2.12,2.12a22,22,0,0,0,8.21,5.08c1.62.57,2.62-1.92,1.16-2.74A61.6,61.6,0,0,1,170,50.83l-1.82,2.36,9.44,5.29a46.36,46.36,0,0,1,4.22,2.41,3.31,3.31,0,0,1,.9,1s-.1.13-.09.15l-.06.08a.45.45,0,0,0,.38.11c-1.4-1.33-3.53.79-2.13,2.12Z"/><path class="cls-2" d="M184.75,62.79c1.53,3.16,3.5,6.24,6.48,8.22a10.09,10.09,0,0,0,10,.86,1.5,1.5,0,0,0-1.51-2.59c-2.38,1.19-5.29.38-7.32-1.12-2.32-1.71-3.81-4.35-5-6.89a1.52,1.52,0,0,0-2.05-.54,1.54,1.54,0,0,0-.54,2.06Z"/><path class="cls-2" d="M183.08,27.92a3.35,3.35,0,0,0-.54,3.88,1.55,1.55,0,0,0,1.7.69l3.71-.77-.8-2.89L182.82,30l1.46.39-.27-.26c-.19-.2.19.3.05.06l-.1-.16-.08-.17s.14.39.05.11c0-.13-.07-.27-.1-.4l.06.39a2.41,2.41,0,0,1,0-.6l0,.4a.77.77,0,0,1,0-.15L182,30.68,186,32.2A1.5,1.5,0,0,0,187.1,32a1.47,1.47,0,0,0,.69-.89,1.51,1.51,0,0,0-.15-1.16,1.75,1.75,0,0,0-.89-.69l-3.95-1.52a1.5,1.5,0,0,0-1.84,1,3.88,3.88,0,0,0,.93,3.44,2.23,2.23,0,0,0,.27.26,1.65,1.65,0,0,0,1.61.34L188,31.72A1.52,1.52,0,0,0,189,29.87a1.54,1.54,0,0,0-1.85-1l-3.71.76,1.69.69c-.12-.24.13.38,0,0a1.83,1.83,0,0,1-.06-.25l.06.4a2.26,2.26,0,0,1,0-.52l-.06.4c0-.07,0-.14.05-.22s0-.09,0-.14c-.1.23-.12.3-.07.19l.1-.19q.1-.15-.12.15l.1-.11a1.5,1.5,0,0,0-2.12-2.12Z"/><path class="cls-2" d="M179.74,27.32l10,4.07V28.5l-10.66,3.63L180.92,34a22.24,22.24,0,0,0,.22-8.37,1.51,1.51,0,0,0-2.89,0,26.1,26.1,0,0,0,0,8.64,1.51,1.51,0,0,0,1.85,1,1.53,1.53,0,0,0,1-1.85,21.88,21.88,0,0,1,0-7h-2.89a18.14,18.14,0,0,1-.22,6.77A1.51,1.51,0,0,0,179.88,35l10.66-3.63a1.5,1.5,0,0,0,0-2.89l-10-4.07a1.51,1.51,0,0,0-1.85,1,1.55,1.55,0,0,0,1.05,1.85Z"/><path class="cls-2" d="M139.68,23.51a13,13,0,0,0-8.24,18.06,12.82,12.82,0,0,0,1.81,2.9c.82,1,2,1.74,2.75,2.8,1.6,2.28-3.8,3.18-5,3.86a9.73,9.73,0,0,0-4.15,5,23.71,23.71,0,0,0-1.48,6.76c-.24,2.36-.39,5.2,2.23,6.26a14.9,14.9,0,0,0,4.05.64l5.15.56,9.8,1,4.66.51c1.56.16,3.37.63,4.92.28,2.58-.58,3.18-3.14,3.13-5.44-.1-4.4-1-9.78-5.74-11.39-2.29-.77-5.2-.15-7-2-1.24-1.25-2-3.63-1.17-5.3.26-.51-.35.23.31-.32.29-.23.6-.42.89-.65a13,13,0,0,0,1.58-1.47,13.87,13.87,0,0,0,2.21-3.31,13.72,13.72,0,0,0,1.22-8,13.8,13.8,0,0,0-10.5-11c-1.88-.42-2.69,2.47-.8,2.89a10.87,10.87,0,0,1,8.32,8.41,10.34,10.34,0,0,1-.83,6.22,12.34,12.34,0,0,1-4.21,4.74c-1.52,1.14-1.65,3.8-1.38,5.51a8.14,8.14,0,0,0,2.69,4.84c1.84,1.56,4,1.67,6.32,2a4.9,4.9,0,0,1,4.37,3.53,17.79,17.79,0,0,1,.76,5.81c0,.8,0,1.85-.92,2a6.91,6.91,0,0,1-1.92-.14L151,68.86,133.33,67c-1.31-.14-2.66-.21-4-.43s-1.21-1.15-1.14-2.31a25.79,25.79,0,0,1,1-6,7.37,7.37,0,0,1,3.25-4.45c2.1-1.15,4.61-1.19,6.09-3.34s.38-4.55-1.4-6.2a11.3,11.3,0,0,1-3.8-6.3,10.18,10.18,0,0,1,7.1-11.48c1.84-.56,1.05-3.45-.8-2.89Z"/><path class="cls-2" d="M138.19,71.56v8.87a1.5,1.5,0,0,0,3,0V71.56a1.5,1.5,0,0,0-3,0Z"/><path class="cls-2" d="M142.18,72V82.2a1.5,1.5,0,0,0,3,0V72a1.5,1.5,0,1,0-3,0Z"/><path class="cls-2" d="M138.79,75.35c-3.93-.14-8.65.49-10.28,4.68s2.17,7.63,5.87,8.57a42.64,42.64,0,0,0,7,.89,58.92,58.92,0,0,0,6.64.31,7.6,7.6,0,0,0,5-1.73,5.19,5.19,0,0,0,1.35-5c-1.13-4.9-6.42-5.8-10.67-6.08-1.92-.12-1.92,2.88,0,3a13.4,13.4,0,0,1,5.64,1.15,3.89,3.89,0,0,1,2.2,3.51c-.15,1.68-2,2.08-3.4,2.15a49.25,49.25,0,0,1-5.95-.24,51,51,0,0,1-6.3-.67c-1.8-.35-3.87-1.08-4.63-2.93A3.09,3.09,0,0,1,133,79.24c1.72-1,3.9-1,5.84-.89s1.93-2.92,0-3Z"/></g></g></svg>