<svg xmlns="http://www.w3.org/2000/svg" viewBox="0 0 427.43 147.53"><defs><style>.cls-1{fill:#23854b;}.cls-2{fill:#fff;}</style></defs><g id="Layer_2" data-name="Layer 2"><g id="Layer_2-2" data-name="Layer 2"><path class="cls-1" d="M.18,22.34c.92,15.41,2,31.38,9.33,45A42.66,42.66,0,0,0,29,85.74a28.52,28.52,0,0,0,18.33,2c12.36-3,21-14.35,25.61-26.18,3.42-8.8,8.09-20.33,17.49-19.51,6.74.59,10.81,7.75,12.58,14.28,3.54,13,2.72,26.76,3.57,40.22s3.82,27.66,13.19,37.36c13.42,13.9,35.21,14.35,54.49,13.21,13.16-.79,26.45-1.9,39-6s24.38-11.47,31.57-22.52c10.79-16.59,9.4-38,7.55-57.69-.5-5.33-1-10.87.8-15.92s6.53-9.49,11.87-9.09c9.86.73,12.58,15.17,21.67,19.06,8.79,3.76,18.21-4.19,23-12.46s8.44-18.24,17-22.48c6.77-3.35,15-2.07,21.86,1.16s12.65,8.19,18.85,12.5c8.82,6.14,18.87,11.13,29.61,11.7s22.21-4,27.62-13.3S427,11.76,419.76,4.45A24.28,24.28,0,0,0,413.67,0H5.33C-.26,5.4-.28,14.46.18,22.34Z"/><path class="cls-2" d="M124.59,90.09c-.43-1.76.85-3.2,2.3-4a6.7,6.7,0,0,1,5.8-.16c4.45,1.65,7.78,5.36,12.41,6.69a10.1,10.1,0,0,0,6.71-.2,17.64,17.64,0,0,0,4.7-3.49c1.2-1.08,2.65-2.31,4.39-2.1A6.83,6.83,0,0,1,164.55,89c2.34,2.15,4.54,5,7.8,5.77,3.51.8,6.41-1.22,9-3.37,2.22-1.87,4.9-4.58,8.07-3.45a12.39,12.39,0,0,1,4.07,3,26.45,26.45,0,0,0,4.24,3.51c4.9,3,10,.43,14.68-1.74,2.28-1.07,5.16-2.34,7.71-1.5,1.94.63,3.79,2.56,3,4.7-.65,1.82,2.25,2.61,2.89.8,1.6-4.51-2.94-8.51-7.14-8.73-5.52-.3-9.74,4-15,4.79-4.59.67-7.13-3.21-10.31-5.74s-6.83-3.07-10.34-.88A39,39,0,0,0,179,89.43a9.54,9.54,0,0,1-4.31,2.44c-3.35.54-5.84-3.05-8-5-2.79-2.58-6.31-4.08-9.87-1.91-1.76,1.07-3.06,2.69-4.71,3.9a7.08,7.08,0,0,1-6.79.72c-5.36-1.81-9.21-6.84-15.14-7.21-4.56-.28-9.66,3.66-8.46,8.55.45,1.88,3.35,1.08,2.89-.79Z"/><path class="cls-2" d="M132.66,102.45c.28-2.32,4.29-1.84,5.72-1.31,3.2,1.17,5.81,3.79,9.43,3.69,3.4-.09,5.24-2.63,7.75-4.47,3-2.19,5.69,0,7.81,2.28,2.36,2.55,4.89,5.64,8.64,5.84,3.34.19,5.24-2.38,7.05-4.75a5.45,5.45,0,0,1,2.85-2.32c1.83-.39,3.61,1,4.84,2.17,2.39,2.3,4.37,5.47,7.86,6.18,4.38.89,7.69-2.21,11-4.5,1.47-1,3.37-2.2,5.24-1.81,1.48.31,3,1.69,2.36,3.27-.71,1.8,2.19,2.58,2.89.79,1.33-3.4-1.93-6.66-5.15-7.08-4.09-.52-7.22,2.71-10.33,4.77-1.62,1.07-3.58,2.12-5.58,1.58-1.73-.47-3-1.9-4.19-3.18-2.5-2.74-5.8-6.22-9.94-5-3.24.93-4.18,4.22-6.59,6.16-3.29,2.65-6.85-2.07-8.84-4.21-2.37-2.56-5.73-5.12-9.42-3.82a12.08,12.08,0,0,0-4,2.67c-1.18,1.06-2.43,2.31-4.1,2.45-2.1.19-4.12-1.17-5.88-2.14a13.61,13.61,0,0,0-5.21-1.91c-3.32-.35-6.82,1-7.25,4.68-.22,1.91,2.78,1.89,3,0Z"/><path class="cls-2" d="M121.69,74.22l19.38-21.86c2.72-3.07,5.37-6.61,8.88-8.83a7.65,7.65,0,0,1,9.93.62c3.29,2.67,5.92,6.31,8.68,9.5l4.84,5.58a39.42,39.42,0,0,0,4.42,4.8,7.5,7.5,0,0,0,4.94,2.08,5.23,5.23,0,0,0,4.22-2.8c.8-1.37,1.22-2.93,2.32-4.11A8.17,8.17,0,0,1,193,57c8.56-2.51,15,5.24,19.59,11.23a1.54,1.54,0,0,0,2,.54,1.51,1.51,0,0,0,.54-2.05c-4.63-6-10.07-12.74-18.26-13.15a12.91,12.91,0,0,0-9.19,3,11.7,11.7,0,0,0-2.73,4c-.77,1.66-1.71,3.17-3.72,2.2s-3.39-2.93-4.8-4.55l-4.83-5.57c-3-3.47-5.86-7.37-9.35-10.37-3-2.58-6.74-4.05-10.66-2.84-3.77,1.16-6.72,4.1-9.28,7-7.65,8.53-15.2,17.14-22.79,25.7-1.28,1.44.83,3.57,2.12,2.12Z"/><path class="cls-2" d="M140.92,54.74a3.08,3.08,0,0,1,3.92.28V52.9a7,7,0,0,0-2.06,7.18,7.26,7.26,0,0,0,6.08,5.27c6.89,1,11.44-5.55,11-11.86l-2.56,1.06c1.93,1.89,4.3,4,7.2,3.67,2.39-.27,4.61-2.09,4.52-4.64-.06-1.92-3.07-1.93-3,0,0,1.25-1.44,1.82-2.51,1.64-1.65-.28-2.95-1.68-4.09-2.79a1.52,1.52,0,0,0-2.56,1.06c.32,4.27-2,9.12-6.91,9a4.4,4.4,0,0,1-4.17-2.87A4.07,4.07,0,0,1,147,55a1.51,1.51,0,0,0,0-2.12,6.1,6.1,0,0,0-7.55-.75c-1.61,1.06-.11,3.66,1.51,2.59Z"/><path class="cls-2" d="M228.38,79.56c-5.51,2.52-11.12-2.86-12.52-7.81A25.53,25.53,0,0,1,215.61,61a39.3,39.3,0,0,1,2.13-8.61c.93-2.3,2.32-4.65,4.54-5.89a7,7,0,0,1,7.59.78c4.82,3.42,6.58,9.92,6.36,15.55a23.48,23.48,0,0,1-8,16.86c-1.47,1.27.66,3.38,2.12,2.13a26.42,26.42,0,0,0,8.82-17.92c.55-6.88-1.64-14.58-7.34-18.88a10.16,10.16,0,0,0-9.58-1.79,12.36,12.36,0,0,0-6.49,6.3,34.48,34.48,0,0,0-2.9,9.8,31.55,31.55,0,0,0-.11,12.36,15,15,0,0,0,6.58,9.5,11,11,0,0,0,10.57.94c1.75-.8.23-3.39-1.52-2.59Z"/><path class="cls-2" d="M222.72,71.22l2,24.6c.15,1.92,3.15,1.93,3,0l-2-24.6c-.15-1.91-3.16-1.93-3,0Z"/><path class="cls-2" d="M183.75,41.72a5.26,5.26,0,0,1,9.6-1.82,1.51,1.51,0,0,0,2.79-.75,5.41,5.41,0,0,1,10.33-2c.89,1.71,3.48.2,2.59-1.52a8.4,8.4,0,0,0-15.92,3.48l2.8-.76a8.2,8.2,0,0,0-15.08,2.53c-.42,1.88,2.48,2.69,2.89.8Z"/><path class="cls-2" d="M133.11,122c3-4.74,9.44-5.7,14.49-4.25,6.5,1.87,11.37,7.25,15.82,12a1.52,1.52,0,0,0,2.56-1.06,33,33,0,0,0-4.47-17.36,1.51,1.51,0,0,0-2.59,0c-3.12,5.6-6.87,12.68-13.35,14.92-4.67,1.62-11.61.41-13.16-5a1.5,1.5,0,0,0-2.89.8c1.92,6.66,9.82,9,16,7.34,7.82-2.09,12.36-10,16-16.57h-2.59A30.07,30.07,0,0,1,163,128.72l2.56-1.06c-5-5.38-10.65-11.38-18.12-13-6.19-1.38-13.37.26-16.9,5.88-1,1.64,1.56,3.15,2.59,1.51Z"/></g></g></svg>