<svg xmlns="http://www.w3.org/2000/svg" viewBox="0 0 484.4 159.43"><defs><style>.cls-1{fill:#757bab;}.cls-2{fill:#fff;}</style></defs><g id="Layer_2" data-name="Layer 2"><g id="Layer_2-2" data-name="Layer 2"><path class="cls-1" d="M9.61,7.05C.67,15.31-2.23,29.14,1.75,40.64S16,61,27.78,64.16a42.24,42.24,0,0,0,11.89,1.43A48.78,48.78,0,0,0,63,59c12-6.92,22.46-18.94,36.26-18.44,7.62.28,14.56,4.55,20.18,9.71S129.7,61.53,135.3,66.71a67.14,67.14,0,0,0,53.24,17.08,67,67,0,0,0,34.15-15c10-8.34,13.9-15.54,27.83-17.3,14.74-1.87,28.92,7.26,38.35,18.74s15.45,25.34,23.53,37.81c13.54,20.87,33.41,38,56.9,46.18s50.57,6.89,72.16-5.46c20.46-11.69,35-32.69,40.36-55.62s2-47.54-7.7-69C469.93,14.92,464.13,5.83,456,0H21.75A33.69,33.69,0,0,0,9.61,7.05Z"/><path class="cls-2" d="M423.46,50.78l23.09-.08a1.5,1.5,0,0,0,0-3l-23.09.08a1.5,1.5,0,0,0,0,3Z"/><path class="cls-2" d="M340.89,51.08l41.28-.15a1.5,1.5,0,0,0,0-3l-41.28.15a1.5,1.5,0,0,0,0,3Z"/><path class="cls-2" d="M339.67,49.25a158.77,158.77,0,0,0-13,37.53c-.39,1.88,2.5,2.69,2.9.8a155.33,155.33,0,0,1,12.73-36.82c.85-1.72-1.73-3.24-2.59-1.51Z"/><path class="cls-2" d="M339.17,51.11l10.62,37.25a1.5,1.5,0,0,0,2.89-.79L342.06,50.31a1.5,1.5,0,0,0-2.89.8Z"/><path class="cls-2" d="M322.27,90h35.91a1.5,1.5,0,0,0,0-3H322.27a1.5,1.5,0,0,0,0,3Z"/><path class="cls-2" d="M320.18,89.86a23.09,23.09,0,0,0,35.14,7.73,12.66,12.66,0,0,0,4.73-8.83c.16-1.92-2.84-1.91-3,0-.43,5.37-5.67,8.59-10.36,10A20,20,0,0,1,330,96.47a20.4,20.4,0,0,1-7.27-8.12c-.86-1.73-3.45-.21-2.59,1.51Z"/><path class="cls-2" d="M384.41,61.05,385,32.7c.07-3.11-.22-6.44,1.42-9.24.4-.7,1-1.58,1.91-1.63,1.37-.09,2.67,1.47,3.21,2.55a20,20,0,0,1,1.51,6.74,38.26,38.26,0,0,1-.06,7.79c-.2,1.92,2.8,1.91,3,0a37.72,37.72,0,0,0,0-8,26.67,26.67,0,0,0-1.43-7c-1.21-3.08-4.78-6.43-8.27-4.56-2.64,1.42-3.77,4.88-4.12,7.66a66.48,66.48,0,0,0-.23,6.92l-.17,8.21-.42,18.9c0,1.93,3,1.93,3,0Z"/><path class="cls-2" d="M396.52,38c-.3-3.31.11-6.65-.08-10a5,5,0,0,1,.78-3.63c.56-.68,1.63-1.34,2.5-.85,1.09.62,1.57,2.26,1.9,3.37a19,19,0,0,1,.72,4.1c.23,3.06,0,6.14.05,9.2a1.5,1.5,0,0,0,3,0c-.06-5.58.73-11.65-1.95-16.79-1.29-2.47-3.83-3.75-6.47-2.54s-3.65,4-3.56,6.68c.06,1.69.18,3.33.11,5a40.7,40.7,0,0,0,0,5.41c.17,1.91,3.18,1.93,3,0Z"/><path class="cls-2" d="M405.57,31.29A19.88,19.88,0,0,1,406,29c.05-.18.11-.37.17-.55l.1-.27c-.06.13-.05.12,0,0a6.19,6.19,0,0,1,.52-.9c-.2.29.11-.12.16-.17l.36-.34c.13-.11.13-.1,0,0l.2-.14c.07,0,.53-.25.18-.12l.47-.14c.17,0,.15,0,0,0l.23,0h.24c.17,0,.15,0-.06,0a1.12,1.12,0,0,1,.39.1c.37.12-.14-.1.12,0l.41.23a1.33,1.33,0,0,1,.19.14c-.14-.12-.15-.12,0,0l.34.34c.05.05.36.45.15.16l.27.4c.08.14.15.28.22.43-.17-.34.06.17.08.25a6.39,6.39,0,0,1,.26,1.15c0-.29,0,.29,0,.34s0,.4,0,.59c0,.81,0,1.6-.11,2.4a1.49,1.49,0,0,0,1.5,1.5,1.54,1.54,0,0,0,1.5-1.5c.22-2.86.21-6.13-2.14-8.18a5,5,0,0,0-4.14-1.28,5.45,5.45,0,0,0-3.46,2.43,11,11,0,0,0-1.49,4.67,1.54,1.54,0,0,0,1.05,1.84,1.51,1.51,0,0,0,1.84-1Z"/><path class="cls-2" d="M414.31,42.87a41.54,41.54,0,0,1-.29-10c.19-1.36.53-3.14,1.65-4.07,1.87-1.54,3.49,1,3.82,2.64a22.67,22.67,0,0,1,.2,4.12c0,1.65,0,3.3.06,4.94q0,4.83.1,9.65c0,3.22.08,6.43.15,9.65a69.91,69.91,0,0,1,0,7.66,16.43,16.43,0,0,1-1.87,6.7,11.57,11.57,0,0,1-5.5,4.77c-1.75.79-.23,3.38,1.52,2.59,4.89-2.22,7.74-6.61,8.58-11.83a44.49,44.49,0,0,0,.34-8.16c-.08-3.79-.14-7.59-.18-11.38,0-3.63-.07-7.25-.11-10.88,0-3.26.43-7.1-.84-10.18-1-2.45-3.68-4.42-6.41-3.56a6.26,6.26,0,0,0-3.77,4.11c-1.51,4.13-.86,8.92-.41,13.19.19,1.9,3.2,1.92,3,0Z"/><path class="cls-2" d="M411.68,80.56,412,130a1.5,1.5,0,0,0,3,0l-.28-49.44a1.5,1.5,0,0,0-3,0Z"/><path class="cls-2" d="M383.19,128.5l2.7-23.3,1.33-11.4.63-5.46c.19-1.6.65-3.41.28-5-.57-2.46-2.82-2.53-4.71-3.48-2.41-1.22-3.88-4.27-5.13-6.53a46.67,46.67,0,0,1-3.9-9.65,50.2,50.2,0,0,1-2.16-10.27,11.8,11.8,0,0,1,3.21-9.28,36.29,36.29,0,0,1,8-5.94,1.5,1.5,0,0,0-1.52-2.59c-4.93,3-10.36,6.54-12.14,12.37-1.08,3.54-.43,7.29.33,10.82a67,67,0,0,0,3,10.39,47.39,47.39,0,0,0,4.59,8.93,11.72,11.72,0,0,0,6.22,5.13c.58.19,1.18.26,1.35.9a6.47,6.47,0,0,1-.16,2.23l-.4,3.47-1.38,11.9-3.11,26.77c-.23,1.91,2.77,1.9,3,0Z"/><path class="cls-2" d="M445.25,49.08a158.61,158.61,0,0,0-13,37.53c-.4,1.89,2.49,2.69,2.89.8A155.25,155.25,0,0,1,447.84,50.6c.85-1.73-1.73-3.25-2.59-1.52Z"/><path class="cls-2" d="M444.75,50.94,455.37,88.2a1.5,1.5,0,0,0,2.89-.8L447.65,50.15a1.5,1.5,0,0,0-2.9.79Z"/><path class="cls-2" d="M427.85,89.88h35.91a1.5,1.5,0,0,0,0-3H427.85a1.5,1.5,0,0,0,0,3Z"/><path class="cls-2" d="M425.76,89.69a23.09,23.09,0,0,0,35.14,7.73,12.61,12.61,0,0,0,4.73-8.82c.16-1.93-2.84-1.92-3,0-.43,5.36-5.67,8.59-10.36,10a20,20,0,0,1-16.65-2.26,20.37,20.37,0,0,1-7.27-8.13c-.86-1.73-3.45-.21-2.59,1.51Z"/></g></g></svg>