<svg xmlns="http://www.w3.org/2000/svg" viewBox="0 0 453 158.21"><defs><style>.cls-1{fill:#913183;}.cls-2{fill:#fff;}</style></defs><g id="Layer_2" data-name="Layer 2"><g id="Layer_2-2" data-name="Layer 2"><path class="cls-1" d="M32.29,78a38.41,38.41,0,0,0,8.3-.61c11.88-2.07,23.32-8.49,35.46-8,17.24.7,30.82,15,39.58,29.9S130.65,131,143,143c23,22.33,65.19,19.63,85.12-5.44,10.38-13,14.55-29.79,20.45-45.37,5.1-13.45,16.32-38,33.08-36.2,13.9,1.52,23.67,21.56,39.34,19.21,17.32-2.61,23.4-29.68,40.9-30.46,8-.36,15,5.33,19.86,11.64S390.38,70,396.34,75.35c14.09,12.52,38.64,8.87,49.9-6.24C460.11,50.48,451.18,15.19,432.71,0h-416C-7.92,20.91-7.37,76.34,32.29,78Z"/><path class="cls-2" d="M176.5,85.73c-4.24-5.88-8.82-12.09-16-14.5a14.92,14.92,0,0,0-10.31,0,14.45,14.45,0,0,0-6.94,6.23c-3.75,6.49-2.77,14.25-.2,21a91,91,0,0,0,11.3,20.22c5.11,7.13,10.86,13.77,16.61,20.37,1.27,1.46,3.38-.67,2.12-2.12-9.19-10.55-18.48-21.26-24.74-33.88-3-6.1-5.88-13.33-4.07-20.21,1.53-5.8,6.24-10.24,12.52-9.44,7.8,1,12.83,7.92,17.09,13.82,1.11,1.56,3.72.06,2.59-1.51Z"/><path class="cls-2" d="M173.07,139.31a118.44,118.44,0,0,0,31.79-34.72,84.82,84.82,0,0,0,5.66-10.81c1.58-3.78,2.63-7.9,1.87-12-1.39-7.57-9.26-11.87-16.52-11-9.6,1.13-16.22,8.76-21.53,16.13-1.13,1.57,1.47,3.07,2.59,1.52,4.3-6,9.43-12.2,16.85-14.21,6.4-1.73,14.27,1.06,15.68,8.18.74,3.73-.53,7.68-2,11.07a89.83,89.83,0,0,1-5.15,9.63,114.73,114.73,0,0,1-30.72,33.65c-1.54,1.12-.05,3.73,1.52,2.59Z"/><path class="cls-2" d="M222.05,44c1.82-3.26,6.11-4.88,9.5-3a7.07,7.07,0,0,1,3,9.46,7.22,7.22,0,0,1-4.24,3.61c-2.25.7-4.66.66-6.87,1.52-4,1.54-6.41,5.22-8.51,8.75-2.2,3.68-5.57,9.23-10.72,7.94-1.87-.46-2.67,2.43-.79,2.9,5.41,1.35,9.82-2.6,12.56-6.82S220.91,59,226.4,57.87c2.64-.54,5.36-.68,7.63-2.31A10.64,10.64,0,0,0,238,50a10.06,10.06,0,0,0-18.55-7.48A1.5,1.5,0,0,0,222.05,44Z"/><path class="cls-2" d="M219.22,42.45c-1.18,2-2.88,4.85-5.36,5.42a3.86,3.86,0,0,1-3.51-1.26c-1.24-1.15-2.35-2.45-3.5-3.68L191.85,27a1.52,1.52,0,0,0-2.5.67c-2.18,6-4.14,12.72-2.39,19.11,1.37,5,5,9.56,10.17,10.85V54.72c-3.8.63-5,4.52-6.32,7.58-.69,1.65-1.62,3.15-3.45,3.62a7.13,7.13,0,0,1-5.26-1c-1.79-1-3-2.59-4.62-3.83-1.27-1-3.12-.14-4,.94a5.56,5.56,0,0,0,1.11,8A13.88,13.88,0,0,0,180,72.34c2,.48,4.05.89,5.52,2.39s3.47-.74,2.12-2.12c-2.53-2.58-6.07-2.69-9.27-3.85-1.24-.45-2.85-1.29-3.14-2.71-.17-.85.14-2.35,1.21-2.38l-1.06-.44c3.61,3.52,8.49,7.5,13.86,5.21,2.4-1,3.63-3.19,4.56-5.52.82-2.06,1.62-4.89,4.14-5.31,1.5-.25,1.37-2.55,0-2.89-4.43-1.11-7.27-5.17-8.24-9.46-1.28-5.64.65-11.55,2.56-16.82l-2.51.67c5.79,6.16,11.57,12.34,17.38,18.48,2.17,2.29,4.89,4.19,8.16,3,3-1.11,5-4,6.54-6.6a1.5,1.5,0,0,0-2.59-1.52Z"/><path class="cls-2" d="M203.17,38.67l3.06-13.25-2.74.35A93.37,93.37,0,0,1,215.13,47c.69,1.78,3.59,1,2.89-.8a95.72,95.72,0,0,0-11.94-22,1.52,1.52,0,0,0-2.74.36l-3.06,13.26c-.44,1.87,2.46,2.68,2.89.79Z"/><path class="cls-2" d="M237.49,47.29l8.41,1.58V46l-8.68,1.84a1.52,1.52,0,0,0-1.05,1.85A1.54,1.54,0,0,0,238,50.71l8.69-1.84a1.51,1.51,0,0,0,0-2.9l-8.41-1.57a1.5,1.5,0,1,0-.8,2.89Z"/><path class="cls-2" d="M243.17,61.11c.16-6.9.31-14.18,3.71-20.39,3-5.37,8.84-9.59,15.19-8,1.87.47,2.67-2.42.8-2.9-7.2-1.82-14.22,2.29-18,8.33-4.26,6.84-4.55,15.13-4.73,22.94,0,1.94,3,1.94,3,0Z"/><path class="cls-2" d="M258.57,28.59c.56-2,1-4.21.11-6.21a4.47,4.47,0,0,0-4.23-2.78,4.52,4.52,0,0,0-3.88,3.6,8.81,8.81,0,0,0,1.21,5.85c.95,1.71,2.61,3.32,4.71,3.18a1.5,1.5,0,1,0,0-3h-.4c.25,0,0,0-.1,0s-.32-.16-.12,0l-.39-.23c-.14-.09,0,0,0,0l-.15-.13a4,4,0,0,1-.29-.29c-.05-.05-.32-.38-.17-.18-.1-.13-.19-.27-.28-.41a7.3,7.3,0,0,1-.73-1.45c-.12-.32-.23-.65-.32-1,0-.17-.08-.33-.11-.5,0,0,0-.26,0-.14s0-.19,0-.22a4.34,4.34,0,0,1,0-.51c0-.17,0-.07,0,0s0-.14,0-.2a2.64,2.64,0,0,1,.12-.4c.05-.16,0,0,0,0l.12-.24.15-.24s.14-.18,0-.06.16-.15.21-.2,0,0,0,0l.17-.11c.09-.06.42-.17.17-.1.11,0,.38-.07.12-.06a2.67,2.67,0,0,1,.4,0c-.26,0,0,0,.12.05s.21.1.06,0,.09.06.11.08l.17.1s-.17-.14,0,0l.29.29.14.15s-.12-.17,0,0,.17.28.25.42.1.22,0,.07,0,.12,0,.14a4.14,4.14,0,0,1,.12.48,5.27,5.27,0,0,1,0,1.13,10.28,10.28,0,0,1-.17,1c-.1.44-.22.87-.34,1.31a1.5,1.5,0,0,0,2.89.8Z"/><path class="cls-2" d="M249.84,38.54l.29,0c-.07,0-.28,0,0,0l.5,0a8.68,8.68,0,0,1,1.14,0l.24,0,.56.1a10.57,10.57,0,0,1,1.1.31l.27.1.08,0c-.16-.06.12.06.15.07l.19.09a9.9,9.9,0,0,1,1,.57c.16.1.31.21.46.32-.2-.15.15.12.2.17a10.2,10.2,0,0,1,.82.79c.11.13.22.25.32.38-.15-.19,0,0,0,.05l.18.28c.11.2,0,.09.05-.07a.59.59,0,0,1,.12-.22c.08-.08.06-.07,0,0l.11-.1c-.13.07-.15,0,0,0l-.18,0c-.22,0,.25,0,0,0a2.09,2.09,0,0,0-.25,0l-.46,0-.28,0c.23,0,0,0-.08,0a7,7,0,0,1-1-.25c-.16,0-.31-.1-.46-.15l-.19-.08c.28.11-.13-.06-.15-.07a7,7,0,0,1-.85-.46,4.66,4.66,0,0,1-.47-.3l-.17-.12c-.13-.09.13.11-.08-.06s-.59-.52-.86-.8-.28-.31-.41-.47-.18-.22,0,0c-.05-.07-.1-.15-.16-.22a8.9,8.9,0,0,1-.64-1.07c0-.08-.23-.51-.13-.27-.09-.21-.16-.43-.23-.65a1.53,1.53,0,0,0-1.85-1,1.51,1.51,0,0,0-1,1.85A10.48,10.48,0,0,0,256,44.33,4.88,4.88,0,0,0,259.1,44a2.62,2.62,0,0,0,1-3.55,7.3,7.3,0,0,0-1.86-2.28,10.89,10.89,0,0,0-2.45-1.63,11,11,0,0,0-6.72-.91A1.49,1.49,0,0,0,248,37.49a1.53,1.53,0,0,0,1.84,1Z"/><path class="cls-2" d="M246.36,38.23a13.18,13.18,0,0,0-1.75-4.61c-.83-1.35-2.07-3.13-3.74-3.45a2.51,2.51,0,0,0-2.74,1.22,4.08,4.08,0,0,0-.18,2.8,9.91,9.91,0,0,0,6.11,7.13,1.51,1.51,0,0,0,1.85-1,1.55,1.55,0,0,0-1-1.84c-.07,0-.25-.12,0,0l-.16-.07-.37-.19a7.17,7.17,0,0,1-.75-.46c-.07,0-.39-.29-.13-.08l-.27-.22c-.22-.19-.43-.4-.64-.61l-.27-.31-.15-.18,0,0c.11.15,0,0,0,0l-.13-.2-.26-.39c-.14-.24-.27-.48-.39-.73s-.13-.32,0-.07c-.06-.15-.12-.3-.17-.44a7.27,7.27,0,0,1-.22-.8c0-.13-.06-.27-.08-.4a.62.62,0,0,1,0-.18c0,.19,0,.23,0,.12a.41.41,0,0,1,0-.11,1.7,1.7,0,0,0,0-.39c.05.05-.1.33,0,.08,0,0-.14.25-.05.11s-.08.09-.09.1a.66.66,0,0,1-.3.15c.14,0,.07,0,0,0s-.13,0,0,0l-.19,0,.16,0c.19,0-.2-.14,0,0s.4.28.15.07a6,6,0,0,1,.61.62l.3.36c.16.17-.12-.18,0,0l.12.16c.19.28.38.56.55.84s.36.62.52,1c.08.16.15.32.22.48s0,0,0,0l.12.31a12.08,12.08,0,0,1,.58,2.14,1.5,1.5,0,0,0,1.84,1,1.53,1.53,0,0,0,1.05-1.84Z"/><path class="cls-2" d="M264.89,32.48l.83-.68c.14-.11,0,0,0,0l.23-.17c.16-.12.31-.23.47-.33a9.71,9.71,0,0,1,.92-.55c.07,0,.46-.21.23-.12l.56-.19.43-.1c.28-.06,0,0,0,0l.25,0a3.38,3.38,0,0,1,.45,0h.18c.39,0-.17-.06,0,0l.42.1.24.08c-.28-.1-.08,0,0,0l.21.12s.21.13,0,0,0,0,.06.06.19.15.19.19-.16-.25-.07-.09.08.12.11.18a.64.64,0,0,1,.08.14c.15.24,0-.05,0-.07a1.39,1.39,0,0,1,.12.41c0,.07.09.16,0,0s0,0,0,.12,0,.43,0,.21,0,.15-.06.21c-.08.29,0-.09,0-.08s-.12.18-.1.18.26-.27,0-.05l-.17.16c.18-.19.11-.07,0,0l-.21.11.09,0-.23.07a2.71,2.71,0,0,1-.41.09c.06,0,.31,0,0,0h-.74l-.24,0s.25,0,.07,0a9.29,9.29,0,0,1-1-.22l-.56-.18L267.2,32c-.16-.06.19.09-.06,0a10.12,10.12,0,0,1-1-.52l-.49-.33s-.19-.14-.06,0-.12-.11-.15-.13a8.13,8.13,0,0,1-.84-.82,1.5,1.5,0,0,0-2.12,2.12A10,10,0,0,0,267,35.05c1.66.51,3.8.7,5.29-.38a3.87,3.87,0,0,0,1-5.05,4.8,4.8,0,0,0-4.78-2.27c-2.28.24-4,1.59-5.75,3a1.5,1.5,0,0,0,0,2.12,1.55,1.55,0,0,0,2.12,0Z"/></g></g></svg>