<svg xmlns="http://www.w3.org/2000/svg" viewBox="0 0 456.69 135.36"><defs><style>.cls-1{fill:#bfa775;}.cls-2{fill:#fff;}</style></defs><g id="Layer_2" data-name="Layer 2"><g id="Layer_2-2" data-name="Layer 2"><path class="cls-1" d="M0,25C0,55.22,19.67,84.15,47,96.57a72,72,0,0,0,12.25,4.3c38.36,9.63,81-10.2,117.55,4.9,15.69,6.48,28.42,18.83,44.18,25.12a64.56,64.56,0,0,0,50.92-1.59c18.11-8.57,31-25,44.25-40s28.75-30,48.46-33.61c13.46-2.5,27.22.59,40.85,1.83s28.66.14,38.87-9C457.23,37,457.63,17.65,456,0H7.75C1.79,6.63,0,16.09,0,25Z"/><path class="cls-2" d="M194.21,62.51l37.34-30c1.51-1.21-.63-3.33-2.12-2.13l-37.34,30c-1.5,1.21.63,3.32,2.12,2.12Z"/><path class="cls-2" d="M230.33,32.45q17.21,16,33.17,33.34c1.31,1.42,3.43-.7,2.12-2.12q-15.94-17.3-33.17-33.34c-1.41-1.31-3.54.8-2.12,2.12Z"/><path class="cls-2" d="M199.28,57.13V94.37a1.5,1.5,0,0,0,3,0V57.13a1.5,1.5,0,0,0-3,0Z"/><path class="cls-2" d="M256.1,58q-.63,21.53.75,43c.12,1.91,3.12,1.93,3,0q-1.38-21.48-.75-43c.06-1.93-2.94-1.92-3,0Z"/><path class="cls-2" d="M259.3,99.81a431.67,431.67,0,0,1-59-1.42c-1.92-.18-1.91,2.83,0,3a431.67,431.67,0,0,0,59,1.42c1.92-.08,1.93-3.08,0-3Z"/><path class="cls-2" d="M199.28,93.48v6.21a1.51,1.51,0,0,0,1.5,1.5,1.53,1.53,0,0,0,1.5-1.5V93.48a1.5,1.5,0,1,0-3,0Z"/><path class="cls-2" d="M211.18,58.89a43.86,43.86,0,0,0,.61,12.37,1.51,1.51,0,0,0,1.84,1,1.53,1.53,0,0,0,1.05-1.85,41.18,41.18,0,0,1-.5-11.57,1.5,1.5,0,0,0-1.5-1.5,1.54,1.54,0,0,0-1.5,1.5Z"/><path class="cls-2" d="M214.09,59.88l6.65.43a1.5,1.5,0,0,0,0-3l-6.65-.43a1.5,1.5,0,0,0-1.5,1.5,1.53,1.53,0,0,0,1.5,1.5Z"/><path class="cls-2" d="M219.57,58.9l-.41,12.41c-.06,1.93,2.94,1.93,3,0l.41-12.41c.06-1.94-2.94-1.93-3,0Z"/><path class="cls-2" d="M214.08,72.81h5.32a1.5,1.5,0,1,0,0-3h-5.32a1.5,1.5,0,1,0,0,3Z"/><path class="cls-2" d="M234.75,59.34V70.43a1.5,1.5,0,0,0,3,0V59.34a1.5,1.5,0,0,0-3,0Z"/><path class="cls-2" d="M236.25,60h8a1.5,1.5,0,0,0,0-3h-8a1.5,1.5,0,0,0,0,3Z"/><path class="cls-2" d="M242.73,58.46v13.3a1.5,1.5,0,0,0,3,0V58.46a1.5,1.5,0,0,0-3,0Z"/><path class="cls-2" d="M237.58,72.81h5.32a1.5,1.5,0,1,0,0-3h-5.32a1.5,1.5,0,1,0,0,3Z"/><path class="cls-2" d="M211.89,78.86l.64,19.5c.06,1.93,3.06,1.94,3,0l-.64-19.5c-.06-1.93-3.06-1.93-3,0Z"/><path class="cls-2" d="M214.53,80.77l12.41.32c1.94,0,1.93-3,0-3l-12.41-.32c-1.93,0-1.93,3,0,3Z"/><path class="cls-2" d="M225.58,79.74l0,20.84a1.5,1.5,0,0,0,3,0l0-20.84a1.5,1.5,0,0,0-3,0Z"/><path class="cls-2" d="M253.23,47.65a6.38,6.38,0,0,1,3.7-8.33c3.76-1.2,8,2.62,7.52,6.49A1.51,1.51,0,0,0,267.19,47a8.07,8.07,0,0,1,13.55,0,7.79,7.79,0,0,1,.56,7.6A8.43,8.43,0,0,1,275,59.21l.4,2.95C280.46,60.84,287,60.82,290,66a5.5,5.5,0,0,1,0,6.1c-1.16,1.57-3.41,2.77-5.34,1.91-1.21-.55-3,.69-2.05,2,2.09,2.93,2.29,7.55-1.45,9.27-3,1.39-6.57-1.36-5.19-4.64l-2.89-.8a9.2,9.2,0,0,1-14.32,4.39c-1.5-1.18-3.63.93-2.12,2.13a12.08,12.08,0,0,0,19.33-5.72c.62-1.89-2.17-2.52-2.89-.8a6.51,6.51,0,0,0,1.5,6.86,6.71,6.71,0,0,0,7.11,1.59c5.79-2,6.83-9.14,3.51-13.8l-2.05,2.06a7.48,7.48,0,0,0,8.46-1.78,8.2,8.2,0,0,0,1.79-8.68,11.81,11.81,0,0,0-6.94-6.81c-3.79-1.45-8-1-11.86,0-1.58.41-1.32,3.15.4,2.94,7.94-1,12.73-9.8,8.36-16.77a10.82,10.82,0,0,0-9.25-5.22,11.49,11.49,0,0,0-9.48,5.23l2.74,1.16c.79-5.83-4.57-11.64-10.6-10.34-5.13,1.11-8.44,7.33-6.4,12.18a1.55,1.55,0,0,0,1.84,1,1.51,1.51,0,0,0,1-1.85Z"/><path class="cls-2" d="M266.45,73.08l-.3,24.84a1.5,1.5,0,0,0,3,0l.3-24.84a1.5,1.5,0,0,0-3,0Z"/></g></g></svg>