<svg xmlns="http://www.w3.org/2000/svg" viewBox="0 0 467.14 165.58"><defs><style>.cls-1{fill:#116e7b;}.cls-2{fill:#fff;}</style></defs><g id="Layer_2" data-name="Layer 2"><g id="Layer_2-2" data-name="Layer 2"><path class="cls-1" d="M13.33.83C-2,9.92-2.79,25,4.38,40c8.82,18.5,26,35.17,45.92,36.48a37.18,37.18,0,0,0,5.38,0C74.56,75.07,91.24,60,110.07,61.94,123,63.28,133.8,72.58,141.2,83.23s12.22,22.87,18.83,34c12.69,21.46,32.8,39.18,56.86,45.73s51.93.65,69-17.49c20.95-22.22,22.11-55.77,26.9-85.93,1.11-7,2.62-14.22,7.1-19.67s12.86-8.34,18.82-4.57c12.09,7.66,3.69,32.32,17.17,37.12,4.88,1.73,10.49-.68,13.86-4.61s4.91-9.09,6-14.16c1.15-5.3,2-10.87,5-15.39s9-7.61,13.95-5.32c3.17,1.47,5.08,4.72,6.62,7.85,4,8.08,6.83,16.73,11.55,24.39s11.84,14.49,20.71,16.05c14.57,2.56,28.19-10.46,31.75-24.82,4.59-18.47,1-46.5-17.06-56.44H14.85C14.34.26,13.83.53,13.33.83Z"/><path class="cls-2" d="M175.35,63.66c4.39,8.54,12.92,15.88,22.91,16,9.12.16,18.42-5.94,19.83-15.34,1-6.74-1.63-13.27-4.21-19.36a1.5,1.5,0,0,0-2-.53,1.54,1.54,0,0,0-.54,2.05c2.06,4.87,4.2,10.07,4,15.45a14.28,14.28,0,0,1-5.38,10.78c-6.59,5.36-15.68,4.86-22.52.32a28.84,28.84,0,0,1-9.48-10.93c-.88-1.72-3.47-.2-2.59,1.51Z"/><path class="cls-2" d="M210.7,38.7a6.49,6.49,0,0,0-4.53,5.15,6.19,6.19,0,0,0,3,6.3,6.1,6.1,0,0,0,7-.48,6.31,6.31,0,0,0,2.2-6.6,6.53,6.53,0,0,0-6.32-4.58,1.5,1.5,0,0,0,0,3c.23,0,.44,0,.67,0-.29,0-.07,0,0,0l.32.07c.09,0,.6.21.33.1a3.64,3.64,0,0,1,.65.34l.28.19c-.05,0-.2-.18,0,0s.33.3.48.47a1.63,1.63,0,0,1,.17.2c-.16-.2,0,0,0,0a5.85,5.85,0,0,1,.38.63c0,.07.12.34,0,.07a2.41,2.41,0,0,1,.08.25,2,2,0,0,1,.09.33c0,.07.06.37,0,.06a3.89,3.89,0,0,1,0,.59l0,.33c0-.27,0,0,0,.12a4.67,4.67,0,0,1-.14.5c0,.05-.19.43,0,.13l-.12.23a4.33,4.33,0,0,1-.31.51c0,.06-.22.28,0,.07-.09.1-.17.2-.26.29a5.62,5.62,0,0,1-.44.41c-.19.15.29-.17-.06,0l-.22.14a2.69,2.69,0,0,1-.29.16c-.06,0-.33.15-.06,0A4.44,4.44,0,0,1,213,48s-.42.07-.19,0h-.2a4.56,4.56,0,0,1-.52,0c-.4,0,.18.06,0,0L211.7,48a4.21,4.21,0,0,1-.63-.2c.28.11,0,0-.06,0l-.29-.16-.22-.14-.17-.12-.15-.13L210,47l-.18-.2a1.63,1.63,0,0,1-.17-.2c.08.12.1.13,0,0a5.33,5.33,0,0,1-.31-.51l-.12-.23c.13.27,0,0,0-.07a4,4,0,0,1-.15-.57c-.09-.39,0,.18,0,0s0-.26,0-.39,0-.21,0-.32c0-.4-.07.29,0-.11a6.29,6.29,0,0,1,.17-.62s.14-.39.06-.19.12-.24.15-.28a5.07,5.07,0,0,1,.34-.55c.16-.24,0,0,0,0l.31-.33c.07-.08.16-.15.23-.22s-.18.1.1-.09a6.16,6.16,0,0,1,.55-.33s.38-.16.17-.09.27-.07.31-.09a1.51,1.51,0,0,0,1-1.84,1.52,1.52,0,0,0-1.84-1Z"/><path class="cls-2" d="M173.3,56.85a7,7,0,0,0-3.42,6.68A6.66,6.66,0,0,0,175,69.29a6.59,6.59,0,0,0,7.14-2.78,6.8,6.8,0,0,0,0-7.49,7,7,0,0,0-8.11-2.52,1.54,1.54,0,0,0-1,1.85,1.5,1.5,0,0,0,1.84,1,5.93,5.93,0,0,1,.71-.24l.36-.08c.37-.07-.18,0,0,0s.46,0,.68,0l.37,0c-.37,0,.08,0,.16,0a5.39,5.39,0,0,1,.66.18s.43.18.11,0l.33.17a3.65,3.65,0,0,1,.54.32c.05,0,.36.28.1.06l.32.29.22.22s.29.36.08.08a4.18,4.18,0,0,1,.4.63,2.26,2.26,0,0,1,.11.22c-.15-.31,0,.05,0,.11s.07.24.1.36.11.6.06.21c0,.21,0,.41,0,.62s0,.25,0,.37-.07.47,0,.1c0,.21-.08.41-.13.61s-.07.24-.11.36l-.09.23c.07-.16.07-.17,0,0a5.77,5.77,0,0,1-.29.55l-.21.31c-.22.33.2-.2-.07.09s-.28.31-.43.45-.36.29-.08.08a4.94,4.94,0,0,1-.42.27l-.27.15c-.07,0-.34.14,0,0a6,6,0,0,1-.72.22l-.16,0c.23,0-.17,0-.18,0a8.45,8.45,0,0,1-.87,0c-.38,0,.19.07,0,0s-.21,0-.31-.06a6.52,6.52,0,0,1-.72-.21c-.38-.13.26.14-.1,0l-.22-.12a5.09,5.09,0,0,1-.74-.46c.28.21,0,0-.08-.08l-.18-.17-.26-.28c-.27-.28.15.25-.07-.08-.11-.18-.22-.35-.32-.54s-.17-.43,0-.1a3.68,3.68,0,0,1-.15-.47c0-.12-.06-.24-.09-.36-.09-.39,0,.3,0-.1a6.3,6.3,0,0,1,0-.87s0-.41,0-.17,0-.25.06-.29a8.16,8.16,0,0,1,.26-.84c-.09.28,0,.08,0,0l.23-.45.2-.31.15-.2c-.11.13-.11.14,0,0s.34-.36.52-.53-.24.14.09-.07c.15-.08.28-.18.43-.26a1.51,1.51,0,0,0,.54-2,1.53,1.53,0,0,0-2-.54Z"/><path class="cls-2" d="M207.62,75.29c-1.17,2.32-2.34,5.12-1.57,7.75a5.51,5.51,0,0,0,4.89,3.82c2.07.23,4.11-.35,6.15-.6,1.81-.22,4.29-.23,4.58,2.12.35,2.83-2.14,5-3.78,6.94-1.78,2.1-3.26,4.62-2.88,7.48a5.65,5.65,0,0,0,4.67,4.79c2.31.47,4.81-.09,7.06.65,2.47.81,3.21,3.74,2.71,6.05-.71,3.25-3.45,5.67-5.78,7.84-1.42,1.31.71,3.43,2.12,2.12,3.89-3.62,8.23-8.39,6.38-14.16a7.07,7.07,0,0,0-4.94-4.83c-2.32-.61-4.75-.07-7-.63-2.72-.66-2.58-3.5-1.38-5.53,1.51-2.58,4.09-4.34,5.24-7.17,1-2.39,1-5.41-1.07-7.27-1.61-1.47-3.82-1.64-5.88-1.4s-4.61,1.16-6.63.48c-3-1-1.19-5.07-.25-6.94.86-1.72-1.73-3.24-2.59-1.51Z"/><path class="cls-2" d="M225.57,122.87a9.46,9.46,0,0,0-3.45-2.9,4.71,4.71,0,0,0-4.23.21c-3.1,1.95-1.41,6.22-.21,8.81s3.34,5.83,6.43,6.51,5.56-1.6,5.92-4.6c.42-3.42-2.07-6.06-4.4-8.2a1.5,1.5,0,1,0-2.12,2.12c1.44,1.32,3.2,2.82,3.55,4.86,0-.21,0,0,0,.08s0,.22,0,.33,0,.44,0,.65c0-.2,0,.06,0,.08s-.05.21-.08.32a1.23,1.23,0,0,1-.2.52c-.05.09-.1.18-.16.27s-.17.22,0,.07c-.07.08-.39.38-.26.28a1.43,1.43,0,0,1-.86.35c-1.92.17-3.52-2.18-4.4-3.7a17,17,0,0,1-1.41-3.14c-.26-.78-.77-2-.4-2.79.11-.25-.08.07.06-.1s.27-.23.13-.13a1.17,1.17,0,0,1,.55-.2c-.07,0-.23,0,.1,0a2,2,0,0,1,.42,0,2.49,2.49,0,0,1,.5.14,7.64,7.64,0,0,1,2.47,2.28,1.52,1.52,0,0,0,2.12,0,1.54,1.54,0,0,0,0-2.13Z"/><path class="cls-2" d="M258.46,89l.32-10a1.5,1.5,0,0,0-1.5-1.5,1.53,1.53,0,0,0-1.5,1.5l-.32,10a1.5,1.5,0,0,0,1.5,1.5,1.53,1.53,0,0,0,1.5-1.5Z"/><path class="cls-2" d="M242.16,80.41l0,9.8a1.52,1.52,0,0,0,1.5,1.5l12.92-.33c1.92,0,1.93-3,0-3l-12.92.33,1.5,1.5,0-9.8a1.5,1.5,0,0,0-3,0Z"/><path class="cls-2" d="M243.93,78.23l-12.64-.29c-1.93,0-1.93,3,0,3l12.64.29c1.93,0,1.93-3,0-3Z"/><path class="cls-2" d="M258.23,80.16l10.31.34a1.5,1.5,0,0,0,0-3l-10.31-.34a1.5,1.5,0,0,0,0,3Z"/><path class="cls-2" d="M270.09,78.66l-.2-12.3c0-1.93-3-1.94-3,0l.2,12.3c0,1.93,3,1.94,3,0Z"/><path class="cls-2" d="M267.87,63.86H257.56a1.5,1.5,0,0,0,0,3h10.31a1.5,1.5,0,0,0,0-3Z"/><path class="cls-2" d="M258.31,65.36,257.83,56a1.5,1.5,0,1,0-3,0l.48,9.32a1.5,1.5,0,1,0,3,0Z"/><path class="cls-2" d="M256.24,54.5l-12.31-.33c-1.93-.05-1.93,2.95,0,3l12.31.33c1.93,0,1.93-3,0-3Z"/><path class="cls-2" d="M245.43,66.69c.17-3.66,0-7.33,0-11a1.5,1.5,0,0,0-3,0c0,3.66.12,7.33,0,11a1.5,1.5,0,0,0,3,0Z"/><path class="cls-2" d="M243.59,65.91,232,65.57a1.5,1.5,0,1,0,0,3l11.63.34a1.5,1.5,0,0,0,0-3Z"/><path class="cls-2" d="M233,78.32l.16-11.3a1.5,1.5,0,0,0-3,0L230,78.32c0,1.93,3,1.93,3,0Z"/></g></g></svg>