<svg xmlns="http://www.w3.org/2000/svg" viewBox="0 0 444.71 124.68"><defs><style>.cls-1{fill:#699b4b;}.cls-2{fill:#fff;}</style></defs><g id="Layer_2" data-name="Layer 2"><g id="Layer_2-2" data-name="Layer 2"><path class="cls-1" d="M.43,12.37c-2.28,19.77,4.9,41.18,12.75,59.05.12.26.23.51.34.77a89.19,89.19,0,0,0,24.37,32.32c10.16,8.31,22.22,13.86,35.32,14.76,17.92,1.22,35.15-6.13,52-12.27s35.53-11.19,52.56-5.46c14.92,5,26.49,17.72,41.7,21.77,14.58,3.88,30.28-.94,43.1-8.89s23.51-18.83,35-28.61c19-16.19,41.87-29.92,66.84-30.49C380.3,55,396,59.93,411.83,58.73s33.1-12.07,32.88-27.93C444.49,15.24,428.34,5.23,413.63,0H3.6A45.21,45.21,0,0,0,.43,12.37Z"/><path class="cls-2" d="M122.11,87.74h94.43a1.5,1.5,0,0,0,0-3H122.11a1.5,1.5,0,0,0,0,3Z"/><path class="cls-2" d="M140.28,36.83A10.73,10.73,0,0,0,132,31.38a10.08,10.08,0,0,0-9.08,4.11,10.38,10.38,0,0,0,6.19,16.26l.8-2.89c-4-.64-8.22-.14-11.51,2.39a10.55,10.55,0,0,0-4.32,9.32,8.74,8.74,0,0,0,6,7.57,7.79,7.79,0,0,0,8.62-3.2l-2.59-1.52c-3,6.1,1.27,13.51,8.22,13.45s11.09-7.51,8-13.57c-.78-1.54-3.17-.46-2.74,1.16a9.62,9.62,0,0,0,15.25,4.91c5.63-4.31,5.52-12.69.6-17.52a14.52,14.52,0,0,0-11.05-3.92l.4,2.94c6.87-1.51,12-8.84,8.27-15.55a8,8,0,0,0-7.91-4.24,7.83,7.83,0,0,0-6.78,5.42,1.5,1.5,0,0,0,2.89.8,4.84,4.84,0,0,1,4.5-3.28,5.24,5.24,0,0,1,5,3.41c2.13,5-2.09,9.52-6.77,10.55a1.51,1.51,0,0,0,.39,3,11.49,11.49,0,0,1,9.33,3.45,9.17,9.17,0,0,1,2,9,7.67,7.67,0,0,1-6.7,5.1,6.67,6.67,0,0,1-6.53-4.82l-2.74,1.15a6.19,6.19,0,1,1-11,.13,1.5,1.5,0,0,0-2.59-1.52,4.75,4.75,0,0,1-5.69,1.67A6,6,0,0,1,117,59.52c.06-6.09,7-8.58,12.1-7.77,1.87.3,2.71-2.49.8-2.89a7.31,7.31,0,1,1,7.76-10.52c.93,1.7,3.52.19,2.59-1.51Z"/><path class="cls-2" d="M134.88,56.87l.47,28.69c0,1.93,3,1.93,3,0l-.47-28.69c0-1.93-3-1.93-3,0Z"/><path class="cls-2" d="M168.2,47.55,161,71.83c-.35,1.21.78,2,1.85,1.84A177.35,177.35,0,0,1,207,73c1.92.21,1.9-2.8,0-3a179.94,179.94,0,0,0-45,.83l1.85,1.85,7.16-24.28c.55-1.86-2.35-2.65-2.89-.8Z"/><path class="cls-2" d="M169.78,49.4l34.15.56-1.45-1.1,4.61,23.29c.37,1.89,3.27,1.09,2.89-.8l-4.6-23.29a1.53,1.53,0,0,0-1.45-1.1l-34.15-.56c-1.93,0-1.93,3,0,3Z"/><path class="cls-2" d="M185.45,70.87V86a1.5,1.5,0,0,0,3,0V70.87a1.5,1.5,0,0,0-3,0Z"/><path class="cls-2" d="M167.07,60.54l38.18.45a1.5,1.5,0,0,0,0-3l-38.18-.45c-1.93,0-1.93,3,0,3Z"/><path class="cls-2" d="M179,48.57a95,95,0,0,0-1.74,20.94c.06,1.93,3.06,1.94,3,0a92,92,0,0,1,1.63-20.14c.37-1.89-2.52-2.7-2.89-.8Z"/><path class="cls-2" d="M191.67,49.64a85.6,85.6,0,0,1,4.91,19.87,1.55,1.55,0,0,0,1.5,1.5,1.5,1.5,0,0,0,1.5-1.5,88.55,88.55,0,0,0-5-20.66c-.68-1.79-3.58-1-2.9.79Z"/><path class="cls-2" d="M185.14,24.58a1,1,0,0,1,.24,0s-.41-.08-.17,0l.37.1c.12,0,.16.13-.14-.06a.61.61,0,0,0,.14.07l.2.12c.12.08.21.24-.05,0,.08.09.18.16.26.24l.13.14c.09.09.08.18-.08-.12a3.7,3.7,0,0,0,.21.33s.05.09.07.14c.13.25-.11-.33,0-.07s.07.25.1.37,0-.17,0-.17a.66.66,0,0,1,0,.2c0,.12,0,.23,0,.35,0-.38,0-.28,0-.13a2,2,0,0,1-.07.26l-.06.15c.13-.39.11-.24.06-.15l-.2.34c-.13.2.09-.11.09-.12a.84.84,0,0,1-.15.18l-.29.27c.27-.27.2-.15.09-.07l-.17.1c-.06,0-.42.21-.17.1s-.11,0-.18,0l-.19,0c-.16,0,.42,0,.09,0-.12,0-.24,0-.36,0-.28,0,.32.06.13,0l-.19,0c-.07,0-.45-.17-.18-.06s0,0,0,0l-.21-.12a.54.54,0,0,0-.12-.09l.17.14-.11-.1-.23-.22c-.1-.11-.14-.28,0,.06a1,1,0,0,1-.09-.13,3.47,3.47,0,0,1-.21-.37c-.09-.17.12.38,0,.1a.78.78,0,0,0,0-.14c0-.07,0-.13,0-.19s0-.23,0,.13c0-.12,0-.24,0-.35a.68.68,0,0,1,0-.2l0,.25,0-.16c0-.12.08-.24.12-.36-.1.38-.09.2,0,.07a1.06,1.06,0,0,1,.12-.2,1.48,1.48,0,0,0,.08-.13c-.21.36-.12.16,0,.06a1.48,1.48,0,0,1,.33-.33s-.31.23-.11.1l.19-.13a1.51,1.51,0,0,1,.18-.09c.28-.15-.22.07-.08,0l.41-.12c.24-.06-.17,0-.17,0a.85.85,0,0,1,.32,0,1.52,1.52,0,0,0,1.5-1.5,1.54,1.54,0,0,0-1.5-1.5A4.49,4.49,0,0,0,181,24.52a4.21,4.21,0,0,0,1.24,4.55,4.53,4.53,0,0,0,2.54,1.1,4.07,4.07,0,0,0,2.4-.58,4.35,4.35,0,0,0,2.1-4.52,4.44,4.44,0,0,0-4.16-3.49,1.52,1.52,0,0,0-1.5,1.5,1.54,1.54,0,0,0,1.5,1.5Z"/><path class="cls-2" d="M180.26,14.13,181.39,18a1.59,1.59,0,0,0,.69.9,1.52,1.52,0,0,0,1.16.15,1.54,1.54,0,0,0,1-1.85l-1.13-3.84a1.57,1.57,0,0,0-.69-.89,1.5,1.5,0,0,0-2.21,1.69Z"/><path class="cls-2" d="M176.14,22.33l-7.9-.47a1.5,1.5,0,0,0-1.5,1.5,1.53,1.53,0,0,0,1.5,1.5l7.9.47a1.5,1.5,0,0,0,1.5-1.5,1.54,1.54,0,0,0-1.5-1.5Z"/><path class="cls-2" d="M178.55,31.26l-4.29,7.68a1.5,1.5,0,1,0,2.59,1.51l4.29-7.68a1.5,1.5,0,1,0-2.59-1.51Z"/><path class="cls-2" d="M189.68,32.74a10.72,10.72,0,0,0,3,5.22,1.5,1.5,0,1,0,2.12-2.12,8.64,8.64,0,0,1-1-1.1l.23.3a10,10,0,0,1-1.2-2l.15.36a10.09,10.09,0,0,1-.46-1.41,1.5,1.5,0,1,0-2.89.8Z"/><path class="cls-2" d="M193,24.16l9.26-4.75a1.51,1.51,0,0,0,.54-2.05,1.54,1.54,0,0,0-2.06-.54l-9.26,4.75a1.51,1.51,0,0,0-.54,2.05,1.55,1.55,0,0,0,2.06.54Z"/><path class="cls-2" d="M187.89,72l-.45,12.42c-.07,1.93,2.93,1.93,3,0L190.89,72c.07-1.93-2.93-1.93-3,0Z"/><path class="cls-2" d="M184.5,71.12a35.07,35.07,0,0,0-1,14.41,1.5,1.5,0,0,0,2.95-.39L186.12,72c-.05-1.92-3.05-1.93-3,0l.36,13.19,3-.4a31.37,31.37,0,0,1,1-12.82,1.5,1.5,0,0,0-2.89-.8Z"/><path class="cls-2" d="M187.24,25a2.57,2.57,0,0,0-1.32-1.6,3.28,3.28,0,0,0-.59-.23,3.52,3.52,0,0,0-.65-.1,1.07,1.07,0,0,0-.25,0,2.76,2.76,0,0,0-.64.1,2.72,2.72,0,0,0-1.06.63,2.54,2.54,0,0,0-.63,1.07,2.83,2.83,0,0,0,.26,2.13,2.9,2.9,0,0,0,.39.53,2.85,2.85,0,0,0,.49.43,2.56,2.56,0,0,0,.6.29,2.49,2.49,0,0,0,.66.13,1.27,1.27,0,0,0,.58-.13,1.34,1.34,0,0,0,.79-.8,1,1,0,0,0,.13-.57,1.46,1.46,0,0,0-.44-1.06l-.3-.24a1.44,1.44,0,0,0-.76-.2h0l.4.06-.24-.07.35.15a1.09,1.09,0,0,1-.23-.14l.3.24a1.45,1.45,0,0,1-.21-.22l.24.31a1.5,1.5,0,0,1-.19-.32l.15.35a1.36,1.36,0,0,1-.1-.36l.06.4a.86.86,0,0,1,0-.32l-.06.4a1.57,1.57,0,0,1,.08-.29l-.15.36a.74.74,0,0,1,.13-.21l-.24.3a.85.85,0,0,1,.17-.16l-.31.23.23-.14-.35.16a1.32,1.32,0,0,1,.3-.09l-.4.06a1.09,1.09,0,0,1,.36,0l-.4-.05a2.11,2.11,0,0,1,.36.09l-.36-.15a2,2,0,0,1,.29.17l-.3-.23a1,1,0,0,1,.21.21l-.24-.31a.94.94,0,0,1,.12.22l-.15-.36a.5.5,0,0,1,0,.13,1.53,1.53,0,0,0,.69.89,1.12,1.12,0,0,0,.56.18,1.08,1.08,0,0,0,.59,0,1.53,1.53,0,0,0,.9-.69,1.56,1.56,0,0,0,.15-1.16Z"/></g></g></svg>